<mxfile host="app.diagrams.net" modified="2021-07-05T07:46:34.422Z" agent="5.0 (Macintosh; Intel Mac OS X 10_15_7) AppleWebKit/537.36 (KHTML, like Gecko) Chrome/91.0.4472.114 Safari/537.36" etag="065EHnaIqZRFg130jGKw" version="14.8.4" type="github">
  <diagram name="Page-1" id="9f46799a-70d6-7492-0946-bef42562c5a5">
    <mxGraphModel dx="2504" dy="1073" grid="1" gridSize="10" guides="1" tooltips="1" connect="1" arrows="1" fold="1" page="1" pageScale="1" pageWidth="1100" pageHeight="850" math="0" shadow="0">
      <root>
        <mxCell id="0" />
        <mxCell id="1" parent="0" />
        <mxCell id="78961159f06e98e8-17" value="users 用户表&lt;br&gt;" style="swimlane;html=1;fontStyle=1;align=center;verticalAlign=top;childLayout=stackLayout;horizontal=1;startSize=26;horizontalStack=0;resizeParent=1;resizeLast=0;collapsible=1;marginBottom=0;swimlaneFillColor=#ffffff;rounded=0;shadow=0;comic=0;labelBackgroundColor=none;strokeWidth=1;fillColor=none;fontFamily=Verdana;fontSize=12;strokeColor=#006658;fontColor=#5C5C5C;" parent="1" vertex="1">
          <mxGeometry x="20" y="120" width="200" height="380" as="geometry">
            <mxRectangle x="50" y="130" width="70" height="26" as="alternateBounds" />
          </mxGeometry>
        </mxCell>
        <mxCell id="78961159f06e98e8-21" value="id&lt;br&gt;" style="text;html=1;strokeColor=none;fillColor=none;align=left;verticalAlign=top;spacingLeft=4;spacingRight=4;whiteSpace=wrap;overflow=hidden;rotatable=0;points=[[0,0.5],[1,0.5]];portConstraint=eastwest;fontColor=#5C5C5C;" parent="78961159f06e98e8-17" vertex="1">
          <mxGeometry y="26" width="200" height="26" as="geometry" />
        </mxCell>
        <mxCell id="78961159f06e98e8-23" value="name&lt;br&gt;" style="text;html=1;strokeColor=none;fillColor=none;align=left;verticalAlign=top;spacingLeft=4;spacingRight=4;whiteSpace=wrap;overflow=hidden;rotatable=0;points=[[0,0.5],[1,0.5]];portConstraint=eastwest;fontColor=#5C5C5C;" parent="78961159f06e98e8-17" vertex="1">
          <mxGeometry y="52" width="200" height="26" as="geometry" />
        </mxCell>
        <mxCell id="78961159f06e98e8-25" value="password&lt;br&gt;" style="text;html=1;strokeColor=none;fillColor=none;align=left;verticalAlign=top;spacingLeft=4;spacingRight=4;whiteSpace=wrap;overflow=hidden;rotatable=0;points=[[0,0.5],[1,0.5]];portConstraint=eastwest;fontColor=#5C5C5C;" parent="78961159f06e98e8-17" vertex="1">
          <mxGeometry y="78" width="200" height="26" as="geometry" />
        </mxCell>
        <mxCell id="78961159f06e98e8-26" value="phone&lt;br&gt;" style="text;html=1;strokeColor=none;fillColor=none;align=left;verticalAlign=top;spacingLeft=4;spacingRight=4;whiteSpace=wrap;overflow=hidden;rotatable=0;points=[[0,0.5],[1,0.5]];portConstraint=eastwest;fontColor=#5C5C5C;" parent="78961159f06e98e8-17" vertex="1">
          <mxGeometry y="104" width="200" height="26" as="geometry" />
        </mxCell>
        <mxCell id="u5DTICknPSbGoJJpcP43-8" value="mac&amp;nbsp; mac地址&lt;br&gt;" style="text;html=1;strokeColor=none;fillColor=none;align=left;verticalAlign=top;spacingLeft=4;spacingRight=4;whiteSpace=wrap;overflow=hidden;rotatable=0;points=[[0,0.5],[1,0.5]];portConstraint=eastwest;fontColor=#5C5C5C;" parent="78961159f06e98e8-17" vertex="1">
          <mxGeometry y="130" width="200" height="26" as="geometry" />
        </mxCell>
        <mxCell id="u5DTICknPSbGoJJpcP43-9" value="role_id&amp;nbsp; 角色id&lt;br&gt;" style="text;html=1;strokeColor=none;fillColor=none;align=left;verticalAlign=top;spacingLeft=4;spacingRight=4;whiteSpace=wrap;overflow=hidden;rotatable=0;points=[[0,0.5],[1,0.5]];portConstraint=eastwest;fontColor=#5C5C5C;" parent="78961159f06e98e8-17" vertex="1">
          <mxGeometry y="156" width="200" height="26" as="geometry" />
        </mxCell>
        <mxCell id="u5DTICknPSbGoJJpcP43-24" value="wechat 微信号" style="text;html=1;strokeColor=none;fillColor=none;align=left;verticalAlign=top;spacingLeft=4;spacingRight=4;whiteSpace=wrap;overflow=hidden;rotatable=0;points=[[0,0.5],[1,0.5]];portConstraint=eastwest;fontColor=#5C5C5C;" parent="78961159f06e98e8-17" vertex="1">
          <mxGeometry y="182" width="200" height="26" as="geometry" />
        </mxCell>
        <mxCell id="u5DTICknPSbGoJJpcP43-54" value="company_id 所属的公司id" style="text;html=1;strokeColor=none;fillColor=none;align=left;verticalAlign=top;spacingLeft=4;spacingRight=4;whiteSpace=wrap;overflow=hidden;rotatable=0;points=[[0,0.5],[1,0.5]];portConstraint=eastwest;fontColor=#5C5C5C;" parent="78961159f06e98e8-17" vertex="1">
          <mxGeometry y="208" width="200" height="26" as="geometry" />
        </mxCell>
        <mxCell id="536uSs9uS-_Bxc-050VK-1" value="is_able bool 启用状态" style="text;html=1;strokeColor=none;fillColor=none;align=left;verticalAlign=top;spacingLeft=4;spacingRight=4;whiteSpace=wrap;overflow=hidden;rotatable=0;points=[[0,0.5],[1,0.5]];portConstraint=eastwest;fontColor=#5C5C5C;" parent="78961159f06e98e8-17" vertex="1">
          <mxGeometry y="234" width="200" height="26" as="geometry" />
        </mxCell>
        <mxCell id="536uSs9uS-_Bxc-050VK-2" value="avatarFileId int 头像文件id" style="text;html=1;strokeColor=none;fillColor=none;align=left;verticalAlign=top;spacingLeft=4;spacingRight=4;whiteSpace=wrap;overflow=hidden;rotatable=0;points=[[0,0.5],[1,0.5]];portConstraint=eastwest;fontColor=#5C5C5C;" parent="78961159f06e98e8-17" vertex="1">
          <mxGeometry y="260" width="200" height="26" as="geometry" />
        </mxCell>
        <mxCell id="u5DTICknPSbGoJJpcP43-11" value="roles 角色表&lt;br&gt;" style="swimlane;html=1;fontStyle=1;align=center;verticalAlign=top;childLayout=stackLayout;horizontal=1;startSize=26;horizontalStack=0;resizeParent=1;resizeLast=0;collapsible=1;marginBottom=0;swimlaneFillColor=#ffffff;rounded=0;shadow=0;comic=0;labelBackgroundColor=none;strokeWidth=1;fillColor=none;fontFamily=Verdana;fontSize=12;strokeColor=#006658;fontColor=#5C5C5C;" parent="1" vertex="1">
          <mxGeometry x="310" y="90" width="160" height="210" as="geometry">
            <mxRectangle x="50" y="130" width="70" height="26" as="alternateBounds" />
          </mxGeometry>
        </mxCell>
        <mxCell id="u5DTICknPSbGoJJpcP43-12" value="id&lt;br&gt;" style="text;html=1;strokeColor=none;fillColor=none;align=left;verticalAlign=top;spacingLeft=4;spacingRight=4;whiteSpace=wrap;overflow=hidden;rotatable=0;points=[[0,0.5],[1,0.5]];portConstraint=eastwest;fontColor=#5C5C5C;" parent="u5DTICknPSbGoJJpcP43-11" vertex="1">
          <mxGeometry y="26" width="160" height="26" as="geometry" />
        </mxCell>
        <mxCell id="u5DTICknPSbGoJJpcP43-13" value="name 角色名&lt;br&gt;" style="text;html=1;strokeColor=none;fillColor=none;align=left;verticalAlign=top;spacingLeft=4;spacingRight=4;whiteSpace=wrap;overflow=hidden;rotatable=0;points=[[0,0.5],[1,0.5]];portConstraint=eastwest;fontColor=#5C5C5C;" parent="u5DTICknPSbGoJJpcP43-11" vertex="1">
          <mxGeometry y="52" width="160" height="26" as="geometry" />
        </mxCell>
        <mxCell id="u5DTICknPSbGoJJpcP43-15" value="tag 角色标识&lt;br&gt;" style="text;html=1;strokeColor=none;fillColor=none;align=left;verticalAlign=top;spacingLeft=4;spacingRight=4;whiteSpace=wrap;overflow=hidden;rotatable=0;points=[[0,0.5],[1,0.5]];portConstraint=eastwest;fontColor=#5C5C5C;" parent="u5DTICknPSbGoJJpcP43-11" vertex="1">
          <mxGeometry y="78" width="160" height="26" as="geometry" />
        </mxCell>
        <mxCell id="u5DTICknPSbGoJJpcP43-25" value="companies 公司表" style="swimlane;html=1;fontStyle=1;align=center;verticalAlign=top;childLayout=stackLayout;horizontal=1;startSize=26;horizontalStack=0;resizeParent=1;resizeLast=0;collapsible=1;marginBottom=0;swimlaneFillColor=#ffffff;rounded=0;shadow=0;comic=0;labelBackgroundColor=none;strokeWidth=1;fillColor=none;fontFamily=Verdana;fontSize=12;strokeColor=#006658;fontColor=#5C5C5C;" parent="1" vertex="1">
          <mxGeometry x="340" y="480" width="230" height="286" as="geometry">
            <mxRectangle x="50" y="130" width="70" height="26" as="alternateBounds" />
          </mxGeometry>
        </mxCell>
        <mxCell id="u5DTICknPSbGoJJpcP43-26" value="id&lt;br&gt;" style="text;html=1;strokeColor=none;fillColor=none;align=left;verticalAlign=top;spacingLeft=4;spacingRight=4;whiteSpace=wrap;overflow=hidden;rotatable=0;points=[[0,0.5],[1,0.5]];portConstraint=eastwest;fontColor=#5C5C5C;" parent="u5DTICknPSbGoJJpcP43-25" vertex="1">
          <mxGeometry y="26" width="230" height="26" as="geometry" />
        </mxCell>
        <mxCell id="u5DTICknPSbGoJJpcP43-27" value="name 公司名" style="text;html=1;strokeColor=none;fillColor=none;align=left;verticalAlign=top;spacingLeft=4;spacingRight=4;whiteSpace=wrap;overflow=hidden;rotatable=0;points=[[0,0.5],[1,0.5]];portConstraint=eastwest;fontColor=#5C5C5C;" parent="u5DTICknPSbGoJJpcP43-25" vertex="1">
          <mxGeometry y="52" width="230" height="26" as="geometry" />
        </mxCell>
        <mxCell id="u5DTICknPSbGoJJpcP43-28" value="pinyin 拼音" style="text;html=1;strokeColor=none;fillColor=none;align=left;verticalAlign=top;spacingLeft=4;spacingRight=4;whiteSpace=wrap;overflow=hidden;rotatable=0;points=[[0,0.5],[1,0.5]];portConstraint=eastwest;fontColor=#5C5C5C;" parent="u5DTICknPSbGoJJpcP43-25" vertex="1">
          <mxGeometry y="78" width="230" height="26" as="geometry" />
        </mxCell>
        <mxCell id="u5DTICknPSbGoJJpcP43-29" value="uid 用户id" style="text;html=1;strokeColor=none;fillColor=none;align=left;verticalAlign=top;spacingLeft=4;spacingRight=4;whiteSpace=wrap;overflow=hidden;rotatable=0;points=[[0,0.5],[1,0.5]];portConstraint=eastwest;fontColor=#5C5C5C;" parent="u5DTICknPSbGoJJpcP43-25" vertex="1">
          <mxGeometry y="104" width="230" height="26" as="geometry" />
        </mxCell>
        <mxCell id="u5DTICknPSbGoJJpcP43-49" value="wechat string 公司微信" style="text;html=1;strokeColor=none;fillColor=none;align=left;verticalAlign=top;spacingLeft=4;spacingRight=4;whiteSpace=wrap;overflow=hidden;rotatable=0;points=[[0,0.5],[1,0.5]];portConstraint=eastwest;fontColor=#5C5C5C;" parent="u5DTICknPSbGoJJpcP43-25" vertex="1">
          <mxGeometry y="130" width="230" height="34" as="geometry" />
        </mxCell>
        <mxCell id="u5DTICknPSbGoJJpcP43-47" value="lbackgroundFileId app背景文件id&lt;br&gt;" style="text;html=1;strokeColor=none;fillColor=none;align=left;verticalAlign=top;spacingLeft=4;spacingRight=4;whiteSpace=wrap;overflow=hidden;rotatable=0;points=[[0,0.5],[1,0.5]];portConstraint=eastwest;fontColor=#5C5C5C;" parent="u5DTICknPSbGoJJpcP43-25" vertex="1">
          <mxGeometry y="164" width="230" height="26" as="geometry" />
        </mxCell>
        <mxCell id="u5DTICknPSbGoJJpcP43-41" value="lbackgroundFileId app背景文件id&lt;br&gt;" style="text;html=1;strokeColor=none;fillColor=none;align=left;verticalAlign=top;spacingLeft=4;spacingRight=4;whiteSpace=wrap;overflow=hidden;rotatable=0;points=[[0,0.5],[1,0.5]];portConstraint=eastwest;fontColor=#5C5C5C;" parent="u5DTICknPSbGoJJpcP43-25" vertex="1">
          <mxGeometry y="190" width="230" height="30" as="geometry" />
        </mxCell>
        <mxCell id="u5DTICknPSbGoJJpcP43-37" value="logoFileId&amp;nbsp; 文件id" style="text;html=1;strokeColor=none;fillColor=none;align=left;verticalAlign=top;spacingLeft=4;spacingRight=4;whiteSpace=wrap;overflow=hidden;rotatable=0;points=[[0,0.5],[1,0.5]];portConstraint=eastwest;fontColor=#5C5C5C;" parent="u5DTICknPSbGoJJpcP43-25" vertex="1">
          <mxGeometry y="220" width="230" height="26" as="geometry" />
        </mxCell>
        <mxCell id="u5DTICknPSbGoJJpcP43-53" value="phone string 公司电话&lt;br&gt;" style="text;html=1;strokeColor=none;fillColor=none;align=left;verticalAlign=top;spacingLeft=4;spacingRight=4;whiteSpace=wrap;overflow=hidden;rotatable=0;points=[[0,0.5],[1,0.5]];portConstraint=eastwest;fontColor=#5C5C5C;" parent="u5DTICknPSbGoJJpcP43-25" vertex="1">
          <mxGeometry y="246" width="230" height="26" as="geometry" />
        </mxCell>
        <mxCell id="u5DTICknPSbGoJJpcP43-32" value="files 文件表" style="swimlane;html=1;fontStyle=1;align=center;verticalAlign=top;childLayout=stackLayout;horizontal=1;startSize=26;horizontalStack=0;resizeParent=1;resizeLast=0;collapsible=1;marginBottom=0;swimlaneFillColor=#ffffff;rounded=0;shadow=0;comic=0;labelBackgroundColor=none;strokeWidth=1;fillColor=none;fontFamily=Verdana;fontSize=12;strokeColor=#006658;fontColor=#5C5C5C;" parent="1" vertex="1">
          <mxGeometry x="20" y="550" width="160" height="110" as="geometry">
            <mxRectangle x="50" y="130" width="70" height="26" as="alternateBounds" />
          </mxGeometry>
        </mxCell>
        <mxCell id="u5DTICknPSbGoJJpcP43-33" value="id&lt;br&gt;" style="text;html=1;strokeColor=none;fillColor=none;align=left;verticalAlign=top;spacingLeft=4;spacingRight=4;whiteSpace=wrap;overflow=hidden;rotatable=0;points=[[0,0.5],[1,0.5]];portConstraint=eastwest;fontColor=#5C5C5C;" parent="u5DTICknPSbGoJJpcP43-32" vertex="1">
          <mxGeometry y="26" width="160" height="26" as="geometry" />
        </mxCell>
        <mxCell id="u5DTICknPSbGoJJpcP43-34" value="path 文件路径" style="text;html=1;strokeColor=none;fillColor=none;align=left;verticalAlign=top;spacingLeft=4;spacingRight=4;whiteSpace=wrap;overflow=hidden;rotatable=0;points=[[0,0.5],[1,0.5]];portConstraint=eastwest;fontColor=#5C5C5C;" parent="u5DTICknPSbGoJJpcP43-32" vertex="1">
          <mxGeometry y="52" width="160" height="26" as="geometry" />
        </mxCell>
        <mxCell id="u5DTICknPSbGoJJpcP43-35" value="disk 保存硬盘" style="text;html=1;strokeColor=none;fillColor=none;align=left;verticalAlign=top;spacingLeft=4;spacingRight=4;whiteSpace=wrap;overflow=hidden;rotatable=0;points=[[0,0.5],[1,0.5]];portConstraint=eastwest;fontColor=#5C5C5C;" parent="u5DTICknPSbGoJJpcP43-32" vertex="1">
          <mxGeometry y="78" width="160" height="26" as="geometry" />
        </mxCell>
        <mxCell id="u5DTICknPSbGoJJpcP43-43" value="" style="edgeStyle=elbowEdgeStyle;elbow=horizontal;endArrow=classic;html=1;strokeColor=#006658;fontColor=#5C5C5C;" parent="1" source="u5DTICknPSbGoJJpcP43-29" target="78961159f06e98e8-21" edge="1">
          <mxGeometry width="50" height="50" relative="1" as="geometry">
            <mxPoint x="520" y="470" as="sourcePoint" />
            <mxPoint x="570" y="420" as="targetPoint" />
          </mxGeometry>
        </mxCell>
        <mxCell id="u5DTICknPSbGoJJpcP43-44" value="" style="edgeStyle=elbowEdgeStyle;elbow=horizontal;endArrow=classic;html=1;entryX=0;entryY=0.5;entryDx=0;entryDy=0;exitX=1;exitY=0.5;exitDx=0;exitDy=0;strokeColor=#006658;fontColor=#5C5C5C;" parent="1" source="u5DTICknPSbGoJJpcP43-9" target="u5DTICknPSbGoJJpcP43-12" edge="1">
          <mxGeometry width="50" height="50" relative="1" as="geometry">
            <mxPoint x="240" y="280" as="sourcePoint" />
            <mxPoint x="290" y="230" as="targetPoint" />
            <Array as="points" />
          </mxGeometry>
        </mxCell>
        <mxCell id="u5DTICknPSbGoJJpcP43-46" value="" style="edgeStyle=orthogonalEdgeStyle;elbow=horizontal;endArrow=classic;html=1;entryX=0;entryY=0.5;entryDx=0;entryDy=0;exitX=0;exitY=0.5;exitDx=0;exitDy=0;strokeColor=#006658;fontColor=#5C5C5C;" parent="1" source="u5DTICknPSbGoJJpcP43-41" target="u5DTICknPSbGoJJpcP43-33" edge="1">
          <mxGeometry width="50" height="50" relative="1" as="geometry">
            <mxPoint x="10" y="370" as="sourcePoint" />
            <mxPoint x="570" y="420" as="targetPoint" />
          </mxGeometry>
        </mxCell>
        <mxCell id="u5DTICknPSbGoJJpcP43-51" value="" style="edgeStyle=segmentEdgeStyle;endArrow=classic;html=1;entryX=0;entryY=0.5;entryDx=0;entryDy=0;strokeColor=#006658;fontColor=#5C5C5C;" parent="1" source="u5DTICknPSbGoJJpcP43-33" target="u5DTICknPSbGoJJpcP43-37" edge="1">
          <mxGeometry width="50" height="50" relative="1" as="geometry">
            <mxPoint x="200" y="610" as="sourcePoint" />
            <mxPoint x="250" y="560" as="targetPoint" />
            <Array as="points">
              <mxPoint x="260" y="589" />
              <mxPoint x="260" y="743" />
            </Array>
          </mxGeometry>
        </mxCell>
        <mxCell id="u5DTICknPSbGoJJpcP43-56" value="" style="edgeStyle=segmentEdgeStyle;endArrow=classic;html=1;exitX=1;exitY=0.5;exitDx=0;exitDy=0;entryX=0;entryY=0.5;entryDx=0;entryDy=0;strokeColor=#006658;fontColor=#5C5C5C;" parent="1" source="u5DTICknPSbGoJJpcP43-54" target="u5DTICknPSbGoJJpcP43-26" edge="1">
          <mxGeometry width="50" height="50" relative="1" as="geometry">
            <mxPoint x="520" y="460" as="sourcePoint" />
            <mxPoint x="570" y="410" as="targetPoint" />
            <Array as="points">
              <mxPoint x="260" y="341" />
              <mxPoint x="260" y="519" />
            </Array>
          </mxGeometry>
        </mxCell>
        <mxCell id="536uSs9uS-_Bxc-050VK-3" value="" style="edgeStyle=elbowEdgeStyle;elbow=vertical;endArrow=classic;html=1;exitX=1;exitY=0.5;exitDx=0;exitDy=0;strokeColor=#006658;fontColor=#5C5C5C;" parent="1" source="536uSs9uS-_Bxc-050VK-2" target="u5DTICknPSbGoJJpcP43-33" edge="1">
          <mxGeometry width="50" height="50" relative="1" as="geometry">
            <mxPoint x="520" y="510" as="sourcePoint" />
            <mxPoint x="570" y="460" as="targetPoint" />
            <Array as="points">
              <mxPoint x="230" y="500" />
            </Array>
          </mxGeometry>
        </mxCell>
        <mxCell id="qr2XOrhrK6a8kLRLHa2o-1" value="repository 仓库表" style="swimlane;html=1;fontStyle=1;align=center;verticalAlign=top;childLayout=stackLayout;horizontal=1;startSize=26;horizontalStack=0;resizeParent=1;resizeLast=0;collapsible=1;marginBottom=0;swimlaneFillColor=#ffffff;rounded=0;shadow=0;comic=0;labelBackgroundColor=none;strokeWidth=1;fillColor=none;fontFamily=Verdana;fontSize=12;strokeColor=#006658;fontColor=#5C5C5C;" parent="1" vertex="1">
          <mxGeometry x="610" y="200" width="230" height="316" as="geometry">
            <mxRectangle x="50" y="130" width="70" height="26" as="alternateBounds" />
          </mxGeometry>
        </mxCell>
        <mxCell id="qr2XOrhrK6a8kLRLHa2o-2" value="id&lt;br&gt;" style="text;html=1;strokeColor=none;fillColor=none;align=left;verticalAlign=top;spacingLeft=4;spacingRight=4;whiteSpace=wrap;overflow=hidden;rotatable=0;points=[[0,0.5],[1,0.5]];portConstraint=eastwest;fontColor=#5C5C5C;" parent="qr2XOrhrK6a8kLRLHa2o-1" vertex="1">
          <mxGeometry y="26" width="230" height="26" as="geometry" />
        </mxCell>
        <mxCell id="qr2XOrhrK6a8kLRLHa2o-3" value="name 仓库名" style="text;html=1;strokeColor=none;fillColor=none;align=left;verticalAlign=top;spacingLeft=4;spacingRight=4;whiteSpace=wrap;overflow=hidden;rotatable=0;points=[[0,0.5],[1,0.5]];portConstraint=eastwest;fontColor=#5C5C5C;" parent="qr2XOrhrK6a8kLRLHa2o-1" vertex="1">
          <mxGeometry y="52" width="230" height="26" as="geometry" />
        </mxCell>
        <mxCell id="qr2XOrhrK6a8kLRLHa2o-4" value="pinyin 拼音" style="text;html=1;strokeColor=none;fillColor=none;align=left;verticalAlign=top;spacingLeft=4;spacingRight=4;whiteSpace=wrap;overflow=hidden;rotatable=0;points=[[0,0.5],[1,0.5]];portConstraint=eastwest;fontColor=#5C5C5C;" parent="qr2XOrhrK6a8kLRLHa2o-1" vertex="1">
          <mxGeometry y="78" width="230" height="26" as="geometry" />
        </mxCell>
        <mxCell id="qr2XOrhrK6a8kLRLHa2o-5" value="uid 管理员用户id" style="text;html=1;strokeColor=none;fillColor=none;align=left;verticalAlign=top;spacingLeft=4;spacingRight=4;whiteSpace=wrap;overflow=hidden;rotatable=0;points=[[0,0.5],[1,0.5]];portConstraint=eastwest;fontColor=#5C5C5C;" parent="qr2XOrhrK6a8kLRLHa2o-1" vertex="1">
          <mxGeometry y="104" width="230" height="26" as="geometry" />
        </mxCell>
        <mxCell id="qr2XOrhrK6a8kLRLHa2o-21" value="city string 城市" style="text;html=1;strokeColor=none;fillColor=none;align=left;verticalAlign=top;spacingLeft=4;spacingRight=4;whiteSpace=wrap;overflow=hidden;rotatable=0;points=[[0,0.5],[1,0.5]];portConstraint=eastwest;fontColor=#5C5C5C;" parent="qr2XOrhrK6a8kLRLHa2o-1" vertex="1">
          <mxGeometry y="130" width="230" height="26" as="geometry" />
        </mxCell>
        <mxCell id="qr2XOrhrK6a8kLRLHa2o-22" value="address string 地址" style="text;html=1;strokeColor=none;fillColor=none;align=left;verticalAlign=top;spacingLeft=4;spacingRight=4;whiteSpace=wrap;overflow=hidden;rotatable=0;points=[[0,0.5],[1,0.5]];portConstraint=eastwest;fontColor=#5C5C5C;" parent="qr2XOrhrK6a8kLRLHa2o-1" vertex="1">
          <mxGeometry y="156" width="230" height="26" as="geometry" />
        </mxCell>
        <mxCell id="qr2XOrhrK6a8kLRLHa2o-23" value="total int 总量" style="text;html=1;strokeColor=none;fillColor=none;align=left;verticalAlign=top;spacingLeft=4;spacingRight=4;whiteSpace=wrap;overflow=hidden;rotatable=0;points=[[0,0.5],[1,0.5]];portConstraint=eastwest;fontColor=#5C5C5C;" parent="qr2XOrhrK6a8kLRLHa2o-1" vertex="1">
          <mxGeometry y="182" width="230" height="26" as="geometry" />
        </mxCell>
        <mxCell id="qr2XOrhrK6a8kLRLHa2o-25" value="weight float64 重量" style="text;html=1;strokeColor=none;fillColor=none;align=left;verticalAlign=top;spacingLeft=4;spacingRight=4;whiteSpace=wrap;overflow=hidden;rotatable=0;points=[[0,0.5],[1,0.5]];portConstraint=eastwest;fontColor=#5C5C5C;" parent="qr2XOrhrK6a8kLRLHa2o-1" vertex="1">
          <mxGeometry y="208" width="230" height="26" as="geometry" />
        </mxCell>
        <mxCell id="qr2XOrhrK6a8kLRLHa2o-24" value="remark string 备注" style="text;html=1;strokeColor=none;fillColor=none;align=left;verticalAlign=top;spacingLeft=4;spacingRight=4;whiteSpace=wrap;overflow=hidden;rotatable=0;points=[[0,0.5],[1,0.5]];portConstraint=eastwest;fontColor=#5C5C5C;" parent="qr2XOrhrK6a8kLRLHa2o-1" vertex="1">
          <mxGeometry y="234" width="230" height="26" as="geometry" />
        </mxCell>
        <mxCell id="qr2XOrhrK6a8kLRLHa2o-26" value="state bool 是否启用" style="text;html=1;strokeColor=none;fillColor=none;align=left;verticalAlign=top;spacingLeft=4;spacingRight=4;whiteSpace=wrap;overflow=hidden;rotatable=0;points=[[0,0.5],[1,0.5]];portConstraint=eastwest;fontColor=#5C5C5C;" parent="qr2XOrhrK6a8kLRLHa2o-1" vertex="1">
          <mxGeometry y="260" width="230" height="25" as="geometry" />
        </mxCell>
        <mxCell id="qr2XOrhrK6a8kLRLHa2o-27" value="" style="edgeStyle=elbowEdgeStyle;elbow=horizontal;endArrow=classic;html=1;exitX=1;exitY=0.5;exitDx=0;exitDy=0;strokeColor=#006658;fontColor=#5C5C5C;" parent="1" source="78961159f06e98e8-21" target="qr2XOrhrK6a8kLRLHa2o-5" edge="1">
          <mxGeometry width="50" height="50" relative="1" as="geometry">
            <mxPoint x="520" y="500" as="sourcePoint" />
            <mxPoint x="570" y="450" as="targetPoint" />
            <Array as="points">
              <mxPoint x="290" y="220" />
            </Array>
          </mxGeometry>
        </mxCell>
        <mxCell id="qr2XOrhrK6a8kLRLHa2o-28" value="devices 设备表" style="swimlane;html=1;fontStyle=1;align=center;verticalAlign=top;childLayout=stackLayout;horizontal=1;startSize=26;horizontalStack=0;resizeParent=1;resizeLast=0;collapsible=1;marginBottom=0;swimlaneFillColor=#ffffff;rounded=0;shadow=0;comic=0;labelBackgroundColor=none;strokeWidth=1;fillColor=none;fontFamily=Verdana;fontSize=12;strokeColor=#006658;fontColor=#5C5C5C;" parent="1" vertex="1">
          <mxGeometry x="630" y="720" width="160" height="160" as="geometry">
            <mxRectangle x="50" y="130" width="70" height="26" as="alternateBounds" />
          </mxGeometry>
        </mxCell>
        <mxCell id="qr2XOrhrK6a8kLRLHa2o-29" value="id&lt;br&gt;" style="text;html=1;strokeColor=none;fillColor=none;align=left;verticalAlign=top;spacingLeft=4;spacingRight=4;whiteSpace=wrap;overflow=hidden;rotatable=0;points=[[0,0.5],[1,0.5]];portConstraint=eastwest;fontColor=#5C5C5C;" parent="qr2XOrhrK6a8kLRLHa2o-28" vertex="1">
          <mxGeometry y="26" width="160" height="26" as="geometry" />
        </mxCell>
        <mxCell id="qr2XOrhrK6a8kLRLHa2o-30" value="mac string mac地址" style="text;html=1;strokeColor=none;fillColor=none;align=left;verticalAlign=top;spacingLeft=4;spacingRight=4;whiteSpace=wrap;overflow=hidden;rotatable=0;points=[[0,0.5],[1,0.5]];portConstraint=eastwest;fontColor=#5C5C5C;" parent="qr2XOrhrK6a8kLRLHa2o-28" vertex="1">
          <mxGeometry y="52" width="160" height="26" as="geometry" />
        </mxCell>
        <mxCell id="qr2XOrhrK6a8kLRLHa2o-31" value="uid int 用户id" style="text;html=1;strokeColor=none;fillColor=none;align=left;verticalAlign=top;spacingLeft=4;spacingRight=4;whiteSpace=wrap;overflow=hidden;rotatable=0;points=[[0,0.5],[1,0.5]];portConstraint=eastwest;fontColor=#5C5C5C;" parent="qr2XOrhrK6a8kLRLHa2o-28" vertex="1">
          <mxGeometry y="78" width="160" height="26" as="geometry" />
        </mxCell>
        <mxCell id="qr2XOrhrK6a8kLRLHa2o-32" value="is_able bool 是否启用" style="text;html=1;strokeColor=none;fillColor=none;align=left;verticalAlign=top;spacingLeft=4;spacingRight=4;whiteSpace=wrap;overflow=hidden;rotatable=0;points=[[0,0.5],[1,0.5]];portConstraint=eastwest;fontColor=#5C5C5C;" parent="qr2XOrhrK6a8kLRLHa2o-28" vertex="1">
          <mxGeometry y="104" width="160" height="26" as="geometry" />
        </mxCell>
        <mxCell id="qr2XOrhrK6a8kLRLHa2o-39" value="" style="edgeStyle=elbowEdgeStyle;elbow=horizontal;endArrow=classic;html=1;strokeColor=#006658;fontColor=#5C5C5C;" parent="1" source="qr2XOrhrK6a8kLRLHa2o-31" edge="1">
          <mxGeometry width="50" height="50" relative="1" as="geometry">
            <mxPoint x="520" y="540" as="sourcePoint" />
            <mxPoint x="220" y="160" as="targetPoint" />
            <Array as="points">
              <mxPoint x="280" y="390" />
              <mxPoint x="410" y="750" />
              <mxPoint x="310" y="230" />
            </Array>
          </mxGeometry>
        </mxCell>
        <mxCell id="KPvRqQYWDeznnrHQe_zY-1" value="steels 型钢表" style="swimlane;html=1;fontStyle=1;align=center;verticalAlign=top;childLayout=stackLayout;horizontal=1;startSize=26;horizontalStack=0;resizeParent=1;resizeLast=0;collapsible=1;marginBottom=0;swimlaneFillColor=#ffffff;rounded=0;shadow=0;comic=0;labelBackgroundColor=none;strokeWidth=1;fillColor=none;fontFamily=Verdana;fontSize=12;strokeColor=#006658;fontColor=#5C5C5C;" parent="1" vertex="1">
          <mxGeometry x="900" y="540" width="230" height="430" as="geometry">
            <mxRectangle x="50" y="130" width="70" height="26" as="alternateBounds" />
          </mxGeometry>
        </mxCell>
        <mxCell id="KPvRqQYWDeznnrHQe_zY-2" value="id&lt;br&gt;" style="text;html=1;strokeColor=none;fillColor=none;align=left;verticalAlign=top;spacingLeft=4;spacingRight=4;whiteSpace=wrap;overflow=hidden;rotatable=0;points=[[0,0.5],[1,0.5]];portConstraint=eastwest;fontColor=#5C5C5C;" parent="KPvRqQYWDeznnrHQe_zY-1" vertex="1">
          <mxGeometry y="26" width="230" height="26" as="geometry" />
        </mxCell>
        <mxCell id="KPvRqQYWDeznnrHQe_zY-3" value="identifier string 识别码" style="text;html=1;strokeColor=none;fillColor=none;align=left;verticalAlign=top;spacingLeft=4;spacingRight=4;whiteSpace=wrap;overflow=hidden;rotatable=0;points=[[0,0.5],[1,0.5]];portConstraint=eastwest;fontColor=#5C5C5C;" parent="KPvRqQYWDeznnrHQe_zY-1" vertex="1">
          <mxGeometry y="52" width="230" height="26" as="geometry" />
        </mxCell>
        <mxCell id="KPvRqQYWDeznnrHQe_zY-4" value="createdUid int 入库用户id" style="text;html=1;strokeColor=none;fillColor=none;align=left;verticalAlign=top;spacingLeft=4;spacingRight=4;whiteSpace=wrap;overflow=hidden;rotatable=0;points=[[0,0.5],[1,0.5]];portConstraint=eastwest;fontColor=#5C5C5C;" parent="KPvRqQYWDeznnrHQe_zY-1" vertex="1">
          <mxGeometry y="78" width="230" height="26" as="geometry" />
        </mxCell>
        <mxCell id="KPvRqQYWDeznnrHQe_zY-5" value="state int 状态 0在库 101-104在项目中201-204在维修中 301 废弃" style="text;html=1;strokeColor=none;fillColor=none;align=left;verticalAlign=top;spacingLeft=4;spacingRight=4;whiteSpace=wrap;overflow=hidden;rotatable=0;points=[[0,0.5],[1,0.5]];portConstraint=eastwest;fontColor=#5C5C5C;" parent="KPvRqQYWDeznnrHQe_zY-1" vertex="1">
          <mxGeometry y="104" width="230" height="36" as="geometry" />
        </mxCell>
        <mxCell id="KPvRqQYWDeznnrHQe_zY-13" value="specificationInfoId int 规格id" style="text;html=1;strokeColor=none;fillColor=none;align=left;verticalAlign=top;spacingLeft=4;spacingRight=4;whiteSpace=wrap;overflow=hidden;rotatable=0;points=[[0,0.5],[1,0.5]];portConstraint=eastwest;fontColor=#5C5C5C;" parent="KPvRqQYWDeznnrHQe_zY-1" vertex="1">
          <mxGeometry y="140" width="230" height="30" as="geometry" />
        </mxCell>
        <mxCell id="KPvRqQYWDeznnrHQe_zY-23" value="companyId int 公司id" style="text;html=1;strokeColor=none;fillColor=none;align=left;verticalAlign=top;spacingLeft=4;spacingRight=4;whiteSpace=wrap;overflow=hidden;rotatable=0;points=[[0,0.5],[1,0.5]];portConstraint=eastwest;fontColor=#5C5C5C;" parent="KPvRqQYWDeznnrHQe_zY-1" vertex="1">
          <mxGeometry y="170" width="230" height="30" as="geometry" />
        </mxCell>
        <mxCell id="KPvRqQYWDeznnrHQe_zY-25" value="repositoryId&amp;nbsp; int 存放的仓库id" style="text;html=1;strokeColor=none;fillColor=none;align=left;verticalAlign=top;spacingLeft=4;spacingRight=4;whiteSpace=wrap;overflow=hidden;rotatable=0;points=[[0,0.5],[1,0.5]];portConstraint=eastwest;fontColor=#5C5C5C;" parent="KPvRqQYWDeznnrHQe_zY-1" vertex="1">
          <mxGeometry y="200" width="230" height="30" as="geometry" />
        </mxCell>
        <mxCell id="KPvRqQYWDeznnrHQe_zY-28" value="&lt;meta charset=&quot;utf-8&quot;&gt;&lt;span style=&quot;color: rgb(0, 0, 0); font-family: helvetica; font-size: 12px; font-style: normal; font-weight: 400; letter-spacing: normal; text-align: left; text-indent: 0px; text-transform: none; word-spacing: 0px; background-color: rgb(248, 249, 250); display: inline; float: none;&quot;&gt;materialManufacturerId int 材料商id&lt;/span&gt;" style="text;html=1;strokeColor=none;fillColor=none;align=left;verticalAlign=top;spacingLeft=4;spacingRight=4;whiteSpace=wrap;overflow=hidden;rotatable=0;points=[[0,0.5],[1,0.5]];portConstraint=eastwest;fontColor=#5C5C5C;" parent="KPvRqQYWDeznnrHQe_zY-1" vertex="1">
          <mxGeometry y="230" width="230" height="30" as="geometry" />
        </mxCell>
        <mxCell id="KPvRqQYWDeznnrHQe_zY-50" value="&lt;font face=&quot;helvetica&quot;&gt;manufacturerId int 制造商id&lt;/font&gt;" style="text;html=1;strokeColor=none;fillColor=none;align=left;verticalAlign=top;spacingLeft=4;spacingRight=4;whiteSpace=wrap;overflow=hidden;rotatable=0;points=[[0,0.5],[1,0.5]];portConstraint=eastwest;fontColor=#5C5C5C;" parent="KPvRqQYWDeznnrHQe_zY-1" vertex="1">
          <mxGeometry y="260" width="230" height="30" as="geometry" />
        </mxCell>
        <mxCell id="KPvRqQYWDeznnrHQe_zY-59" value="&lt;font face=&quot;helvetica&quot;&gt;turnover int 流转次数&lt;/font&gt;" style="text;html=1;strokeColor=none;fillColor=none;align=left;verticalAlign=top;spacingLeft=4;spacingRight=4;whiteSpace=wrap;overflow=hidden;rotatable=0;points=[[0,0.5],[1,0.5]];portConstraint=eastwest;fontColor=#5C5C5C;" parent="KPvRqQYWDeznnrHQe_zY-1" vertex="1">
          <mxGeometry y="290" width="230" height="30" as="geometry" />
        </mxCell>
        <mxCell id="KPvRqQYWDeznnrHQe_zY-71" value="&lt;font face=&quot;helvetica&quot;&gt;usageYearRate float 年&lt;/font&gt;&lt;span style=&quot;font-family: &amp;#34;helvetica&amp;#34;&quot;&gt;使用率&lt;/span&gt;" style="text;html=1;strokeColor=none;fillColor=none;align=left;verticalAlign=top;spacingLeft=4;spacingRight=4;whiteSpace=wrap;overflow=hidden;rotatable=0;points=[[0,0.5],[1,0.5]];portConstraint=eastwest;fontColor=#5C5C5C;" parent="KPvRqQYWDeznnrHQe_zY-1" vertex="1">
          <mxGeometry y="320" width="230" height="30" as="geometry" />
        </mxCell>
        <mxCell id="KPvRqQYWDeznnrHQe_zY-72" value="&lt;font face=&quot;helvetica&quot;&gt;totalUsageRate float 总使用率&lt;/font&gt;" style="text;html=1;strokeColor=none;fillColor=none;align=left;verticalAlign=top;spacingLeft=4;spacingRight=4;whiteSpace=wrap;overflow=hidden;rotatable=0;points=[[0,0.5],[1,0.5]];portConstraint=eastwest;fontColor=#5C5C5C;" parent="KPvRqQYWDeznnrHQe_zY-1" vertex="1">
          <mxGeometry y="350" width="230" height="30" as="geometry" />
        </mxCell>
        <mxCell id="KPvRqQYWDeznnrHQe_zY-73" value="&lt;font face=&quot;helvetica&quot;&gt;producerDate time 生产时间&lt;/font&gt;" style="text;html=1;strokeColor=none;fillColor=none;align=left;verticalAlign=top;spacingLeft=4;spacingRight=4;whiteSpace=wrap;overflow=hidden;rotatable=0;points=[[0,0.5],[1,0.5]];portConstraint=eastwest;fontColor=#5C5C5C;" parent="KPvRqQYWDeznnrHQe_zY-1" vertex="1">
          <mxGeometry y="380" width="230" height="30" as="geometry" />
        </mxCell>
        <mxCell id="KPvRqQYWDeznnrHQe_zY-7" value="" style="edgeStyle=segmentEdgeStyle;endArrow=classic;html=1;strokeColor=#006658;fontColor=#5C5C5C;" parent="1" source="KPvRqQYWDeznnrHQe_zY-4" edge="1">
          <mxGeometry width="50" height="50" relative="1" as="geometry">
            <mxPoint x="830" y="610" as="sourcePoint" />
            <mxPoint x="220" y="160" as="targetPoint" />
            <Array as="points">
              <mxPoint x="600" y="621" />
              <mxPoint x="600" y="400" />
              <mxPoint x="260" y="400" />
              <mxPoint x="260" y="160" />
            </Array>
          </mxGeometry>
        </mxCell>
        <mxCell id="KPvRqQYWDeznnrHQe_zY-8" value="specification_infos 规格表" style="swimlane;html=1;fontStyle=1;align=center;verticalAlign=top;childLayout=stackLayout;horizontal=1;startSize=26;horizontalStack=0;resizeParent=1;resizeLast=0;collapsible=1;marginBottom=0;swimlaneFillColor=#ffffff;rounded=0;shadow=0;comic=0;labelBackgroundColor=none;strokeWidth=1;fillColor=none;fontFamily=Verdana;fontSize=12;strokeColor=#006658;fontColor=#5C5C5C;" parent="1" vertex="1">
          <mxGeometry x="200" y="840" width="230" height="180" as="geometry">
            <mxRectangle x="50" y="130" width="70" height="26" as="alternateBounds" />
          </mxGeometry>
        </mxCell>
        <mxCell id="KPvRqQYWDeznnrHQe_zY-9" value="id&lt;br&gt;" style="text;html=1;strokeColor=none;fillColor=none;align=left;verticalAlign=top;spacingLeft=4;spacingRight=4;whiteSpace=wrap;overflow=hidden;rotatable=0;points=[[0,0.5],[1,0.5]];portConstraint=eastwest;fontColor=#5C5C5C;" parent="KPvRqQYWDeznnrHQe_zY-8" vertex="1">
          <mxGeometry y="26" width="230" height="26" as="geometry" />
        </mxCell>
        <mxCell id="KPvRqQYWDeznnrHQe_zY-14" value="type string 类型" style="text;html=1;strokeColor=none;fillColor=none;align=left;verticalAlign=top;spacingLeft=4;spacingRight=4;whiteSpace=wrap;overflow=hidden;rotatable=0;points=[[0,0.5],[1,0.5]];portConstraint=eastwest;fontColor=#5C5C5C;" parent="KPvRqQYWDeznnrHQe_zY-8" vertex="1">
          <mxGeometry y="52" width="230" height="26" as="geometry" />
        </mxCell>
        <mxCell id="KPvRqQYWDeznnrHQe_zY-15" value="length float 长度m" style="text;html=1;strokeColor=none;fillColor=none;align=left;verticalAlign=top;spacingLeft=4;spacingRight=4;whiteSpace=wrap;overflow=hidden;rotatable=0;points=[[0,0.5],[1,0.5]];portConstraint=eastwest;fontColor=#5C5C5C;" parent="KPvRqQYWDeznnrHQe_zY-8" vertex="1">
          <mxGeometry y="78" width="230" height="26" as="geometry" />
        </mxCell>
        <mxCell id="KPvRqQYWDeznnrHQe_zY-16" value="weight&amp;nbsp; float 重量t" style="text;html=1;strokeColor=none;fillColor=none;align=left;verticalAlign=top;spacingLeft=4;spacingRight=4;whiteSpace=wrap;overflow=hidden;rotatable=0;points=[[0,0.5],[1,0.5]];portConstraint=eastwest;fontColor=#5C5C5C;" parent="KPvRqQYWDeznnrHQe_zY-8" vertex="1">
          <mxGeometry y="104" width="230" height="26" as="geometry" />
        </mxCell>
        <mxCell id="KPvRqQYWDeznnrHQe_zY-17" value="isDefault bool 是否默认" style="text;html=1;strokeColor=none;fillColor=none;align=left;verticalAlign=top;spacingLeft=4;spacingRight=4;whiteSpace=wrap;overflow=hidden;rotatable=0;points=[[0,0.5],[1,0.5]];portConstraint=eastwest;fontColor=#5C5C5C;" parent="KPvRqQYWDeznnrHQe_zY-8" vertex="1">
          <mxGeometry y="130" width="230" height="20" as="geometry" />
        </mxCell>
        <mxCell id="KPvRqQYWDeznnrHQe_zY-18" value="companyId int 公司id" style="text;html=1;strokeColor=none;fillColor=none;align=left;verticalAlign=top;spacingLeft=4;spacingRight=4;whiteSpace=wrap;overflow=hidden;rotatable=0;points=[[0,0.5],[1,0.5]];portConstraint=eastwest;fontColor=#5C5C5C;" parent="KPvRqQYWDeznnrHQe_zY-8" vertex="1">
          <mxGeometry y="150" width="230" height="20" as="geometry" />
        </mxCell>
        <mxCell id="KPvRqQYWDeznnrHQe_zY-19" value="" style="edgeStyle=elbowEdgeStyle;elbow=horizontal;endArrow=classic;html=1;exitX=0;exitY=0.5;exitDx=0;exitDy=0;exitPerimeter=0;strokeColor=#006658;fontColor=#5C5C5C;" parent="1" source="KPvRqQYWDeznnrHQe_zY-17" target="u5DTICknPSbGoJJpcP43-26" edge="1">
          <mxGeometry width="50" height="50" relative="1" as="geometry">
            <mxPoint x="590" y="770" as="sourcePoint" />
            <mxPoint x="640" y="720" as="targetPoint" />
            <Array as="points">
              <mxPoint x="190" y="710" />
            </Array>
          </mxGeometry>
        </mxCell>
        <mxCell id="KPvRqQYWDeznnrHQe_zY-21" value="" style="edgeStyle=segmentEdgeStyle;endArrow=classic;html=1;strokeColor=#006658;fontColor=#5C5C5C;" parent="1" source="KPvRqQYWDeznnrHQe_zY-13" edge="1">
          <mxGeometry width="50" height="50" relative="1" as="geometry">
            <mxPoint x="600" y="560" as="sourcePoint" />
            <mxPoint x="430" y="880" as="targetPoint" />
            <Array as="points">
              <mxPoint x="890" y="695" />
              <mxPoint x="890" y="910" />
              <mxPoint x="460" y="910" />
              <mxPoint x="460" y="880" />
            </Array>
          </mxGeometry>
        </mxCell>
        <mxCell id="KPvRqQYWDeznnrHQe_zY-24" value="" style="edgeStyle=segmentEdgeStyle;endArrow=classic;html=1;entryX=1;entryY=0.5;entryDx=0;entryDy=0;strokeColor=#006658;fontColor=#5C5C5C;" parent="1" source="KPvRqQYWDeznnrHQe_zY-23" target="u5DTICknPSbGoJJpcP43-26" edge="1">
          <mxGeometry width="50" height="50" relative="1" as="geometry">
            <mxPoint x="640" y="680" as="sourcePoint" />
            <mxPoint x="690" y="630" as="targetPoint" />
            <Array as="points">
              <mxPoint x="870" y="725" />
              <mxPoint x="870" y="690" />
              <mxPoint x="590" y="690" />
              <mxPoint x="590" y="519" />
            </Array>
          </mxGeometry>
        </mxCell>
        <mxCell id="KPvRqQYWDeznnrHQe_zY-26" value="" style="edgeStyle=segmentEdgeStyle;endArrow=classic;html=1;entryX=0.996;entryY=0.077;entryDx=0;entryDy=0;entryPerimeter=0;strokeColor=#006658;fontColor=#5C5C5C;" parent="1" source="KPvRqQYWDeznnrHQe_zY-25" target="qr2XOrhrK6a8kLRLHa2o-2" edge="1">
          <mxGeometry width="50" height="50" relative="1" as="geometry">
            <mxPoint x="640" y="740" as="sourcePoint" />
            <mxPoint x="690" y="690" as="targetPoint" />
            <Array as="points">
              <mxPoint x="870" y="755" />
              <mxPoint x="870" y="228" />
            </Array>
          </mxGeometry>
        </mxCell>
        <mxCell id="KPvRqQYWDeznnrHQe_zY-29" value="" style="edgeStyle=elbowEdgeStyle;elbow=horizontal;endArrow=classic;html=1;entryX=1;entryY=0.5;entryDx=0;entryDy=0;strokeColor=#006658;fontColor=#5C5C5C;" parent="1" source="KPvRqQYWDeznnrHQe_zY-28" target="KPvRqQYWDeznnrHQe_zY-31" edge="1">
          <mxGeometry width="50" height="50" relative="1" as="geometry">
            <mxPoint x="640" y="700" as="sourcePoint" />
            <mxPoint x="690" y="990" as="targetPoint" />
            <Array as="points">
              <mxPoint x="880" y="950" />
            </Array>
          </mxGeometry>
        </mxCell>
        <mxCell id="KPvRqQYWDeznnrHQe_zY-30" value="codeinfo 码表" style="swimlane;html=1;fontStyle=1;align=center;verticalAlign=top;childLayout=stackLayout;horizontal=1;startSize=26;horizontalStack=0;resizeParent=1;resizeLast=0;collapsible=1;marginBottom=0;swimlaneFillColor=#ffffff;rounded=0;shadow=0;comic=0;labelBackgroundColor=none;strokeWidth=1;fillColor=none;fontFamily=Verdana;fontSize=12;strokeColor=#006658;fontColor=#5C5C5C;" parent="1" vertex="1">
          <mxGeometry x="460" y="990" width="230" height="180" as="geometry">
            <mxRectangle x="50" y="130" width="70" height="26" as="alternateBounds" />
          </mxGeometry>
        </mxCell>
        <mxCell id="KPvRqQYWDeznnrHQe_zY-31" value="id&lt;br&gt;" style="text;html=1;strokeColor=none;fillColor=none;align=left;verticalAlign=top;spacingLeft=4;spacingRight=4;whiteSpace=wrap;overflow=hidden;rotatable=0;points=[[0,0.5],[1,0.5]];portConstraint=eastwest;fontColor=#5C5C5C;" parent="KPvRqQYWDeznnrHQe_zY-30" vertex="1">
          <mxGeometry y="26" width="230" height="26" as="geometry" />
        </mxCell>
        <mxCell id="KPvRqQYWDeznnrHQe_zY-32" value="type string 类型" style="text;html=1;strokeColor=none;fillColor=none;align=left;verticalAlign=top;spacingLeft=4;spacingRight=4;whiteSpace=wrap;overflow=hidden;rotatable=0;points=[[0,0.5],[1,0.5]];portConstraint=eastwest;fontColor=#5C5C5C;" parent="KPvRqQYWDeznnrHQe_zY-30" vertex="1">
          <mxGeometry y="52" width="230" height="26" as="geometry" />
        </mxCell>
        <mxCell id="KPvRqQYWDeznnrHQe_zY-33" value="Name string&amp;nbsp; 厂商名称" style="text;html=1;strokeColor=none;fillColor=none;align=left;verticalAlign=top;spacingLeft=4;spacingRight=4;whiteSpace=wrap;overflow=hidden;rotatable=0;points=[[0,0.5],[1,0.5]];portConstraint=eastwest;fontColor=#5C5C5C;" parent="KPvRqQYWDeznnrHQe_zY-30" vertex="1">
          <mxGeometry y="78" width="230" height="26" as="geometry" />
        </mxCell>
        <mxCell id="KPvRqQYWDeznnrHQe_zY-34" value="remark string&amp;nbsp; 备注" style="text;html=1;strokeColor=none;fillColor=none;align=left;verticalAlign=top;spacingLeft=4;spacingRight=4;whiteSpace=wrap;overflow=hidden;rotatable=0;points=[[0,0.5],[1,0.5]];portConstraint=eastwest;fontColor=#5C5C5C;" parent="KPvRqQYWDeznnrHQe_zY-30" vertex="1">
          <mxGeometry y="104" width="230" height="26" as="geometry" />
        </mxCell>
        <mxCell id="KPvRqQYWDeznnrHQe_zY-35" value="isDefault bool 是否默认" style="text;html=1;strokeColor=none;fillColor=none;align=left;verticalAlign=top;spacingLeft=4;spacingRight=4;whiteSpace=wrap;overflow=hidden;rotatable=0;points=[[0,0.5],[1,0.5]];portConstraint=eastwest;fontColor=#5C5C5C;" parent="KPvRqQYWDeznnrHQe_zY-30" vertex="1">
          <mxGeometry y="130" width="230" height="20" as="geometry" />
        </mxCell>
        <mxCell id="KPvRqQYWDeznnrHQe_zY-36" value="companyId int 公司id" style="text;html=1;strokeColor=none;fillColor=none;align=left;verticalAlign=top;spacingLeft=4;spacingRight=4;whiteSpace=wrap;overflow=hidden;rotatable=0;points=[[0,0.5],[1,0.5]];portConstraint=eastwest;fontColor=#5C5C5C;" parent="KPvRqQYWDeznnrHQe_zY-30" vertex="1">
          <mxGeometry y="150" width="230" height="20" as="geometry" />
        </mxCell>
        <mxCell id="KPvRqQYWDeznnrHQe_zY-48" value="" style="edgeStyle=orthogonalEdgeStyle;endArrow=classic;html=1;exitX=0;exitY=0.5;exitDx=0;exitDy=0;exitPerimeter=0;strokeColor=#006658;fontColor=#5C5C5C;" parent="1" source="KPvRqQYWDeznnrHQe_zY-35" target="u5DTICknPSbGoJJpcP43-26" edge="1">
          <mxGeometry width="50" height="50" relative="1" as="geometry">
            <mxPoint x="640" y="860" as="sourcePoint" />
            <mxPoint x="580" y="519" as="targetPoint" />
          </mxGeometry>
        </mxCell>
        <mxCell id="KPvRqQYWDeznnrHQe_zY-51" value="" style="endArrow=classic;html=1;exitX=0;exitY=0.5;exitDx=0;exitDy=0;entryX=1;entryY=0.5;entryDx=0;entryDy=0;edgeStyle=elbowEdgeStyle;strokeColor=#006658;fontColor=#5C5C5C;" parent="1" source="KPvRqQYWDeznnrHQe_zY-50" target="KPvRqQYWDeznnrHQe_zY-31" edge="1">
          <mxGeometry width="50" height="50" relative="1" as="geometry">
            <mxPoint x="640" y="920" as="sourcePoint" />
            <mxPoint x="690" y="870" as="targetPoint" />
            <Array as="points">
              <mxPoint x="870" y="920" />
            </Array>
          </mxGeometry>
        </mxCell>
        <mxCell id="KPvRqQYWDeznnrHQe_zY-52" value="&lt;br&gt;" style="edgeLabel;html=1;align=center;verticalAlign=middle;resizable=0;points=[];fontColor=#5C5C5C;" parent="KPvRqQYWDeznnrHQe_zY-51" vertex="1" connectable="0">
          <mxGeometry x="-0.8491" y="-1" relative="1" as="geometry">
            <mxPoint as="offset" />
          </mxGeometry>
        </mxCell>
        <mxCell id="KPvRqQYWDeznnrHQe_zY-53" value="&lt;br&gt;" style="edgeLabel;html=1;align=center;verticalAlign=middle;resizable=0;points=[];fontColor=#5C5C5C;" parent="KPvRqQYWDeznnrHQe_zY-51" vertex="1" connectable="0">
          <mxGeometry x="-0.9057" y="-2" relative="1" as="geometry">
            <mxPoint as="offset" />
          </mxGeometry>
        </mxCell>
        <mxCell id="KPvRqQYWDeznnrHQe_zY-80" value="projects 项目表" style="swimlane;html=1;fontStyle=1;align=center;verticalAlign=top;childLayout=stackLayout;horizontal=1;startSize=26;horizontalStack=0;resizeParent=1;resizeLast=0;collapsible=1;marginBottom=0;swimlaneFillColor=#ffffff;rounded=0;shadow=0;comic=0;labelBackgroundColor=none;strokeWidth=1;fillColor=none;fontFamily=Verdana;fontSize=12;strokeColor=#006658;fontColor=#5C5C5C;" parent="1" vertex="1">
          <mxGeometry x="40" y="1070" width="230" height="220" as="geometry">
            <mxRectangle x="50" y="130" width="70" height="26" as="alternateBounds" />
          </mxGeometry>
        </mxCell>
        <mxCell id="KPvRqQYWDeznnrHQe_zY-81" value="id&lt;br&gt;" style="text;html=1;strokeColor=none;fillColor=none;align=left;verticalAlign=top;spacingLeft=4;spacingRight=4;whiteSpace=wrap;overflow=hidden;rotatable=0;points=[[0,0.5],[1,0.5]];portConstraint=eastwest;fontColor=#5C5C5C;" parent="KPvRqQYWDeznnrHQe_zY-80" vertex="1">
          <mxGeometry y="26" width="230" height="26" as="geometry" />
        </mxCell>
        <mxCell id="KPvRqQYWDeznnrHQe_zY-82" value="leaderUid int 负责人id" style="text;html=1;strokeColor=none;fillColor=none;align=left;verticalAlign=top;spacingLeft=4;spacingRight=4;whiteSpace=wrap;overflow=hidden;rotatable=0;points=[[0,0.5],[1,0.5]];portConstraint=eastwest;fontColor=#5C5C5C;" parent="KPvRqQYWDeznnrHQe_zY-80" vertex="1">
          <mxGeometry y="52" width="230" height="26" as="geometry" />
        </mxCell>
        <mxCell id="KPvRqQYWDeznnrHQe_zY-88" value="city string 城市" style="text;html=1;strokeColor=none;fillColor=none;align=left;verticalAlign=top;spacingLeft=4;spacingRight=4;whiteSpace=wrap;overflow=hidden;rotatable=0;points=[[0,0.5],[1,0.5]];portConstraint=eastwest;fontColor=#5C5C5C;" parent="KPvRqQYWDeznnrHQe_zY-80" vertex="1">
          <mxGeometry y="78" width="230" height="26" as="geometry" />
        </mxCell>
        <mxCell id="KPvRqQYWDeznnrHQe_zY-89" value="address string 地址" style="text;html=1;strokeColor=none;fillColor=none;align=left;verticalAlign=top;spacingLeft=4;spacingRight=4;whiteSpace=wrap;overflow=hidden;rotatable=0;points=[[0,0.5],[1,0.5]];portConstraint=eastwest;fontColor=#5C5C5C;" parent="KPvRqQYWDeznnrHQe_zY-80" vertex="1">
          <mxGeometry y="104" width="230" height="26" as="geometry" />
        </mxCell>
        <mxCell id="KPvRqQYWDeznnrHQe_zY-92" value="startedAt time 开始时间" style="text;html=1;strokeColor=none;fillColor=none;align=left;verticalAlign=top;spacingLeft=4;spacingRight=4;whiteSpace=wrap;overflow=hidden;rotatable=0;points=[[0,0.5],[1,0.5]];portConstraint=eastwest;fontColor=#5C5C5C;" parent="KPvRqQYWDeznnrHQe_zY-80" vertex="1">
          <mxGeometry y="130" width="230" height="26" as="geometry" />
        </mxCell>
        <mxCell id="KPvRqQYWDeznnrHQe_zY-93" value="endedAt time 结束时间" style="text;html=1;strokeColor=none;fillColor=none;align=left;verticalAlign=top;spacingLeft=4;spacingRight=4;whiteSpace=wrap;overflow=hidden;rotatable=0;points=[[0,0.5],[1,0.5]];portConstraint=eastwest;fontColor=#5C5C5C;" parent="KPvRqQYWDeznnrHQe_zY-80" vertex="1">
          <mxGeometry y="156" width="230" height="26" as="geometry" />
        </mxCell>
        <mxCell id="KPvRqQYWDeznnrHQe_zY-94" value="remark string 备注" style="text;html=1;strokeColor=none;fillColor=none;align=left;verticalAlign=top;spacingLeft=4;spacingRight=4;whiteSpace=wrap;overflow=hidden;rotatable=0;points=[[0,0.5],[1,0.5]];portConstraint=eastwest;fontColor=#5C5C5C;" parent="KPvRqQYWDeznnrHQe_zY-80" vertex="1">
          <mxGeometry y="182" width="230" height="26" as="geometry" />
        </mxCell>
        <mxCell id="KPvRqQYWDeznnrHQe_zY-87" value="" style="edgeStyle=orthogonalEdgeStyle;elbow=horizontal;endArrow=classic;html=1;exitX=0;exitY=0.5;exitDx=0;exitDy=0;entryX=1;entryY=0.5;entryDx=0;entryDy=0;strokeColor=#006658;fontColor=#5C5C5C;" parent="1" source="KPvRqQYWDeznnrHQe_zY-82" target="78961159f06e98e8-21" edge="1">
          <mxGeometry width="50" height="50" relative="1" as="geometry">
            <mxPoint x="640" y="1000" as="sourcePoint" />
            <mxPoint x="690" y="950" as="targetPoint" />
            <Array as="points">
              <mxPoint x="30" y="1135" />
              <mxPoint x="30" y="780" />
              <mxPoint x="230" y="780" />
              <mxPoint x="230" y="159" />
            </Array>
          </mxGeometry>
        </mxCell>
        <mxCell id="KPvRqQYWDeznnrHQe_zY-95" value="project_records 项目详情表" style="swimlane;html=1;fontStyle=1;align=center;verticalAlign=top;childLayout=stackLayout;horizontal=1;startSize=26;horizontalStack=0;resizeParent=1;resizeLast=0;collapsible=1;marginBottom=0;swimlaneFillColor=#ffffff;rounded=0;shadow=0;comic=0;labelBackgroundColor=none;strokeWidth=1;fillColor=none;fontFamily=Verdana;fontSize=12;strokeColor=#006658;fontColor=#5C5C5C;" parent="1" vertex="1">
          <mxGeometry x="390" y="1220" width="230" height="300" as="geometry">
            <mxRectangle x="50" y="130" width="70" height="26" as="alternateBounds" />
          </mxGeometry>
        </mxCell>
        <mxCell id="KPvRqQYWDeznnrHQe_zY-96" value="id&lt;br&gt;" style="text;html=1;strokeColor=none;fillColor=none;align=left;verticalAlign=top;spacingLeft=4;spacingRight=4;whiteSpace=wrap;overflow=hidden;rotatable=0;points=[[0,0.5],[1,0.5]];portConstraint=eastwest;fontColor=#5C5C5C;" parent="KPvRqQYWDeznnrHQe_zY-95" vertex="1">
          <mxGeometry y="26" width="230" height="26" as="geometry" />
        </mxCell>
        <mxCell id="KPvRqQYWDeznnrHQe_zY-103" value="project_id int 项目id" style="text;html=1;strokeColor=none;fillColor=none;align=left;verticalAlign=top;spacingLeft=4;spacingRight=4;whiteSpace=wrap;overflow=hidden;rotatable=0;points=[[0,0.5],[1,0.5]];portConstraint=eastwest;fontColor=#5C5C5C;" parent="KPvRqQYWDeznnrHQe_zY-95" vertex="1">
          <mxGeometry y="52" width="230" height="26" as="geometry" />
        </mxCell>
        <mxCell id="KPvRqQYWDeznnrHQe_zY-158" value="order_detail_id 订单详情id&lt;br&gt;" style="text;html=1;strokeColor=none;fillColor=none;align=left;verticalAlign=top;spacingLeft=4;spacingRight=4;whiteSpace=wrap;overflow=hidden;rotatable=0;points=[[0,0.5],[1,0.5]];portConstraint=eastwest;fontColor=#5C5C5C;" parent="KPvRqQYWDeznnrHQe_zY-95" vertex="1">
          <mxGeometry y="78" width="230" height="26" as="geometry" />
        </mxCell>
        <mxCell id="KPvRqQYWDeznnrHQe_zY-160" value="steel_id int 型钢id" style="text;html=1;strokeColor=none;fillColor=none;align=left;verticalAlign=top;spacingLeft=4;spacingRight=4;whiteSpace=wrap;overflow=hidden;rotatable=0;points=[[0,0.5],[1,0.5]];portConstraint=eastwest;fontColor=#5C5C5C;" parent="KPvRqQYWDeznnrHQe_zY-95" vertex="1">
          <mxGeometry y="104" width="230" height="26" as="geometry" />
        </mxCell>
        <mxCell id="KPvRqQYWDeznnrHQe_zY-161" value="out_repository_at time 出库时间" style="text;html=1;strokeColor=none;fillColor=none;align=left;verticalAlign=top;spacingLeft=4;spacingRight=4;whiteSpace=wrap;overflow=hidden;rotatable=0;points=[[0,0.5],[1,0.5]];portConstraint=eastwest;fontColor=#5C5C5C;" parent="KPvRqQYWDeznnrHQe_zY-95" vertex="1">
          <mxGeometry y="130" width="230" height="26" as="geometry" />
        </mxCell>
        <mxCell id="KPvRqQYWDeznnrHQe_zY-162" value="return_repository_at time 入库时间" style="text;html=1;strokeColor=none;fillColor=none;align=left;verticalAlign=top;spacingLeft=4;spacingRight=4;whiteSpace=wrap;overflow=hidden;rotatable=0;points=[[0,0.5],[1,0.5]];portConstraint=eastwest;fontColor=#5C5C5C;" parent="KPvRqQYWDeznnrHQe_zY-95" vertex="1">
          <mxGeometry y="156" width="230" height="26" as="geometry" />
        </mxCell>
        <mxCell id="KPvRqQYWDeznnrHQe_zY-164" value="return_site_at time 入场时间" style="text;html=1;strokeColor=none;fillColor=none;align=left;verticalAlign=top;spacingLeft=4;spacingRight=4;whiteSpace=wrap;overflow=hidden;rotatable=0;points=[[0,0.5],[1,0.5]];portConstraint=eastwest;fontColor=#5C5C5C;" parent="KPvRqQYWDeznnrHQe_zY-95" vertex="1">
          <mxGeometry y="182" width="230" height="26" as="geometry" />
        </mxCell>
        <mxCell id="KPvRqQYWDeznnrHQe_zY-171" value="out_site_at time 出场时间" style="text;html=1;strokeColor=none;fillColor=none;align=left;verticalAlign=top;spacingLeft=4;spacingRight=4;whiteSpace=wrap;overflow=hidden;rotatable=0;points=[[0,0.5],[1,0.5]];portConstraint=eastwest;fontColor=#5C5C5C;" parent="KPvRqQYWDeznnrHQe_zY-95" vertex="1">
          <mxGeometry y="208" width="230" height="26" as="geometry" />
        </mxCell>
        <mxCell id="KPvRqQYWDeznnrHQe_zY-166" value="install_no int 安装编码" style="text;html=1;strokeColor=none;fillColor=none;align=left;verticalAlign=top;spacingLeft=4;spacingRight=4;whiteSpace=wrap;overflow=hidden;rotatable=0;points=[[0,0.5],[1,0.5]];portConstraint=eastwest;fontColor=#5C5C5C;" parent="KPvRqQYWDeznnrHQe_zY-95" vertex="1">
          <mxGeometry y="234" width="230" height="26" as="geometry" />
        </mxCell>
        <mxCell id="KPvRqQYWDeznnrHQe_zY-172" value="installed_at time 安装时间" style="text;html=1;strokeColor=none;fillColor=none;align=left;verticalAlign=top;spacingLeft=4;spacingRight=4;whiteSpace=wrap;overflow=hidden;rotatable=0;points=[[0,0.5],[1,0.5]];portConstraint=eastwest;fontColor=#5C5C5C;" parent="KPvRqQYWDeznnrHQe_zY-95" vertex="1">
          <mxGeometry y="260" width="230" height="26" as="geometry" />
        </mxCell>
        <mxCell id="KPvRqQYWDeznnrHQe_zY-105" value="orders 订单表" style="swimlane;html=1;fontStyle=1;align=center;verticalAlign=top;childLayout=stackLayout;horizontal=1;startSize=26;horizontalStack=0;resizeParent=1;resizeLast=0;collapsible=1;marginBottom=0;swimlaneFillColor=#ffffff;rounded=0;shadow=0;comic=0;labelBackgroundColor=none;strokeWidth=1;fillColor=none;fontFamily=Verdana;fontSize=12;strokeColor=#006658;fontColor=#5C5C5C;" parent="1" vertex="1">
          <mxGeometry x="770" y="1155" width="240" height="470" as="geometry">
            <mxRectangle x="50" y="130" width="70" height="26" as="alternateBounds" />
          </mxGeometry>
        </mxCell>
        <mxCell id="KPvRqQYWDeznnrHQe_zY-106" value="id&lt;br&gt;" style="text;html=1;strokeColor=none;fillColor=none;align=left;verticalAlign=top;spacingLeft=4;spacingRight=4;whiteSpace=wrap;overflow=hidden;rotatable=0;points=[[0,0.5],[1,0.5]];portConstraint=eastwest;fontColor=#5C5C5C;" parent="KPvRqQYWDeznnrHQe_zY-105" vertex="1">
          <mxGeometry y="26" width="240" height="26" as="geometry" />
        </mxCell>
        <mxCell id="KPvRqQYWDeznnrHQe_zY-110" value="project_id int 项目id" style="text;html=1;strokeColor=none;fillColor=none;align=left;verticalAlign=top;spacingLeft=4;spacingRight=4;whiteSpace=wrap;overflow=hidden;rotatable=0;points=[[0,0.5],[1,0.5]];portConstraint=eastwest;fontColor=#5C5C5C;" parent="KPvRqQYWDeznnrHQe_zY-105" vertex="1">
          <mxGeometry y="52" width="240" height="26" as="geometry" />
        </mxCell>
        <mxCell id="KPvRqQYWDeznnrHQe_zY-112" value="state int&amp;nbsp; 仓库状态100 待确认200已确认300已拒绝400已发货" style="text;html=1;strokeColor=none;fillColor=none;align=left;verticalAlign=top;spacingLeft=4;spacingRight=4;whiteSpace=wrap;overflow=hidden;rotatable=0;points=[[0,0.5],[1,0.5]];portConstraint=eastwest;fontColor=#5C5C5C;" parent="KPvRqQYWDeznnrHQe_zY-105" vertex="1">
          <mxGeometry y="78" width="240" height="42" as="geometry" />
        </mxCell>
        <mxCell id="KPvRqQYWDeznnrHQe_zY-117" value="receive_state&amp;nbsp; int&amp;nbsp; 场地状态 100待收货200已收货(部分)210已收货全部300已归库" style="text;html=1;strokeColor=none;fillColor=none;align=left;verticalAlign=top;spacingLeft=4;spacingRight=4;whiteSpace=wrap;overflow=hidden;rotatable=0;points=[[0,0.5],[1,0.5]];portConstraint=eastwest;fontColor=#5C5C5C;" parent="KPvRqQYWDeznnrHQe_zY-105" vertex="1">
          <mxGeometry y="120" width="240" height="42" as="geometry" />
        </mxCell>
        <mxCell id="KPvRqQYWDeznnrHQe_zY-118" value="expected_return_at time 预计归还时间" style="text;html=1;strokeColor=none;fillColor=none;align=left;verticalAlign=top;spacingLeft=4;spacingRight=4;whiteSpace=wrap;overflow=hidden;rotatable=0;points=[[0,0.5],[1,0.5]];portConstraint=eastwest;fontColor=#5C5C5C;" parent="KPvRqQYWDeznnrHQe_zY-105" vertex="1">
          <mxGeometry y="162" width="240" height="28" as="geometry" />
        </mxCell>
        <mxCell id="KPvRqQYWDeznnrHQe_zY-120" value="part_list string 清单列表" style="text;html=1;strokeColor=none;fillColor=none;align=left;verticalAlign=top;spacingLeft=4;spacingRight=4;whiteSpace=wrap;overflow=hidden;rotatable=0;points=[[0,0.5],[1,0.5]];portConstraint=eastwest;fontColor=#5C5C5C;" parent="KPvRqQYWDeznnrHQe_zY-105" vertex="1">
          <mxGeometry y="190" width="240" height="28" as="geometry" />
        </mxCell>
        <mxCell id="KPvRqQYWDeznnrHQe_zY-121" value="create_uid int 创建人id" style="text;html=1;strokeColor=none;fillColor=none;align=left;verticalAlign=top;spacingLeft=4;spacingRight=4;whiteSpace=wrap;overflow=hidden;rotatable=0;points=[[0,0.5],[1,0.5]];portConstraint=eastwest;fontColor=#5C5C5C;" parent="KPvRqQYWDeznnrHQe_zY-105" vertex="1">
          <mxGeometry y="218" width="240" height="28" as="geometry" />
        </mxCell>
        <mxCell id="KPvRqQYWDeznnrHQe_zY-122" value="confirm_uid&amp;nbsp; int 确认人 id" style="text;html=1;strokeColor=none;fillColor=none;align=left;verticalAlign=top;spacingLeft=4;spacingRight=4;whiteSpace=wrap;overflow=hidden;rotatable=0;points=[[0,0.5],[1,0.5]];portConstraint=eastwest;fontColor=#5C5C5C;" parent="KPvRqQYWDeznnrHQe_zY-105" vertex="1">
          <mxGeometry y="246" width="240" height="28" as="geometry" />
        </mxCell>
        <mxCell id="KPvRqQYWDeznnrHQe_zY-123" value="sender_uid&amp;nbsp; int 发货人 id" style="text;html=1;strokeColor=none;fillColor=none;align=left;verticalAlign=top;spacingLeft=4;spacingRight=4;whiteSpace=wrap;overflow=hidden;rotatable=0;points=[[0,0.5],[1,0.5]];portConstraint=eastwest;fontColor=#5C5C5C;" parent="KPvRqQYWDeznnrHQe_zY-105" vertex="1">
          <mxGeometry y="274" width="240" height="28" as="geometry" />
        </mxCell>
        <mxCell id="KPvRqQYWDeznnrHQe_zY-124" value="confirmed_at&amp;nbsp; time 确认时间" style="text;html=1;strokeColor=none;fillColor=none;align=left;verticalAlign=top;spacingLeft=4;spacingRight=4;whiteSpace=wrap;overflow=hidden;rotatable=0;points=[[0,0.5],[1,0.5]];portConstraint=eastwest;fontColor=#5C5C5C;" parent="KPvRqQYWDeznnrHQe_zY-105" vertex="1">
          <mxGeometry y="302" width="240" height="28" as="geometry" />
        </mxCell>
        <mxCell id="KPvRqQYWDeznnrHQe_zY-125" value="reciver_uid int 收货人id" style="text;html=1;strokeColor=none;fillColor=none;align=left;verticalAlign=top;spacingLeft=4;spacingRight=4;whiteSpace=wrap;overflow=hidden;rotatable=0;points=[[0,0.5],[1,0.5]];portConstraint=eastwest;fontColor=#5C5C5C;" parent="KPvRqQYWDeznnrHQe_zY-105" vertex="1">
          <mxGeometry y="330" width="240" height="28" as="geometry" />
        </mxCell>
        <mxCell id="KPvRqQYWDeznnrHQe_zY-126" value="recive_at time 收货时间" style="text;html=1;strokeColor=none;fillColor=none;align=left;verticalAlign=top;spacingLeft=4;spacingRight=4;whiteSpace=wrap;overflow=hidden;rotatable=0;points=[[0,0.5],[1,0.5]];portConstraint=eastwest;fontColor=#5C5C5C;" parent="KPvRqQYWDeznnrHQe_zY-105" vertex="1">
          <mxGeometry y="358" width="240" height="28" as="geometry" />
        </mxCell>
        <mxCell id="KPvRqQYWDeznnrHQe_zY-129" value="express_company_id int 码表的运输公司id" style="text;html=1;strokeColor=none;fillColor=none;align=left;verticalAlign=top;spacingLeft=4;spacingRight=4;whiteSpace=wrap;overflow=hidden;rotatable=0;points=[[0,0.5],[1,0.5]];portConstraint=eastwest;fontColor=#5C5C5C;" parent="KPvRqQYWDeznnrHQe_zY-105" vertex="1">
          <mxGeometry y="386" width="240" height="28" as="geometry" />
        </mxCell>
        <mxCell id="KPvRqQYWDeznnrHQe_zY-128" value="express_no string&amp;nbsp; 物流号" style="text;html=1;strokeColor=none;fillColor=none;align=left;verticalAlign=top;spacingLeft=4;spacingRight=4;whiteSpace=wrap;overflow=hidden;rotatable=0;points=[[0,0.5],[1,0.5]];portConstraint=eastwest;fontColor=#5C5C5C;" parent="KPvRqQYWDeznnrHQe_zY-105" vertex="1">
          <mxGeometry y="414" width="240" height="28" as="geometry" />
        </mxCell>
        <mxCell id="KPvRqQYWDeznnrHQe_zY-130" value="remark string 备注" style="text;html=1;strokeColor=none;fillColor=none;align=left;verticalAlign=top;spacingLeft=4;spacingRight=4;whiteSpace=wrap;overflow=hidden;rotatable=0;points=[[0,0.5],[1,0.5]];portConstraint=eastwest;fontColor=#5C5C5C;" parent="KPvRqQYWDeznnrHQe_zY-105" vertex="1">
          <mxGeometry y="442" width="240" height="28" as="geometry" />
        </mxCell>
        <mxCell id="KPvRqQYWDeznnrHQe_zY-108" value="" style="edgeStyle=elbowEdgeStyle;elbow=horizontal;endArrow=classic;html=1;entryX=1;entryY=0.5;entryDx=0;entryDy=0;strokeColor=#006658;fontColor=#5C5C5C;" parent="1" target="KPvRqQYWDeznnrHQe_zY-81" edge="1">
          <mxGeometry width="50" height="50" relative="1" as="geometry">
            <mxPoint x="390" y="1260" as="sourcePoint" />
            <mxPoint x="690" y="1260" as="targetPoint" />
          </mxGeometry>
        </mxCell>
        <mxCell id="KPvRqQYWDeznnrHQe_zY-111" value="" style="edgeStyle=orthogonalEdgeStyle;elbow=horizontal;endArrow=classic;html=1;exitX=0;exitY=0.5;exitDx=0;exitDy=0;entryX=1;entryY=0.5;entryDx=0;entryDy=0;strokeColor=#006658;fontColor=#5C5C5C;" parent="1" source="KPvRqQYWDeznnrHQe_zY-110" target="KPvRqQYWDeznnrHQe_zY-81" edge="1">
          <mxGeometry width="50" height="50" relative="1" as="geometry">
            <mxPoint x="640" y="1310" as="sourcePoint" />
            <mxPoint x="690" y="1260" as="targetPoint" />
          </mxGeometry>
        </mxCell>
        <mxCell id="KPvRqQYWDeznnrHQe_zY-113" value="" style="edgeStyle=orthogonalEdgeStyle;elbow=horizontal;endArrow=classic;html=1;exitX=1;exitY=0.5;exitDx=0;exitDy=0;entryX=0.996;entryY=0.154;entryDx=0;entryDy=0;entryPerimeter=0;strokeColor=#006658;fontColor=#5C5C5C;" parent="1" source="KPvRqQYWDeznnrHQe_zY-112" target="qr2XOrhrK6a8kLRLHa2o-2" edge="1">
          <mxGeometry width="50" height="50" relative="1" as="geometry">
            <mxPoint x="640" y="1290" as="sourcePoint" />
            <mxPoint x="690" y="1240" as="targetPoint" />
          </mxGeometry>
        </mxCell>
        <mxCell id="KPvRqQYWDeznnrHQe_zY-131" value="" style="edgeStyle=orthogonalEdgeStyle;elbow=horizontal;endArrow=classic;html=1;exitX=0;exitY=0.5;exitDx=0;exitDy=0;entryX=1;entryY=0.5;entryDx=0;entryDy=0;strokeColor=#006658;fontColor=#5C5C5C;" parent="1" source="KPvRqQYWDeznnrHQe_zY-121" target="78961159f06e98e8-21" edge="1">
          <mxGeometry width="50" height="50" relative="1" as="geometry">
            <mxPoint x="1000" y="1290" as="sourcePoint" />
            <mxPoint x="1050" y="1240" as="targetPoint" />
            <Array as="points">
              <mxPoint x="370" y="1387" />
              <mxPoint x="370" y="159" />
            </Array>
          </mxGeometry>
        </mxCell>
        <mxCell id="KPvRqQYWDeznnrHQe_zY-132" value="" style="edgeStyle=elbowEdgeStyle;elbow=horizontal;endArrow=classic;html=1;exitX=0;exitY=0.5;exitDx=0;exitDy=0;entryX=1;entryY=0.5;entryDx=0;entryDy=0;strokeColor=#006658;fontColor=#5C5C5C;" parent="1" source="KPvRqQYWDeznnrHQe_zY-122" target="78961159f06e98e8-21" edge="1">
          <mxGeometry width="50" height="50" relative="1" as="geometry">
            <mxPoint x="880" y="1410" as="sourcePoint" />
            <mxPoint x="930" y="1360" as="targetPoint" />
            <Array as="points">
              <mxPoint x="520" y="1480" />
              <mxPoint x="330" y="1330" />
              <mxPoint x="360" y="1550" />
              <mxPoint x="350" y="1210" />
            </Array>
          </mxGeometry>
        </mxCell>
        <mxCell id="KPvRqQYWDeznnrHQe_zY-173" value="Text" style="edgeLabel;html=1;align=center;verticalAlign=middle;resizable=0;points=[];fontColor=#5C5C5C;" parent="KPvRqQYWDeznnrHQe_zY-132" vertex="1" connectable="0">
          <mxGeometry x="-0.5831" y="-5" relative="1" as="geometry">
            <mxPoint as="offset" />
          </mxGeometry>
        </mxCell>
        <mxCell id="KPvRqQYWDeznnrHQe_zY-174" value="Text" style="edgeLabel;html=1;align=center;verticalAlign=middle;resizable=0;points=[];fontColor=#5C5C5C;" parent="KPvRqQYWDeznnrHQe_zY-132" vertex="1" connectable="0">
          <mxGeometry x="-0.611" y="4" relative="1" as="geometry">
            <mxPoint as="offset" />
          </mxGeometry>
        </mxCell>
        <mxCell id="KPvRqQYWDeznnrHQe_zY-133" value="" style="edgeStyle=elbowEdgeStyle;elbow=horizontal;endArrow=classic;html=1;exitX=0;exitY=0.5;exitDx=0;exitDy=0;strokeColor=#006658;fontColor=#5C5C5C;startArrow=none;" parent="1" source="KPvRqQYWDeznnrHQe_zY-166" edge="1">
          <mxGeometry width="50" height="50" relative="1" as="geometry">
            <mxPoint x="470" y="1290" as="sourcePoint" />
            <mxPoint x="220" y="157.24137931034483" as="targetPoint" />
            <Array as="points" />
          </mxGeometry>
        </mxCell>
        <mxCell id="KPvRqQYWDeznnrHQe_zY-134" value="" style="edgeStyle=elbowEdgeStyle;elbow=horizontal;endArrow=classic;html=1;entryX=1;entryY=0.5;entryDx=0;entryDy=0;strokeColor=#006658;fontColor=#5C5C5C;" parent="1" source="KPvRqQYWDeznnrHQe_zY-125" target="78961159f06e98e8-21" edge="1">
          <mxGeometry width="50" height="50" relative="1" as="geometry">
            <mxPoint x="470" y="1540" as="sourcePoint" />
            <mxPoint x="520" y="1490" as="targetPoint" />
            <Array as="points">
              <mxPoint x="380" y="1210" />
            </Array>
          </mxGeometry>
        </mxCell>
        <mxCell id="KPvRqQYWDeznnrHQe_zY-135" value="" style="edgeStyle=elbowEdgeStyle;elbow=vertical;endArrow=classic;html=1;exitX=0;exitY=0.5;exitDx=0;exitDy=0;entryX=1.006;entryY=0.351;entryDx=0;entryDy=0;entryPerimeter=0;strokeColor=#006658;fontColor=#5C5C5C;" parent="1" source="KPvRqQYWDeznnrHQe_zY-129" target="KPvRqQYWDeznnrHQe_zY-31" edge="1">
          <mxGeometry width="50" height="50" relative="1" as="geometry">
            <mxPoint x="470" y="1480" as="sourcePoint" />
            <mxPoint x="700" y="1013.1034482758621" as="targetPoint" />
            <Array as="points">
              <mxPoint x="650" y="1550" />
            </Array>
          </mxGeometry>
        </mxCell>
        <mxCell id="KPvRqQYWDeznnrHQe_zY-136" value="order_specification 订单规格表" style="swimlane;html=1;fontStyle=1;align=center;verticalAlign=top;childLayout=stackLayout;horizontal=1;startSize=26;horizontalStack=0;resizeParent=1;resizeLast=0;collapsible=1;marginBottom=0;swimlaneFillColor=#ffffff;rounded=0;shadow=0;comic=0;labelBackgroundColor=none;strokeWidth=1;fillColor=none;fontFamily=Verdana;fontSize=12;strokeColor=#006658;fontColor=#5C5C5C;" parent="1" vertex="1">
          <mxGeometry x="1310" y="1170" width="240" height="165" as="geometry">
            <mxRectangle x="50" y="130" width="70" height="26" as="alternateBounds" />
          </mxGeometry>
        </mxCell>
        <mxCell id="KPvRqQYWDeznnrHQe_zY-137" value="id&lt;br&gt;" style="text;html=1;strokeColor=none;fillColor=none;align=left;verticalAlign=top;spacingLeft=4;spacingRight=4;whiteSpace=wrap;overflow=hidden;rotatable=0;points=[[0,0.5],[1,0.5]];portConstraint=eastwest;fontColor=#5C5C5C;" parent="KPvRqQYWDeznnrHQe_zY-136" vertex="1">
          <mxGeometry y="26" width="240" height="26" as="geometry" />
        </mxCell>
        <mxCell id="KPvRqQYWDeznnrHQe_zY-152" value="specificationinfo_id int 规格id" style="text;html=1;strokeColor=none;fillColor=none;align=left;verticalAlign=top;spacingLeft=4;spacingRight=4;whiteSpace=wrap;overflow=hidden;rotatable=0;points=[[0,0.5],[1,0.5]];portConstraint=eastwest;fontColor=#5C5C5C;" parent="KPvRqQYWDeznnrHQe_zY-136" vertex="1">
          <mxGeometry y="52" width="240" height="26" as="geometry" />
        </mxCell>
        <mxCell id="KPvRqQYWDeznnrHQe_zY-154" value="total int 需求量" style="text;html=1;strokeColor=none;fillColor=none;align=left;verticalAlign=top;spacingLeft=4;spacingRight=4;whiteSpace=wrap;overflow=hidden;rotatable=0;points=[[0,0.5],[1,0.5]];portConstraint=eastwest;fontColor=#5C5C5C;" parent="KPvRqQYWDeznnrHQe_zY-136" vertex="1">
          <mxGeometry y="78" width="240" height="26" as="geometry" />
        </mxCell>
        <mxCell id="KPvRqQYWDeznnrHQe_zY-153" value="" style="edgeStyle=orthogonalEdgeStyle;endArrow=classic;html=1;exitX=0;exitY=0.5;exitDx=0;exitDy=0;entryX=1;entryY=0.5;entryDx=0;entryDy=0;strokeColor=#006658;fontColor=#5C5C5C;" parent="1" source="KPvRqQYWDeznnrHQe_zY-152" target="KPvRqQYWDeznnrHQe_zY-9" edge="1">
          <mxGeometry width="50" height="50" relative="1" as="geometry">
            <mxPoint x="770" y="1180" as="sourcePoint" />
            <mxPoint x="820" y="1130" as="targetPoint" />
          </mxGeometry>
        </mxCell>
        <mxCell id="KPvRqQYWDeznnrHQe_zY-156" value="" style="edgeStyle=elbowEdgeStyle;elbow=vertical;endArrow=classic;html=1;exitX=0;exitY=0.5;exitDx=0;exitDy=0;entryX=1;entryY=0.5;entryDx=0;entryDy=0;strokeColor=#006658;fontColor=#5C5C5C;" parent="1" target="KPvRqQYWDeznnrHQe_zY-106" edge="1">
          <mxGeometry width="50" height="50" relative="1" as="geometry">
            <mxPoint x="1050" y="1275" as="sourcePoint" />
            <mxPoint x="820" y="1180" as="targetPoint" />
          </mxGeometry>
        </mxCell>
        <mxCell id="KPvRqQYWDeznnrHQe_zY-159" value="" style="edgeStyle=orthogonalEdgeStyle;elbow=vertical;endArrow=classic;html=1;fontColor=#5C5C5C;strokeColor=#006658;fillColor=#21C0A5;exitX=1;exitY=0.5;exitDx=0;exitDy=0;" parent="1" source="KPvRqQYWDeznnrHQe_zY-158" edge="1">
          <mxGeometry width="50" height="50" relative="1" as="geometry">
            <mxPoint x="570" y="1270" as="sourcePoint" />
            <mxPoint x="1050" y="1200" as="targetPoint" />
          </mxGeometry>
        </mxCell>
        <mxCell id="KPvRqQYWDeznnrHQe_zY-167" value="" style="edgeStyle=elbowEdgeStyle;elbow=horizontal;endArrow=none;html=1;exitX=0;exitY=0.5;exitDx=0;exitDy=0;strokeColor=#006658;fontColor=#5C5C5C;" parent="1" source="KPvRqQYWDeznnrHQe_zY-123" target="KPvRqQYWDeznnrHQe_zY-166" edge="1">
          <mxGeometry width="50" height="50" relative="1" as="geometry">
            <mxPoint x="770" y="1443.0000000000002" as="sourcePoint" />
            <mxPoint x="220" y="157.24137931034488" as="targetPoint" />
            <Array as="points">
              <mxPoint x="380" y="1540" />
              <mxPoint x="340" y="1240" />
            </Array>
          </mxGeometry>
        </mxCell>
        <mxCell id="KPvRqQYWDeznnrHQe_zY-175" value="fix 维修厂" style="swimlane;html=1;fontStyle=1;align=center;verticalAlign=top;childLayout=stackLayout;horizontal=1;startSize=26;horizontalStack=0;resizeParent=1;resizeLast=0;collapsible=1;marginBottom=0;swimlaneFillColor=#ffffff;rounded=0;shadow=0;comic=0;labelBackgroundColor=none;strokeWidth=1;fillColor=none;fontFamily=Verdana;fontSize=12;strokeColor=#006658;fontColor=#5C5C5C;" parent="1" vertex="1">
          <mxGeometry x="1050" y="1355" width="240" height="215" as="geometry">
            <mxRectangle x="50" y="130" width="70" height="26" as="alternateBounds" />
          </mxGeometry>
        </mxCell>
        <mxCell id="KPvRqQYWDeznnrHQe_zY-176" value="id&lt;br&gt;" style="text;html=1;strokeColor=none;fillColor=none;align=left;verticalAlign=top;spacingLeft=4;spacingRight=4;whiteSpace=wrap;overflow=hidden;rotatable=0;points=[[0,0.5],[1,0.5]];portConstraint=eastwest;fontColor=#5C5C5C;" parent="KPvRqQYWDeznnrHQe_zY-175" vertex="1">
          <mxGeometry y="26" width="240" height="26" as="geometry" />
        </mxCell>
        <mxCell id="KPvRqQYWDeznnrHQe_zY-177" value="name&amp;nbsp; string 维修地点名" style="text;html=1;strokeColor=none;fillColor=none;align=left;verticalAlign=top;spacingLeft=4;spacingRight=4;whiteSpace=wrap;overflow=hidden;rotatable=0;points=[[0,0.5],[1,0.5]];portConstraint=eastwest;fontColor=#5C5C5C;" parent="KPvRqQYWDeznnrHQe_zY-175" vertex="1">
          <mxGeometry y="52" width="240" height="26" as="geometry" />
        </mxCell>
        <mxCell id="KPvRqQYWDeznnrHQe_zY-178" value="address string 地址" style="text;html=1;strokeColor=none;fillColor=none;align=left;verticalAlign=top;spacingLeft=4;spacingRight=4;whiteSpace=wrap;overflow=hidden;rotatable=0;points=[[0,0.5],[1,0.5]];portConstraint=eastwest;fontColor=#5C5C5C;" parent="KPvRqQYWDeznnrHQe_zY-175" vertex="1">
          <mxGeometry y="78" width="240" height="26" as="geometry" />
        </mxCell>
        <mxCell id="KPvRqQYWDeznnrHQe_zY-179" value="leader_id int&amp;nbsp; 管理员id&amp;nbsp;" style="text;html=1;strokeColor=none;fillColor=none;align=left;verticalAlign=top;spacingLeft=4;spacingRight=4;whiteSpace=wrap;overflow=hidden;rotatable=0;points=[[0,0.5],[1,0.5]];portConstraint=eastwest;fontColor=#5C5C5C;" parent="KPvRqQYWDeznnrHQe_zY-175" vertex="1">
          <mxGeometry y="104" width="240" height="26" as="geometry" />
        </mxCell>
        <mxCell id="KPvRqQYWDeznnrHQe_zY-180" value="remark string 备注" style="text;html=1;strokeColor=none;fillColor=none;align=left;verticalAlign=top;spacingLeft=4;spacingRight=4;whiteSpace=wrap;overflow=hidden;rotatable=0;points=[[0,0.5],[1,0.5]];portConstraint=eastwest;fontColor=#5C5C5C;" parent="KPvRqQYWDeznnrHQe_zY-175" vertex="1">
          <mxGeometry y="130" width="240" height="26" as="geometry" />
        </mxCell>
        <mxCell id="KPvRqQYWDeznnrHQe_zY-181" value="is_able bool 是否启用" style="text;html=1;strokeColor=none;fillColor=none;align=left;verticalAlign=top;spacingLeft=4;spacingRight=4;whiteSpace=wrap;overflow=hidden;rotatable=0;points=[[0,0.5],[1,0.5]];portConstraint=eastwest;fontColor=#5C5C5C;" parent="KPvRqQYWDeznnrHQe_zY-175" vertex="1">
          <mxGeometry y="156" width="240" height="26" as="geometry" />
        </mxCell>
        <mxCell id="KPvRqQYWDeznnrHQe_zY-182" value="company_id int 公司id" style="text;html=1;strokeColor=none;fillColor=none;align=left;verticalAlign=top;spacingLeft=4;spacingRight=4;whiteSpace=wrap;overflow=hidden;rotatable=0;points=[[0,0.5],[1,0.5]];portConstraint=eastwest;fontColor=#5C5C5C;" parent="1" vertex="1">
          <mxGeometry x="1050" y="1540" width="240" height="26" as="geometry" />
        </mxCell>
        <mxCell id="KPvRqQYWDeznnrHQe_zY-183" value="" style="edgeStyle=orthogonalEdgeStyle;elbow=vertical;endArrow=classic;html=1;fontColor=#5C5C5C;strokeColor=#006658;fillColor=#21C0A5;exitX=0;exitY=0.5;exitDx=0;exitDy=0;" parent="1" source="KPvRqQYWDeznnrHQe_zY-178" edge="1">
          <mxGeometry width="50" height="50" relative="1" as="geometry">
            <mxPoint x="540" y="1410" as="sourcePoint" />
            <mxPoint x="220" y="155.2941176470588" as="targetPoint" />
          </mxGeometry>
        </mxCell>
        <mxCell id="KPvRqQYWDeznnrHQe_zY-184" value="" style="edgeStyle=elbowEdgeStyle;elbow=vertical;endArrow=classic;html=1;fontColor=#5C5C5C;strokeColor=#006658;fillColor=#21C0A5;exitX=0;exitY=0.5;exitDx=0;exitDy=0;entryX=1;entryY=0.5;entryDx=0;entryDy=0;" parent="1" source="KPvRqQYWDeznnrHQe_zY-182" target="u5DTICknPSbGoJJpcP43-26" edge="1">
          <mxGeometry width="50" height="50" relative="1" as="geometry">
            <mxPoint x="540" y="1320" as="sourcePoint" />
            <mxPoint x="590" y="1270" as="targetPoint" />
          </mxGeometry>
        </mxCell>
        <mxCell id="KPvRqQYWDeznnrHQe_zY-185" value="fix_records 订单表" style="swimlane;html=1;fontStyle=1;align=center;verticalAlign=top;childLayout=stackLayout;horizontal=1;startSize=26;horizontalStack=0;resizeParent=1;resizeLast=0;collapsible=1;marginBottom=0;swimlaneFillColor=#ffffff;rounded=0;shadow=0;comic=0;labelBackgroundColor=none;strokeWidth=1;fillColor=none;fontFamily=Verdana;fontSize=12;strokeColor=#006658;fontColor=#5C5C5C;" parent="1" vertex="1">
          <mxGeometry x="1440" y="1390" width="240" height="180" as="geometry">
            <mxRectangle x="50" y="130" width="70" height="26" as="alternateBounds" />
          </mxGeometry>
        </mxCell>
        <mxCell id="KPvRqQYWDeznnrHQe_zY-186" value="id&lt;br&gt;" style="text;html=1;strokeColor=none;fillColor=none;align=left;verticalAlign=top;spacingLeft=4;spacingRight=4;whiteSpace=wrap;overflow=hidden;rotatable=0;points=[[0,0.5],[1,0.5]];portConstraint=eastwest;fontColor=#5C5C5C;" parent="KPvRqQYWDeznnrHQe_zY-185" vertex="1">
          <mxGeometry y="26" width="240" height="26" as="geometry" />
        </mxCell>
        <mxCell id="KPvRqQYWDeznnrHQe_zY-187" value="fix_id int 维修厂id" style="text;html=1;strokeColor=none;fillColor=none;align=left;verticalAlign=top;spacingLeft=4;spacingRight=4;whiteSpace=wrap;overflow=hidden;rotatable=0;points=[[0,0.5],[1,0.5]];portConstraint=eastwest;fontColor=#5C5C5C;" parent="KPvRqQYWDeznnrHQe_zY-185" vertex="1">
          <mxGeometry y="52" width="240" height="26" as="geometry" />
        </mxCell>
        <mxCell id="KPvRqQYWDeznnrHQe_zY-188" value="steel_id int 型钢id" style="text;html=1;strokeColor=none;fillColor=none;align=left;verticalAlign=top;spacingLeft=4;spacingRight=4;whiteSpace=wrap;overflow=hidden;rotatable=0;points=[[0,0.5],[1,0.5]];portConstraint=eastwest;fontColor=#5C5C5C;" parent="KPvRqQYWDeznnrHQe_zY-185" vertex="1">
          <mxGeometry y="78" width="240" height="26" as="geometry" />
        </mxCell>
        <mxCell id="KPvRqQYWDeznnrHQe_zY-189" value="out_at time 出厂时间" style="text;html=1;strokeColor=none;fillColor=none;align=left;verticalAlign=top;spacingLeft=4;spacingRight=4;whiteSpace=wrap;overflow=hidden;rotatable=0;points=[[0,0.5],[1,0.5]];portConstraint=eastwest;fontColor=#5C5C5C;" parent="KPvRqQYWDeznnrHQe_zY-185" vertex="1">
          <mxGeometry y="104" width="240" height="26" as="geometry" />
        </mxCell>
        <mxCell id="KPvRqQYWDeznnrHQe_zY-192" value="entered_at time 入厂时间" style="text;html=1;strokeColor=none;fillColor=none;align=left;verticalAlign=top;spacingLeft=4;spacingRight=4;whiteSpace=wrap;overflow=hidden;rotatable=0;points=[[0,0.5],[1,0.5]];portConstraint=eastwest;fontColor=#5C5C5C;" parent="KPvRqQYWDeznnrHQe_zY-185" vertex="1">
          <mxGeometry y="130" width="240" height="26" as="geometry" />
        </mxCell>
        <mxCell id="KPvRqQYWDeznnrHQe_zY-194" value="" style="edgeStyle=orthogonalEdgeStyle;elbow=vertical;endArrow=classic;html=1;fontColor=#5C5C5C;strokeColor=#006658;fillColor=#21C0A5;exitX=0;exitY=0.5;exitDx=0;exitDy=0;entryX=1;entryY=0.5;entryDx=0;entryDy=0;" parent="1" source="KPvRqQYWDeznnrHQe_zY-188" target="KPvRqQYWDeznnrHQe_zY-2" edge="1">
          <mxGeometry width="50" height="50" relative="1" as="geometry">
            <mxPoint x="540" y="1610" as="sourcePoint" />
            <mxPoint x="590" y="1560" as="targetPoint" />
          </mxGeometry>
        </mxCell>
        <mxCell id="KPvRqQYWDeznnrHQe_zY-195" value="" style="edgeStyle=orthogonalEdgeStyle;elbow=vertical;endArrow=classic;html=1;fontColor=#5C5C5C;strokeColor=#006658;fillColor=#21C0A5;exitX=0;exitY=0.5;exitDx=0;exitDy=0;" parent="1" source="KPvRqQYWDeznnrHQe_zY-187" edge="1">
          <mxGeometry width="50" height="50" relative="1" as="geometry">
            <mxPoint x="540" y="1720" as="sourcePoint" />
            <mxPoint x="1060" y="1400" as="targetPoint" />
          </mxGeometry>
        </mxCell>
        <mxCell id="KPvRqQYWDeznnrHQe_zY-196" value="config 配置表" style="swimlane;html=1;fontStyle=1;align=center;verticalAlign=top;childLayout=stackLayout;horizontal=1;startSize=26;horizontalStack=0;resizeParent=1;resizeLast=0;collapsible=1;marginBottom=0;swimlaneFillColor=#ffffff;rounded=0;shadow=0;comic=0;labelBackgroundColor=none;strokeWidth=1;fillColor=none;fontFamily=Verdana;fontSize=12;strokeColor=#006658;fontColor=#5C5C5C;" parent="1" vertex="1">
          <mxGeometry x="1080" y="290" width="240" height="150" as="geometry">
            <mxRectangle x="50" y="130" width="70" height="26" as="alternateBounds" />
          </mxGeometry>
        </mxCell>
        <mxCell id="KPvRqQYWDeznnrHQe_zY-197" value="id&lt;br&gt;" style="text;html=1;strokeColor=none;fillColor=none;align=left;verticalAlign=top;spacingLeft=4;spacingRight=4;whiteSpace=wrap;overflow=hidden;rotatable=0;points=[[0,0.5],[1,0.5]];portConstraint=eastwest;fontColor=#5C5C5C;" parent="KPvRqQYWDeznnrHQe_zY-196" vertex="1">
          <mxGeometry y="26" width="240" height="26" as="geometry" />
        </mxCell>
        <mxCell id="KPvRqQYWDeznnrHQe_zY-199" value="name string 配置名" style="text;html=1;strokeColor=none;fillColor=none;align=left;verticalAlign=top;spacingLeft=4;spacingRight=4;whiteSpace=wrap;overflow=hidden;rotatable=0;points=[[0,0.5],[1,0.5]];portConstraint=eastwest;fontColor=#5C5C5C;" parent="KPvRqQYWDeznnrHQe_zY-196" vertex="1">
          <mxGeometry y="52" width="240" height="26" as="geometry" />
        </mxCell>
        <mxCell id="KPvRqQYWDeznnrHQe_zY-200" value="value string 配置值" style="text;html=1;strokeColor=none;fillColor=none;align=left;verticalAlign=top;spacingLeft=4;spacingRight=4;whiteSpace=wrap;overflow=hidden;rotatable=0;points=[[0,0.5],[1,0.5]];portConstraint=eastwest;fontColor=#5C5C5C;" parent="KPvRqQYWDeznnrHQe_zY-196" vertex="1">
          <mxGeometry y="78" width="240" height="28" as="geometry" />
        </mxCell>
        <mxCell id="KPvRqQYWDeznnrHQe_zY-201" value="remark string 备注" style="text;html=1;strokeColor=none;fillColor=none;align=left;verticalAlign=top;spacingLeft=4;spacingRight=4;whiteSpace=wrap;overflow=hidden;rotatable=0;points=[[0,0.5],[1,0.5]];portConstraint=eastwest;fontColor=#5C5C5C;" parent="KPvRqQYWDeznnrHQe_zY-196" vertex="1">
          <mxGeometry y="106" width="240" height="28" as="geometry" />
        </mxCell>
        <mxCell id="KPvRqQYWDeznnrHQe_zY-202" value="logs 操作日志表" style="swimlane;html=1;fontStyle=1;align=center;verticalAlign=top;childLayout=stackLayout;horizontal=1;startSize=26;horizontalStack=0;resizeParent=1;resizeLast=0;collapsible=1;marginBottom=0;swimlaneFillColor=#ffffff;rounded=0;shadow=0;comic=0;labelBackgroundColor=none;strokeWidth=1;fillColor=none;fontFamily=Verdana;fontSize=12;strokeColor=#006658;fontColor=#5C5C5C;" parent="1" vertex="1">
          <mxGeometry x="1350" y="290" width="240" height="150" as="geometry">
            <mxRectangle x="50" y="130" width="70" height="26" as="alternateBounds" />
          </mxGeometry>
        </mxCell>
        <mxCell id="KPvRqQYWDeznnrHQe_zY-203" value="id&lt;br&gt;" style="text;html=1;strokeColor=none;fillColor=none;align=left;verticalAlign=top;spacingLeft=4;spacingRight=4;whiteSpace=wrap;overflow=hidden;rotatable=0;points=[[0,0.5],[1,0.5]];portConstraint=eastwest;fontColor=#5C5C5C;" parent="KPvRqQYWDeznnrHQe_zY-202" vertex="1">
          <mxGeometry y="26" width="240" height="26" as="geometry" />
        </mxCell>
        <mxCell id="KPvRqQYWDeznnrHQe_zY-207" value="type string&amp;nbsp; 操作类型 curd&amp;nbsp;&lt;br&gt;" style="text;html=1;strokeColor=none;fillColor=none;align=left;verticalAlign=top;spacingLeft=4;spacingRight=4;whiteSpace=wrap;overflow=hidden;rotatable=0;points=[[0,0.5],[1,0.5]];portConstraint=eastwest;fontColor=#5C5C5C;" parent="KPvRqQYWDeznnrHQe_zY-202" vertex="1">
          <mxGeometry y="52" width="240" height="26" as="geometry" />
        </mxCell>
        <mxCell id="KPvRqQYWDeznnrHQe_zY-208" value="content string 操作内容说明&amp;nbsp;" style="text;html=1;strokeColor=none;fillColor=none;align=left;verticalAlign=top;spacingLeft=4;spacingRight=4;whiteSpace=wrap;overflow=hidden;rotatable=0;points=[[0,0.5],[1,0.5]];portConstraint=eastwest;fontColor=#5C5C5C;" parent="KPvRqQYWDeznnrHQe_zY-202" vertex="1">
          <mxGeometry y="78" width="240" height="26" as="geometry" />
        </mxCell>
        <mxCell id="KPvRqQYWDeznnrHQe_zY-209" value="udi int 用户id" style="text;html=1;strokeColor=none;fillColor=none;align=left;verticalAlign=top;spacingLeft=4;spacingRight=4;whiteSpace=wrap;overflow=hidden;rotatable=0;points=[[0,0.5],[1,0.5]];portConstraint=eastwest;fontColor=#5C5C5C;" parent="KPvRqQYWDeznnrHQe_zY-202" vertex="1">
          <mxGeometry y="104" width="240" height="26" as="geometry" />
        </mxCell>
        <mxCell id="KPvRqQYWDeznnrHQe_zY-210" value="" style="edgeStyle=orthogonalEdgeStyle;elbow=vertical;endArrow=classic;html=1;fontColor=#5C5C5C;strokeColor=#006658;fillColor=#21C0A5;entryX=1;entryY=0.5;entryDx=0;entryDy=0;" parent="1" source="KPvRqQYWDeznnrHQe_zY-209" target="78961159f06e98e8-21" edge="1">
          <mxGeometry width="50" height="50" relative="1" as="geometry">
            <mxPoint x="940" y="450" as="sourcePoint" />
            <mxPoint x="990" y="400" as="targetPoint" />
          </mxGeometry>
        </mxCell>
        <mxCell id="KPvRqQYWDeznnrHQe_zY-211" value="msg 消息表" style="swimlane;html=1;fontStyle=1;align=center;verticalAlign=top;childLayout=stackLayout;horizontal=1;startSize=26;horizontalStack=0;resizeParent=1;resizeLast=0;collapsible=1;marginBottom=0;swimlaneFillColor=#ffffff;rounded=0;shadow=0;comic=0;labelBackgroundColor=none;strokeWidth=1;fillColor=none;fontFamily=Verdana;fontSize=12;strokeColor=#006658;fontColor=#5C5C5C;" parent="1" vertex="1">
          <mxGeometry x="1270" y="490" width="240" height="150" as="geometry">
            <mxRectangle x="50" y="130" width="70" height="26" as="alternateBounds" />
          </mxGeometry>
        </mxCell>
        <mxCell id="KPvRqQYWDeznnrHQe_zY-212" value="id&lt;br&gt;" style="text;html=1;strokeColor=none;fillColor=none;align=left;verticalAlign=top;spacingLeft=4;spacingRight=4;whiteSpace=wrap;overflow=hidden;rotatable=0;points=[[0,0.5],[1,0.5]];portConstraint=eastwest;fontColor=#5C5C5C;" parent="KPvRqQYWDeznnrHQe_zY-211" vertex="1">
          <mxGeometry y="26" width="240" height="26" as="geometry" />
        </mxCell>
        <mxCell id="KPvRqQYWDeznnrHQe_zY-213" value="is_read boo 是否已读" style="text;html=1;strokeColor=none;fillColor=none;align=left;verticalAlign=top;spacingLeft=4;spacingRight=4;whiteSpace=wrap;overflow=hidden;rotatable=0;points=[[0,0.5],[1,0.5]];portConstraint=eastwest;fontColor=#5C5C5C;" parent="KPvRqQYWDeznnrHQe_zY-211" vertex="1">
          <mxGeometry y="52" width="240" height="26" as="geometry" />
        </mxCell>
        <mxCell id="KPvRqQYWDeznnrHQe_zY-214" value="content string 操作内容说明&amp;nbsp;" style="text;html=1;strokeColor=none;fillColor=none;align=left;verticalAlign=top;spacingLeft=4;spacingRight=4;whiteSpace=wrap;overflow=hidden;rotatable=0;points=[[0,0.5],[1,0.5]];portConstraint=eastwest;fontColor=#5C5C5C;" parent="KPvRqQYWDeznnrHQe_zY-211" vertex="1">
          <mxGeometry y="78" width="240" height="26" as="geometry" />
        </mxCell>
        <mxCell id="KPvRqQYWDeznnrHQe_zY-215" value="udi int 用户id" style="text;html=1;strokeColor=none;fillColor=none;align=left;verticalAlign=top;spacingLeft=4;spacingRight=4;whiteSpace=wrap;overflow=hidden;rotatable=0;points=[[0,0.5],[1,0.5]];portConstraint=eastwest;fontColor=#5C5C5C;" parent="KPvRqQYWDeznnrHQe_zY-211" vertex="1">
          <mxGeometry y="104" width="240" height="26" as="geometry" />
        </mxCell>
        <mxCell id="KPvRqQYWDeznnrHQe_zY-216" value="" style="edgeStyle=orthogonalEdgeStyle;elbow=vertical;endArrow=classic;html=1;fontColor=#5C5C5C;strokeColor=#006658;fillColor=#21C0A5;exitX=0;exitY=0.5;exitDx=0;exitDy=0;" parent="1" source="KPvRqQYWDeznnrHQe_zY-215" edge="1">
          <mxGeometry width="50" height="50" relative="1" as="geometry">
            <mxPoint x="1170" y="660" as="sourcePoint" />
            <mxPoint x="220" y="173.33333333333334" as="targetPoint" />
          </mxGeometry>
        </mxCell>
        <mxCell id="Lo34l0AC3N942EHVy-g1-1" value="users 用户表&lt;br&gt;" style="swimlane;html=1;fontStyle=1;align=center;verticalAlign=top;childLayout=stackLayout;horizontal=1;startSize=26;horizontalStack=0;resizeParent=1;resizeLast=0;collapsible=1;marginBottom=0;swimlaneFillColor=#ffffff;rounded=0;shadow=0;comic=0;labelBackgroundColor=none;strokeWidth=1;fillColor=none;fontFamily=Verdana;fontSize=12;strokeColor=#006658;fontColor=#5C5C5C;" parent="1" vertex="1">
          <mxGeometry x="20" y="120" width="200" height="380" as="geometry">
            <mxRectangle x="50" y="130" width="70" height="26" as="alternateBounds" />
          </mxGeometry>
        </mxCell>
        <mxCell id="Lo34l0AC3N942EHVy-g1-2" value="id&lt;br&gt;" style="text;html=1;strokeColor=none;fillColor=none;align=left;verticalAlign=top;spacingLeft=4;spacingRight=4;whiteSpace=wrap;overflow=hidden;rotatable=0;points=[[0,0.5],[1,0.5]];portConstraint=eastwest;fontColor=#5C5C5C;" parent="Lo34l0AC3N942EHVy-g1-1" vertex="1">
          <mxGeometry y="26" width="200" height="26" as="geometry" />
        </mxCell>
        <mxCell id="Lo34l0AC3N942EHVy-g1-3" value="name&lt;br&gt;" style="text;html=1;strokeColor=none;fillColor=none;align=left;verticalAlign=top;spacingLeft=4;spacingRight=4;whiteSpace=wrap;overflow=hidden;rotatable=0;points=[[0,0.5],[1,0.5]];portConstraint=eastwest;fontColor=#5C5C5C;" parent="Lo34l0AC3N942EHVy-g1-1" vertex="1">
          <mxGeometry y="52" width="200" height="26" as="geometry" />
        </mxCell>
        <mxCell id="Lo34l0AC3N942EHVy-g1-4" value="password&lt;br&gt;" style="text;html=1;strokeColor=none;fillColor=none;align=left;verticalAlign=top;spacingLeft=4;spacingRight=4;whiteSpace=wrap;overflow=hidden;rotatable=0;points=[[0,0.5],[1,0.5]];portConstraint=eastwest;fontColor=#5C5C5C;" parent="Lo34l0AC3N942EHVy-g1-1" vertex="1">
          <mxGeometry y="78" width="200" height="26" as="geometry" />
        </mxCell>
        <mxCell id="Lo34l0AC3N942EHVy-g1-5" value="phone&lt;br&gt;" style="text;html=1;strokeColor=none;fillColor=none;align=left;verticalAlign=top;spacingLeft=4;spacingRight=4;whiteSpace=wrap;overflow=hidden;rotatable=0;points=[[0,0.5],[1,0.5]];portConstraint=eastwest;fontColor=#5C5C5C;" parent="Lo34l0AC3N942EHVy-g1-1" vertex="1">
          <mxGeometry y="104" width="200" height="26" as="geometry" />
        </mxCell>
        <mxCell id="Lo34l0AC3N942EHVy-g1-6" value="mac&amp;nbsp; mac地址&lt;br&gt;" style="text;html=1;strokeColor=none;fillColor=none;align=left;verticalAlign=top;spacingLeft=4;spacingRight=4;whiteSpace=wrap;overflow=hidden;rotatable=0;points=[[0,0.5],[1,0.5]];portConstraint=eastwest;fontColor=#5C5C5C;" parent="Lo34l0AC3N942EHVy-g1-1" vertex="1">
          <mxGeometry y="130" width="200" height="26" as="geometry" />
        </mxCell>
        <mxCell id="Lo34l0AC3N942EHVy-g1-7" value="role_id&amp;nbsp; 角色id&lt;br&gt;" style="text;html=1;strokeColor=none;fillColor=none;align=left;verticalAlign=top;spacingLeft=4;spacingRight=4;whiteSpace=wrap;overflow=hidden;rotatable=0;points=[[0,0.5],[1,0.5]];portConstraint=eastwest;fontColor=#5C5C5C;" parent="Lo34l0AC3N942EHVy-g1-1" vertex="1">
          <mxGeometry y="156" width="200" height="26" as="geometry" />
        </mxCell>
        <mxCell id="Lo34l0AC3N942EHVy-g1-8" value="wechat 微信号" style="text;html=1;strokeColor=none;fillColor=none;align=left;verticalAlign=top;spacingLeft=4;spacingRight=4;whiteSpace=wrap;overflow=hidden;rotatable=0;points=[[0,0.5],[1,0.5]];portConstraint=eastwest;fontColor=#5C5C5C;" parent="Lo34l0AC3N942EHVy-g1-1" vertex="1">
          <mxGeometry y="182" width="200" height="26" as="geometry" />
        </mxCell>
        <mxCell id="Lo34l0AC3N942EHVy-g1-9" value="company_id 所属的公司id" style="text;html=1;strokeColor=none;fillColor=none;align=left;verticalAlign=top;spacingLeft=4;spacingRight=4;whiteSpace=wrap;overflow=hidden;rotatable=0;points=[[0,0.5],[1,0.5]];portConstraint=eastwest;fontColor=#5C5C5C;" parent="Lo34l0AC3N942EHVy-g1-1" vertex="1">
          <mxGeometry y="208" width="200" height="26" as="geometry" />
        </mxCell>
        <mxCell id="Lo34l0AC3N942EHVy-g1-10" value="state bool 启用状态" style="text;html=1;strokeColor=none;fillColor=none;align=left;verticalAlign=top;spacingLeft=4;spacingRight=4;whiteSpace=wrap;overflow=hidden;rotatable=0;points=[[0,0.5],[1,0.5]];portConstraint=eastwest;fontColor=#5C5C5C;" parent="Lo34l0AC3N942EHVy-g1-1" vertex="1">
          <mxGeometry y="234" width="200" height="26" as="geometry" />
        </mxCell>
        <mxCell id="Lo34l0AC3N942EHVy-g1-11" value="avatarFileId int 头像文件id" style="text;html=1;strokeColor=none;fillColor=none;align=left;verticalAlign=top;spacingLeft=4;spacingRight=4;whiteSpace=wrap;overflow=hidden;rotatable=0;points=[[0,0.5],[1,0.5]];portConstraint=eastwest;fontColor=#5C5C5C;" parent="Lo34l0AC3N942EHVy-g1-1" vertex="1">
          <mxGeometry y="260" width="200" height="26" as="geometry" />
        </mxCell>
        <mxCell id="Lo34l0AC3N942EHVy-g1-12" value="roles 角色表&lt;br&gt;" style="swimlane;html=1;fontStyle=1;align=center;verticalAlign=top;childLayout=stackLayout;horizontal=1;startSize=26;horizontalStack=0;resizeParent=1;resizeLast=0;collapsible=1;marginBottom=0;swimlaneFillColor=#ffffff;rounded=0;shadow=0;comic=0;labelBackgroundColor=none;strokeWidth=1;fillColor=none;fontFamily=Verdana;fontSize=12;strokeColor=#006658;fontColor=#5C5C5C;" parent="1" vertex="1">
          <mxGeometry x="310" y="90" width="160" height="210" as="geometry">
            <mxRectangle x="50" y="130" width="70" height="26" as="alternateBounds" />
          </mxGeometry>
        </mxCell>
        <mxCell id="Lo34l0AC3N942EHVy-g1-13" value="id&lt;br&gt;" style="text;html=1;strokeColor=none;fillColor=none;align=left;verticalAlign=top;spacingLeft=4;spacingRight=4;whiteSpace=wrap;overflow=hidden;rotatable=0;points=[[0,0.5],[1,0.5]];portConstraint=eastwest;fontColor=#5C5C5C;" parent="Lo34l0AC3N942EHVy-g1-12" vertex="1">
          <mxGeometry y="26" width="160" height="26" as="geometry" />
        </mxCell>
        <mxCell id="Lo34l0AC3N942EHVy-g1-14" value="name 角色名&lt;br&gt;" style="text;html=1;strokeColor=none;fillColor=none;align=left;verticalAlign=top;spacingLeft=4;spacingRight=4;whiteSpace=wrap;overflow=hidden;rotatable=0;points=[[0,0.5],[1,0.5]];portConstraint=eastwest;fontColor=#5C5C5C;" parent="Lo34l0AC3N942EHVy-g1-12" vertex="1">
          <mxGeometry y="52" width="160" height="26" as="geometry" />
        </mxCell>
        <mxCell id="Lo34l0AC3N942EHVy-g1-15" value="tag 角色标识&lt;br&gt;" style="text;html=1;strokeColor=none;fillColor=none;align=left;verticalAlign=top;spacingLeft=4;spacingRight=4;whiteSpace=wrap;overflow=hidden;rotatable=0;points=[[0,0.5],[1,0.5]];portConstraint=eastwest;fontColor=#5C5C5C;" parent="Lo34l0AC3N942EHVy-g1-12" vertex="1">
          <mxGeometry y="78" width="160" height="26" as="geometry" />
        </mxCell>
        <mxCell id="Lo34l0AC3N942EHVy-g1-16" value="companies 公司表" style="swimlane;html=1;fontStyle=1;align=center;verticalAlign=top;childLayout=stackLayout;horizontal=1;startSize=26;horizontalStack=0;resizeParent=1;resizeLast=0;collapsible=1;marginBottom=0;swimlaneFillColor=#ffffff;rounded=0;shadow=0;comic=0;labelBackgroundColor=none;strokeWidth=1;fillColor=none;fontFamily=Verdana;fontSize=12;strokeColor=#006658;fontColor=#5C5C5C;" parent="1" vertex="1">
          <mxGeometry x="340" y="480" width="230" height="286" as="geometry">
            <mxRectangle x="50" y="130" width="70" height="26" as="alternateBounds" />
          </mxGeometry>
        </mxCell>
        <mxCell id="Lo34l0AC3N942EHVy-g1-17" value="id&lt;br&gt;" style="text;html=1;strokeColor=none;fillColor=none;align=left;verticalAlign=top;spacingLeft=4;spacingRight=4;whiteSpace=wrap;overflow=hidden;rotatable=0;points=[[0,0.5],[1,0.5]];portConstraint=eastwest;fontColor=#5C5C5C;" parent="Lo34l0AC3N942EHVy-g1-16" vertex="1">
          <mxGeometry y="26" width="230" height="26" as="geometry" />
        </mxCell>
        <mxCell id="Lo34l0AC3N942EHVy-g1-18" value="name 公司名" style="text;html=1;strokeColor=none;fillColor=none;align=left;verticalAlign=top;spacingLeft=4;spacingRight=4;whiteSpace=wrap;overflow=hidden;rotatable=0;points=[[0,0.5],[1,0.5]];portConstraint=eastwest;fontColor=#5C5C5C;" parent="Lo34l0AC3N942EHVy-g1-16" vertex="1">
          <mxGeometry y="52" width="230" height="26" as="geometry" />
        </mxCell>
        <mxCell id="Lo34l0AC3N942EHVy-g1-19" value="pinyin 拼音" style="text;html=1;strokeColor=none;fillColor=none;align=left;verticalAlign=top;spacingLeft=4;spacingRight=4;whiteSpace=wrap;overflow=hidden;rotatable=0;points=[[0,0.5],[1,0.5]];portConstraint=eastwest;fontColor=#5C5C5C;" parent="Lo34l0AC3N942EHVy-g1-16" vertex="1">
          <mxGeometry y="78" width="230" height="26" as="geometry" />
        </mxCell>
        <mxCell id="Lo34l0AC3N942EHVy-g1-20" value="uid 用户id" style="text;html=1;strokeColor=none;fillColor=none;align=left;verticalAlign=top;spacingLeft=4;spacingRight=4;whiteSpace=wrap;overflow=hidden;rotatable=0;points=[[0,0.5],[1,0.5]];portConstraint=eastwest;fontColor=#5C5C5C;" parent="Lo34l0AC3N942EHVy-g1-16" vertex="1">
          <mxGeometry y="104" width="230" height="26" as="geometry" />
        </mxCell>
        <mxCell id="Lo34l0AC3N942EHVy-g1-21" value="wechat string 公司微信" style="text;html=1;strokeColor=none;fillColor=none;align=left;verticalAlign=top;spacingLeft=4;spacingRight=4;whiteSpace=wrap;overflow=hidden;rotatable=0;points=[[0,0.5],[1,0.5]];portConstraint=eastwest;fontColor=#5C5C5C;" parent="Lo34l0AC3N942EHVy-g1-16" vertex="1">
          <mxGeometry y="130" width="230" height="34" as="geometry" />
        </mxCell>
        <mxCell id="Lo34l0AC3N942EHVy-g1-22" value="lbackgroundFileId app背景文件id&lt;br&gt;" style="text;html=1;strokeColor=none;fillColor=none;align=left;verticalAlign=top;spacingLeft=4;spacingRight=4;whiteSpace=wrap;overflow=hidden;rotatable=0;points=[[0,0.5],[1,0.5]];portConstraint=eastwest;fontColor=#5C5C5C;" parent="Lo34l0AC3N942EHVy-g1-16" vertex="1">
          <mxGeometry y="164" width="230" height="26" as="geometry" />
        </mxCell>
        <mxCell id="Lo34l0AC3N942EHVy-g1-23" value="lbackgroundFileId app背景文件id&lt;br&gt;" style="text;html=1;strokeColor=none;fillColor=none;align=left;verticalAlign=top;spacingLeft=4;spacingRight=4;whiteSpace=wrap;overflow=hidden;rotatable=0;points=[[0,0.5],[1,0.5]];portConstraint=eastwest;fontColor=#5C5C5C;" parent="Lo34l0AC3N942EHVy-g1-16" vertex="1">
          <mxGeometry y="190" width="230" height="30" as="geometry" />
        </mxCell>
        <mxCell id="Lo34l0AC3N942EHVy-g1-24" value="logoFileId&amp;nbsp; 文件id" style="text;html=1;strokeColor=none;fillColor=none;align=left;verticalAlign=top;spacingLeft=4;spacingRight=4;whiteSpace=wrap;overflow=hidden;rotatable=0;points=[[0,0.5],[1,0.5]];portConstraint=eastwest;fontColor=#5C5C5C;" parent="Lo34l0AC3N942EHVy-g1-16" vertex="1">
          <mxGeometry y="220" width="230" height="26" as="geometry" />
        </mxCell>
        <mxCell id="Lo34l0AC3N942EHVy-g1-25" value="phone string 公司电话&lt;br&gt;" style="text;html=1;strokeColor=none;fillColor=none;align=left;verticalAlign=top;spacingLeft=4;spacingRight=4;whiteSpace=wrap;overflow=hidden;rotatable=0;points=[[0,0.5],[1,0.5]];portConstraint=eastwest;fontColor=#5C5C5C;" parent="Lo34l0AC3N942EHVy-g1-16" vertex="1">
          <mxGeometry y="246" width="230" height="26" as="geometry" />
        </mxCell>
        <mxCell id="Lo34l0AC3N942EHVy-g1-26" value="files 文件表" style="swimlane;html=1;fontStyle=1;align=center;verticalAlign=top;childLayout=stackLayout;horizontal=1;startSize=26;horizontalStack=0;resizeParent=1;resizeLast=0;collapsible=1;marginBottom=0;swimlaneFillColor=#ffffff;rounded=0;shadow=0;comic=0;labelBackgroundColor=none;strokeWidth=1;fillColor=none;fontFamily=Verdana;fontSize=12;strokeColor=#006658;fontColor=#5C5C5C;" parent="1" vertex="1">
          <mxGeometry x="20" y="550" width="160" height="110" as="geometry">
            <mxRectangle x="50" y="130" width="70" height="26" as="alternateBounds" />
          </mxGeometry>
        </mxCell>
        <mxCell id="Lo34l0AC3N942EHVy-g1-27" value="id&lt;br&gt;" style="text;html=1;strokeColor=none;fillColor=none;align=left;verticalAlign=top;spacingLeft=4;spacingRight=4;whiteSpace=wrap;overflow=hidden;rotatable=0;points=[[0,0.5],[1,0.5]];portConstraint=eastwest;fontColor=#5C5C5C;" parent="Lo34l0AC3N942EHVy-g1-26" vertex="1">
          <mxGeometry y="26" width="160" height="26" as="geometry" />
        </mxCell>
        <mxCell id="Lo34l0AC3N942EHVy-g1-28" value="path 文件路径" style="text;html=1;strokeColor=none;fillColor=none;align=left;verticalAlign=top;spacingLeft=4;spacingRight=4;whiteSpace=wrap;overflow=hidden;rotatable=0;points=[[0,0.5],[1,0.5]];portConstraint=eastwest;fontColor=#5C5C5C;" parent="Lo34l0AC3N942EHVy-g1-26" vertex="1">
          <mxGeometry y="52" width="160" height="26" as="geometry" />
        </mxCell>
        <mxCell id="Lo34l0AC3N942EHVy-g1-29" value="disk 保存硬盘" style="text;html=1;strokeColor=none;fillColor=none;align=left;verticalAlign=top;spacingLeft=4;spacingRight=4;whiteSpace=wrap;overflow=hidden;rotatable=0;points=[[0,0.5],[1,0.5]];portConstraint=eastwest;fontColor=#5C5C5C;" parent="Lo34l0AC3N942EHVy-g1-26" vertex="1">
          <mxGeometry y="78" width="160" height="26" as="geometry" />
        </mxCell>
        <mxCell id="Lo34l0AC3N942EHVy-g1-30" value="" style="edgeStyle=elbowEdgeStyle;elbow=horizontal;endArrow=classic;html=1;strokeColor=#006658;fontColor=#5C5C5C;" parent="1" source="Lo34l0AC3N942EHVy-g1-20" target="Lo34l0AC3N942EHVy-g1-2" edge="1">
          <mxGeometry width="50" height="50" relative="1" as="geometry">
            <mxPoint x="520" y="470" as="sourcePoint" />
            <mxPoint x="570" y="420" as="targetPoint" />
          </mxGeometry>
        </mxCell>
        <mxCell id="Lo34l0AC3N942EHVy-g1-31" value="" style="edgeStyle=elbowEdgeStyle;elbow=horizontal;endArrow=classic;html=1;entryX=0;entryY=0.5;entryDx=0;entryDy=0;exitX=1;exitY=0.5;exitDx=0;exitDy=0;strokeColor=#006658;fontColor=#5C5C5C;" parent="1" source="Lo34l0AC3N942EHVy-g1-7" target="Lo34l0AC3N942EHVy-g1-13" edge="1">
          <mxGeometry width="50" height="50" relative="1" as="geometry">
            <mxPoint x="240" y="280" as="sourcePoint" />
            <mxPoint x="290" y="230" as="targetPoint" />
            <Array as="points" />
          </mxGeometry>
        </mxCell>
        <mxCell id="Lo34l0AC3N942EHVy-g1-32" value="" style="edgeStyle=orthogonalEdgeStyle;elbow=horizontal;endArrow=classic;html=1;entryX=0;entryY=0.5;entryDx=0;entryDy=0;exitX=0;exitY=0.5;exitDx=0;exitDy=0;strokeColor=#006658;fontColor=#5C5C5C;" parent="1" source="Lo34l0AC3N942EHVy-g1-23" target="Lo34l0AC3N942EHVy-g1-27" edge="1">
          <mxGeometry width="50" height="50" relative="1" as="geometry">
            <mxPoint x="10" y="370" as="sourcePoint" />
            <mxPoint x="570" y="420" as="targetPoint" />
          </mxGeometry>
        </mxCell>
        <mxCell id="Lo34l0AC3N942EHVy-g1-33" value="" style="edgeStyle=segmentEdgeStyle;endArrow=classic;html=1;entryX=0;entryY=0.5;entryDx=0;entryDy=0;strokeColor=#006658;fontColor=#5C5C5C;" parent="1" source="Lo34l0AC3N942EHVy-g1-27" target="Lo34l0AC3N942EHVy-g1-24" edge="1">
          <mxGeometry width="50" height="50" relative="1" as="geometry">
            <mxPoint x="200" y="610" as="sourcePoint" />
            <mxPoint x="250" y="560" as="targetPoint" />
            <Array as="points">
              <mxPoint x="260" y="589" />
              <mxPoint x="260" y="743" />
            </Array>
          </mxGeometry>
        </mxCell>
        <mxCell id="Lo34l0AC3N942EHVy-g1-34" value="" style="edgeStyle=segmentEdgeStyle;endArrow=classic;html=1;exitX=1;exitY=0.5;exitDx=0;exitDy=0;entryX=0;entryY=0.5;entryDx=0;entryDy=0;strokeColor=#006658;fontColor=#5C5C5C;" parent="1" source="Lo34l0AC3N942EHVy-g1-9" target="Lo34l0AC3N942EHVy-g1-17" edge="1">
          <mxGeometry width="50" height="50" relative="1" as="geometry">
            <mxPoint x="520" y="460" as="sourcePoint" />
            <mxPoint x="570" y="410" as="targetPoint" />
            <Array as="points">
              <mxPoint x="260" y="341" />
              <mxPoint x="260" y="519" />
            </Array>
          </mxGeometry>
        </mxCell>
        <mxCell id="Lo34l0AC3N942EHVy-g1-35" value="" style="edgeStyle=elbowEdgeStyle;elbow=vertical;endArrow=classic;html=1;exitX=1;exitY=0.5;exitDx=0;exitDy=0;strokeColor=#006658;fontColor=#5C5C5C;" parent="1" source="Lo34l0AC3N942EHVy-g1-11" target="Lo34l0AC3N942EHVy-g1-27" edge="1">
          <mxGeometry width="50" height="50" relative="1" as="geometry">
            <mxPoint x="520" y="510" as="sourcePoint" />
            <mxPoint x="570" y="460" as="targetPoint" />
            <Array as="points">
              <mxPoint x="230" y="500" />
            </Array>
          </mxGeometry>
        </mxCell>
        <mxCell id="Lo34l0AC3N942EHVy-g1-36" value="repository 仓库表" style="swimlane;html=1;fontStyle=1;align=center;verticalAlign=top;childLayout=stackLayout;horizontal=1;startSize=26;horizontalStack=0;resizeParent=1;resizeLast=0;collapsible=1;marginBottom=0;swimlaneFillColor=#ffffff;rounded=0;shadow=0;comic=0;labelBackgroundColor=none;strokeWidth=1;fillColor=none;fontFamily=Verdana;fontSize=12;strokeColor=#006658;fontColor=#5C5C5C;" parent="1" vertex="1">
          <mxGeometry x="610" y="200" width="230" height="316" as="geometry">
            <mxRectangle x="50" y="130" width="70" height="26" as="alternateBounds" />
          </mxGeometry>
        </mxCell>
        <mxCell id="Lo34l0AC3N942EHVy-g1-37" value="id&lt;br&gt;" style="text;html=1;strokeColor=none;fillColor=none;align=left;verticalAlign=top;spacingLeft=4;spacingRight=4;whiteSpace=wrap;overflow=hidden;rotatable=0;points=[[0,0.5],[1,0.5]];portConstraint=eastwest;fontColor=#5C5C5C;" parent="Lo34l0AC3N942EHVy-g1-36" vertex="1">
          <mxGeometry y="26" width="230" height="26" as="geometry" />
        </mxCell>
        <mxCell id="Lo34l0AC3N942EHVy-g1-38" value="name 仓库名" style="text;html=1;strokeColor=none;fillColor=none;align=left;verticalAlign=top;spacingLeft=4;spacingRight=4;whiteSpace=wrap;overflow=hidden;rotatable=0;points=[[0,0.5],[1,0.5]];portConstraint=eastwest;fontColor=#5C5C5C;" parent="Lo34l0AC3N942EHVy-g1-36" vertex="1">
          <mxGeometry y="52" width="230" height="26" as="geometry" />
        </mxCell>
        <mxCell id="Lo34l0AC3N942EHVy-g1-39" value="pinyin 拼音" style="text;html=1;strokeColor=none;fillColor=none;align=left;verticalAlign=top;spacingLeft=4;spacingRight=4;whiteSpace=wrap;overflow=hidden;rotatable=0;points=[[0,0.5],[1,0.5]];portConstraint=eastwest;fontColor=#5C5C5C;" parent="Lo34l0AC3N942EHVy-g1-36" vertex="1">
          <mxGeometry y="78" width="230" height="26" as="geometry" />
        </mxCell>
        <mxCell id="Lo34l0AC3N942EHVy-g1-40" value="uid 管理员用户id" style="text;html=1;strokeColor=none;fillColor=none;align=left;verticalAlign=top;spacingLeft=4;spacingRight=4;whiteSpace=wrap;overflow=hidden;rotatable=0;points=[[0,0.5],[1,0.5]];portConstraint=eastwest;fontColor=#5C5C5C;" parent="Lo34l0AC3N942EHVy-g1-36" vertex="1">
          <mxGeometry y="104" width="230" height="26" as="geometry" />
        </mxCell>
        <mxCell id="Lo34l0AC3N942EHVy-g1-41" value="city string 城市" style="text;html=1;strokeColor=none;fillColor=none;align=left;verticalAlign=top;spacingLeft=4;spacingRight=4;whiteSpace=wrap;overflow=hidden;rotatable=0;points=[[0,0.5],[1,0.5]];portConstraint=eastwest;fontColor=#5C5C5C;" parent="Lo34l0AC3N942EHVy-g1-36" vertex="1">
          <mxGeometry y="130" width="230" height="26" as="geometry" />
        </mxCell>
        <mxCell id="Lo34l0AC3N942EHVy-g1-42" value="address string 地址" style="text;html=1;strokeColor=none;fillColor=none;align=left;verticalAlign=top;spacingLeft=4;spacingRight=4;whiteSpace=wrap;overflow=hidden;rotatable=0;points=[[0,0.5],[1,0.5]];portConstraint=eastwest;fontColor=#5C5C5C;" parent="Lo34l0AC3N942EHVy-g1-36" vertex="1">
          <mxGeometry y="156" width="230" height="26" as="geometry" />
        </mxCell>
        <mxCell id="Lo34l0AC3N942EHVy-g1-43" value="total int 总量" style="text;html=1;strokeColor=none;fillColor=none;align=left;verticalAlign=top;spacingLeft=4;spacingRight=4;whiteSpace=wrap;overflow=hidden;rotatable=0;points=[[0,0.5],[1,0.5]];portConstraint=eastwest;fontColor=#5C5C5C;" parent="Lo34l0AC3N942EHVy-g1-36" vertex="1">
          <mxGeometry y="182" width="230" height="26" as="geometry" />
        </mxCell>
        <mxCell id="Lo34l0AC3N942EHVy-g1-44" value="weight float64 重量" style="text;html=1;strokeColor=none;fillColor=none;align=left;verticalAlign=top;spacingLeft=4;spacingRight=4;whiteSpace=wrap;overflow=hidden;rotatable=0;points=[[0,0.5],[1,0.5]];portConstraint=eastwest;fontColor=#5C5C5C;" parent="Lo34l0AC3N942EHVy-g1-36" vertex="1">
          <mxGeometry y="208" width="230" height="26" as="geometry" />
        </mxCell>
        <mxCell id="Lo34l0AC3N942EHVy-g1-45" value="remark string 备注" style="text;html=1;strokeColor=none;fillColor=none;align=left;verticalAlign=top;spacingLeft=4;spacingRight=4;whiteSpace=wrap;overflow=hidden;rotatable=0;points=[[0,0.5],[1,0.5]];portConstraint=eastwest;fontColor=#5C5C5C;" parent="Lo34l0AC3N942EHVy-g1-36" vertex="1">
          <mxGeometry y="234" width="230" height="26" as="geometry" />
        </mxCell>
        <mxCell id="Lo34l0AC3N942EHVy-g1-46" value="state bool 是否启用" style="text;html=1;strokeColor=none;fillColor=none;align=left;verticalAlign=top;spacingLeft=4;spacingRight=4;whiteSpace=wrap;overflow=hidden;rotatable=0;points=[[0,0.5],[1,0.5]];portConstraint=eastwest;fontColor=#5C5C5C;" parent="Lo34l0AC3N942EHVy-g1-36" vertex="1">
          <mxGeometry y="260" width="230" height="25" as="geometry" />
        </mxCell>
        <mxCell id="Lo34l0AC3N942EHVy-g1-47" value="" style="edgeStyle=elbowEdgeStyle;elbow=horizontal;endArrow=classic;html=1;exitX=1;exitY=0.5;exitDx=0;exitDy=0;strokeColor=#006658;fontColor=#5C5C5C;" parent="1" source="Lo34l0AC3N942EHVy-g1-2" target="Lo34l0AC3N942EHVy-g1-40" edge="1">
          <mxGeometry width="50" height="50" relative="1" as="geometry">
            <mxPoint x="520" y="500" as="sourcePoint" />
            <mxPoint x="570" y="450" as="targetPoint" />
            <Array as="points">
              <mxPoint x="290" y="220" />
            </Array>
          </mxGeometry>
        </mxCell>
        <mxCell id="Lo34l0AC3N942EHVy-g1-48" value="devices 设备表" style="swimlane;html=1;fontStyle=1;align=center;verticalAlign=top;childLayout=stackLayout;horizontal=1;startSize=26;horizontalStack=0;resizeParent=1;resizeLast=0;collapsible=1;marginBottom=0;swimlaneFillColor=#ffffff;rounded=0;shadow=0;comic=0;labelBackgroundColor=none;strokeWidth=1;fillColor=none;fontFamily=Verdana;fontSize=12;strokeColor=#006658;fontColor=#5C5C5C;" parent="1" vertex="1">
          <mxGeometry x="630" y="720" width="160" height="160" as="geometry">
            <mxRectangle x="50" y="130" width="70" height="26" as="alternateBounds" />
          </mxGeometry>
        </mxCell>
        <mxCell id="Lo34l0AC3N942EHVy-g1-49" value="id&lt;br&gt;" style="text;html=1;strokeColor=none;fillColor=none;align=left;verticalAlign=top;spacingLeft=4;spacingRight=4;whiteSpace=wrap;overflow=hidden;rotatable=0;points=[[0,0.5],[1,0.5]];portConstraint=eastwest;fontColor=#5C5C5C;" parent="Lo34l0AC3N942EHVy-g1-48" vertex="1">
          <mxGeometry y="26" width="160" height="26" as="geometry" />
        </mxCell>
        <mxCell id="Lo34l0AC3N942EHVy-g1-50" value="mac string mac地址" style="text;html=1;strokeColor=none;fillColor=none;align=left;verticalAlign=top;spacingLeft=4;spacingRight=4;whiteSpace=wrap;overflow=hidden;rotatable=0;points=[[0,0.5],[1,0.5]];portConstraint=eastwest;fontColor=#5C5C5C;" parent="Lo34l0AC3N942EHVy-g1-48" vertex="1">
          <mxGeometry y="52" width="160" height="26" as="geometry" />
        </mxCell>
        <mxCell id="Lo34l0AC3N942EHVy-g1-51" value="uid int 用户id" style="text;html=1;strokeColor=none;fillColor=none;align=left;verticalAlign=top;spacingLeft=4;spacingRight=4;whiteSpace=wrap;overflow=hidden;rotatable=0;points=[[0,0.5],[1,0.5]];portConstraint=eastwest;fontColor=#5C5C5C;" parent="Lo34l0AC3N942EHVy-g1-48" vertex="1">
          <mxGeometry y="78" width="160" height="26" as="geometry" />
        </mxCell>
        <mxCell id="Lo34l0AC3N942EHVy-g1-52" value="state bool 是否启用" style="text;html=1;strokeColor=none;fillColor=none;align=left;verticalAlign=top;spacingLeft=4;spacingRight=4;whiteSpace=wrap;overflow=hidden;rotatable=0;points=[[0,0.5],[1,0.5]];portConstraint=eastwest;fontColor=#5C5C5C;" parent="Lo34l0AC3N942EHVy-g1-48" vertex="1">
          <mxGeometry y="104" width="160" height="26" as="geometry" />
        </mxCell>
        <mxCell id="Lo34l0AC3N942EHVy-g1-53" value="" style="edgeStyle=elbowEdgeStyle;elbow=horizontal;endArrow=classic;html=1;strokeColor=#006658;fontColor=#5C5C5C;" parent="1" source="Lo34l0AC3N942EHVy-g1-51" edge="1">
          <mxGeometry width="50" height="50" relative="1" as="geometry">
            <mxPoint x="520" y="540" as="sourcePoint" />
            <mxPoint x="220" y="160" as="targetPoint" />
            <Array as="points">
              <mxPoint x="280" y="390" />
              <mxPoint x="410" y="750" />
              <mxPoint x="310" y="230" />
            </Array>
          </mxGeometry>
        </mxCell>
        <mxCell id="Lo34l0AC3N942EHVy-g1-54" value="steels 型钢表" style="swimlane;html=1;fontStyle=1;align=center;verticalAlign=top;childLayout=stackLayout;horizontal=1;startSize=26;horizontalStack=0;resizeParent=1;resizeLast=0;collapsible=1;marginBottom=0;swimlaneFillColor=#ffffff;rounded=0;shadow=0;comic=0;labelBackgroundColor=none;strokeWidth=1;fillColor=none;fontFamily=Verdana;fontSize=12;strokeColor=#006658;fontColor=#5C5C5C;" parent="1" vertex="1">
          <mxGeometry x="900" y="540" width="230" height="490" as="geometry">
            <mxRectangle x="50" y="130" width="70" height="26" as="alternateBounds" />
          </mxGeometry>
        </mxCell>
        <mxCell id="Lo34l0AC3N942EHVy-g1-55" value="id&lt;br&gt;" style="text;html=1;strokeColor=none;fillColor=none;align=left;verticalAlign=top;spacingLeft=4;spacingRight=4;whiteSpace=wrap;overflow=hidden;rotatable=0;points=[[0,0.5],[1,0.5]];portConstraint=eastwest;fontColor=#5C5C5C;" parent="Lo34l0AC3N942EHVy-g1-54" vertex="1">
          <mxGeometry y="26" width="230" height="26" as="geometry" />
        </mxCell>
        <mxCell id="Lo34l0AC3N942EHVy-g1-56" value="identifier string 识别码" style="text;html=1;strokeColor=none;fillColor=none;align=left;verticalAlign=top;spacingLeft=4;spacingRight=4;whiteSpace=wrap;overflow=hidden;rotatable=0;points=[[0,0.5],[1,0.5]];portConstraint=eastwest;fontColor=#5C5C5C;" parent="Lo34l0AC3N942EHVy-g1-54" vertex="1">
          <mxGeometry y="52" width="230" height="26" as="geometry" />
        </mxCell>
        <mxCell id="Lo34l0AC3N942EHVy-g1-57" value="createdUid int 入库用户id" style="text;html=1;strokeColor=none;fillColor=none;align=left;verticalAlign=top;spacingLeft=4;spacingRight=4;whiteSpace=wrap;overflow=hidden;rotatable=0;points=[[0,0.5],[1,0.5]];portConstraint=eastwest;fontColor=#5C5C5C;" parent="Lo34l0AC3N942EHVy-g1-54" vertex="1">
          <mxGeometry y="78" width="230" height="26" as="geometry" />
        </mxCell>
        <mxCell id="Lo34l0AC3N942EHVy-g1-58" value="state int 状态 0在库 101-104在项目中201-204在维修中 301 废弃" style="text;html=1;strokeColor=none;fillColor=none;align=left;verticalAlign=top;spacingLeft=4;spacingRight=4;whiteSpace=wrap;overflow=hidden;rotatable=0;points=[[0,0.5],[1,0.5]];portConstraint=eastwest;fontColor=#5C5C5C;" parent="Lo34l0AC3N942EHVy-g1-54" vertex="1">
          <mxGeometry y="104" width="230" height="36" as="geometry" />
        </mxCell>
        <mxCell id="Lo34l0AC3N942EHVy-g1-59" value="specificationInfoId int 规格id" style="text;html=1;strokeColor=none;fillColor=none;align=left;verticalAlign=top;spacingLeft=4;spacingRight=4;whiteSpace=wrap;overflow=hidden;rotatable=0;points=[[0,0.5],[1,0.5]];portConstraint=eastwest;fontColor=#5C5C5C;" parent="Lo34l0AC3N942EHVy-g1-54" vertex="1">
          <mxGeometry y="140" width="230" height="30" as="geometry" />
        </mxCell>
        <mxCell id="Lo34l0AC3N942EHVy-g1-60" value="companyId int 公司id" style="text;html=1;strokeColor=none;fillColor=none;align=left;verticalAlign=top;spacingLeft=4;spacingRight=4;whiteSpace=wrap;overflow=hidden;rotatable=0;points=[[0,0.5],[1,0.5]];portConstraint=eastwest;fontColor=#5C5C5C;" parent="Lo34l0AC3N942EHVy-g1-54" vertex="1">
          <mxGeometry y="170" width="230" height="30" as="geometry" />
        </mxCell>
        <mxCell id="Lo34l0AC3N942EHVy-g1-61" value="repositoryId&amp;nbsp; int 存放的仓库id" style="text;html=1;strokeColor=none;fillColor=none;align=left;verticalAlign=top;spacingLeft=4;spacingRight=4;whiteSpace=wrap;overflow=hidden;rotatable=0;points=[[0,0.5],[1,0.5]];portConstraint=eastwest;fontColor=#5C5C5C;" parent="Lo34l0AC3N942EHVy-g1-54" vertex="1">
          <mxGeometry y="200" width="230" height="30" as="geometry" />
        </mxCell>
        <mxCell id="Lo34l0AC3N942EHVy-g1-62" value="&lt;meta charset=&quot;utf-8&quot;&gt;&lt;span style=&quot;color: rgb(0, 0, 0); font-family: helvetica; font-size: 12px; font-style: normal; font-weight: 400; letter-spacing: normal; text-align: left; text-indent: 0px; text-transform: none; word-spacing: 0px; background-color: rgb(248, 249, 250); display: inline; float: none;&quot;&gt;materialManufacturerId int 材料商id&lt;/span&gt;" style="text;html=1;strokeColor=none;fillColor=none;align=left;verticalAlign=top;spacingLeft=4;spacingRight=4;whiteSpace=wrap;overflow=hidden;rotatable=0;points=[[0,0.5],[1,0.5]];portConstraint=eastwest;fontColor=#5C5C5C;" parent="Lo34l0AC3N942EHVy-g1-54" vertex="1">
          <mxGeometry y="230" width="230" height="30" as="geometry" />
        </mxCell>
        <mxCell id="Lo34l0AC3N942EHVy-g1-63" value="&lt;font face=&quot;helvetica&quot;&gt;manufacturerId int 制造商id&lt;/font&gt;" style="text;html=1;strokeColor=none;fillColor=none;align=left;verticalAlign=top;spacingLeft=4;spacingRight=4;whiteSpace=wrap;overflow=hidden;rotatable=0;points=[[0,0.5],[1,0.5]];portConstraint=eastwest;fontColor=#5C5C5C;" parent="Lo34l0AC3N942EHVy-g1-54" vertex="1">
          <mxGeometry y="260" width="230" height="30" as="geometry" />
        </mxCell>
        <mxCell id="Lo34l0AC3N942EHVy-g1-64" value="&lt;font face=&quot;helvetica&quot;&gt;turnover int 流转次数&lt;/font&gt;" style="text;html=1;strokeColor=none;fillColor=none;align=left;verticalAlign=top;spacingLeft=4;spacingRight=4;whiteSpace=wrap;overflow=hidden;rotatable=0;points=[[0,0.5],[1,0.5]];portConstraint=eastwest;fontColor=#5C5C5C;" parent="Lo34l0AC3N942EHVy-g1-54" vertex="1">
          <mxGeometry y="290" width="230" height="30" as="geometry" />
        </mxCell>
        <mxCell id="Lo34l0AC3N942EHVy-g1-65" value="&lt;font face=&quot;helvetica&quot;&gt;usageYearRate float 年&lt;/font&gt;&lt;span style=&quot;font-family: &amp;#34;helvetica&amp;#34;&quot;&gt;使用率&lt;/span&gt;" style="text;html=1;strokeColor=none;fillColor=none;align=left;verticalAlign=top;spacingLeft=4;spacingRight=4;whiteSpace=wrap;overflow=hidden;rotatable=0;points=[[0,0.5],[1,0.5]];portConstraint=eastwest;fontColor=#5C5C5C;" parent="Lo34l0AC3N942EHVy-g1-54" vertex="1">
          <mxGeometry y="320" width="230" height="30" as="geometry" />
        </mxCell>
        <mxCell id="Lo34l0AC3N942EHVy-g1-66" value="&lt;font face=&quot;helvetica&quot;&gt;totalUsageRate float 总使用率&lt;/font&gt;" style="text;html=1;strokeColor=none;fillColor=none;align=left;verticalAlign=top;spacingLeft=4;spacingRight=4;whiteSpace=wrap;overflow=hidden;rotatable=0;points=[[0,0.5],[1,0.5]];portConstraint=eastwest;fontColor=#5C5C5C;" parent="Lo34l0AC3N942EHVy-g1-54" vertex="1">
          <mxGeometry y="350" width="230" height="30" as="geometry" />
        </mxCell>
        <mxCell id="Lo34l0AC3N942EHVy-g1-67" value="&lt;font face=&quot;helvetica&quot;&gt;producerDate time 生产时间&lt;/font&gt;" style="text;html=1;strokeColor=none;fillColor=none;align=left;verticalAlign=top;spacingLeft=4;spacingRight=4;whiteSpace=wrap;overflow=hidden;rotatable=0;points=[[0,0.5],[1,0.5]];portConstraint=eastwest;fontColor=#5C5C5C;" parent="Lo34l0AC3N942EHVy-g1-54" vertex="1">
          <mxGeometry y="380" width="230" height="30" as="geometry" />
        </mxCell>
        <mxCell id="GDIwni2DHDVu9HZYN4bw-1" value="&lt;font face=&quot;helvetica&quot;&gt;maintenance_record_steel_id 当前维修型钢详情id&lt;br&gt;&lt;br&gt;&lt;/font&gt;" style="text;html=1;strokeColor=none;fillColor=none;align=left;verticalAlign=top;spacingLeft=4;spacingRight=4;whiteSpace=wrap;overflow=hidden;rotatable=0;points=[[0,0.5],[1,0.5]];portConstraint=eastwest;fontColor=#5C5C5C;" vertex="1" parent="Lo34l0AC3N942EHVy-g1-54">
          <mxGeometry y="410" width="230" height="30" as="geometry" />
        </mxCell>
        <mxCell id="GDIwni2DHDVu9HZYN4bw-2" value="&lt;font face=&quot;helvetica&quot;&gt;orderSpecificationSteelId&amp;nbsp; 订单详情id&lt;br&gt;&lt;/font&gt;" style="text;html=1;strokeColor=none;fillColor=none;align=left;verticalAlign=top;spacingLeft=4;spacingRight=4;whiteSpace=wrap;overflow=hidden;rotatable=0;points=[[0,0.5],[1,0.5]];portConstraint=eastwest;fontColor=#5C5C5C;" vertex="1" parent="Lo34l0AC3N942EHVy-g1-54">
          <mxGeometry y="440" width="230" height="30" as="geometry" />
        </mxCell>
        <mxCell id="Lo34l0AC3N942EHVy-g1-68" value="" style="edgeStyle=segmentEdgeStyle;endArrow=classic;html=1;strokeColor=#006658;fontColor=#5C5C5C;" parent="1" source="Lo34l0AC3N942EHVy-g1-57" edge="1">
          <mxGeometry width="50" height="50" relative="1" as="geometry">
            <mxPoint x="830" y="610" as="sourcePoint" />
            <mxPoint x="220" y="160" as="targetPoint" />
            <Array as="points">
              <mxPoint x="600" y="621" />
              <mxPoint x="600" y="400" />
              <mxPoint x="260" y="400" />
              <mxPoint x="260" y="160" />
            </Array>
          </mxGeometry>
        </mxCell>
        <mxCell id="Lo34l0AC3N942EHVy-g1-69" value="specification_infos 规格表" style="swimlane;html=1;fontStyle=1;align=center;verticalAlign=top;childLayout=stackLayout;horizontal=1;startSize=26;horizontalStack=0;resizeParent=1;resizeLast=0;collapsible=1;marginBottom=0;swimlaneFillColor=#ffffff;rounded=0;shadow=0;comic=0;labelBackgroundColor=none;strokeWidth=1;fillColor=none;fontFamily=Verdana;fontSize=12;strokeColor=#006658;fontColor=#5C5C5C;" parent="1" vertex="1">
          <mxGeometry x="200" y="840" width="230" height="180" as="geometry">
            <mxRectangle x="50" y="130" width="70" height="26" as="alternateBounds" />
          </mxGeometry>
        </mxCell>
        <mxCell id="Lo34l0AC3N942EHVy-g1-70" value="id&lt;br&gt;" style="text;html=1;strokeColor=none;fillColor=none;align=left;verticalAlign=top;spacingLeft=4;spacingRight=4;whiteSpace=wrap;overflow=hidden;rotatable=0;points=[[0,0.5],[1,0.5]];portConstraint=eastwest;fontColor=#5C5C5C;" parent="Lo34l0AC3N942EHVy-g1-69" vertex="1">
          <mxGeometry y="26" width="230" height="26" as="geometry" />
        </mxCell>
        <mxCell id="Lo34l0AC3N942EHVy-g1-71" value="type string 类型" style="text;html=1;strokeColor=none;fillColor=none;align=left;verticalAlign=top;spacingLeft=4;spacingRight=4;whiteSpace=wrap;overflow=hidden;rotatable=0;points=[[0,0.5],[1,0.5]];portConstraint=eastwest;fontColor=#5C5C5C;" parent="Lo34l0AC3N942EHVy-g1-69" vertex="1">
          <mxGeometry y="52" width="230" height="26" as="geometry" />
        </mxCell>
        <mxCell id="Lo34l0AC3N942EHVy-g1-72" value="length float 长度m" style="text;html=1;strokeColor=none;fillColor=none;align=left;verticalAlign=top;spacingLeft=4;spacingRight=4;whiteSpace=wrap;overflow=hidden;rotatable=0;points=[[0,0.5],[1,0.5]];portConstraint=eastwest;fontColor=#5C5C5C;" parent="Lo34l0AC3N942EHVy-g1-69" vertex="1">
          <mxGeometry y="78" width="230" height="26" as="geometry" />
        </mxCell>
        <mxCell id="Lo34l0AC3N942EHVy-g1-73" value="weight&amp;nbsp; float 重量t" style="text;html=1;strokeColor=none;fillColor=none;align=left;verticalAlign=top;spacingLeft=4;spacingRight=4;whiteSpace=wrap;overflow=hidden;rotatable=0;points=[[0,0.5],[1,0.5]];portConstraint=eastwest;fontColor=#5C5C5C;" parent="Lo34l0AC3N942EHVy-g1-69" vertex="1">
          <mxGeometry y="104" width="230" height="26" as="geometry" />
        </mxCell>
        <mxCell id="Lo34l0AC3N942EHVy-g1-74" value="isDefault bool 是否默认" style="text;html=1;strokeColor=none;fillColor=none;align=left;verticalAlign=top;spacingLeft=4;spacingRight=4;whiteSpace=wrap;overflow=hidden;rotatable=0;points=[[0,0.5],[1,0.5]];portConstraint=eastwest;fontColor=#5C5C5C;" parent="Lo34l0AC3N942EHVy-g1-69" vertex="1">
          <mxGeometry y="130" width="230" height="20" as="geometry" />
        </mxCell>
        <mxCell id="Lo34l0AC3N942EHVy-g1-75" value="companyId int 公司id" style="text;html=1;strokeColor=none;fillColor=none;align=left;verticalAlign=top;spacingLeft=4;spacingRight=4;whiteSpace=wrap;overflow=hidden;rotatable=0;points=[[0,0.5],[1,0.5]];portConstraint=eastwest;fontColor=#5C5C5C;" parent="Lo34l0AC3N942EHVy-g1-69" vertex="1">
          <mxGeometry y="150" width="230" height="20" as="geometry" />
        </mxCell>
        <mxCell id="Lo34l0AC3N942EHVy-g1-76" value="" style="edgeStyle=elbowEdgeStyle;elbow=horizontal;endArrow=classic;html=1;exitX=0;exitY=0.5;exitDx=0;exitDy=0;exitPerimeter=0;strokeColor=#006658;fontColor=#5C5C5C;" parent="1" source="Lo34l0AC3N942EHVy-g1-74" target="Lo34l0AC3N942EHVy-g1-17" edge="1">
          <mxGeometry width="50" height="50" relative="1" as="geometry">
            <mxPoint x="590" y="770" as="sourcePoint" />
            <mxPoint x="640" y="720" as="targetPoint" />
            <Array as="points">
              <mxPoint x="190" y="710" />
            </Array>
          </mxGeometry>
        </mxCell>
        <mxCell id="Lo34l0AC3N942EHVy-g1-77" value="" style="edgeStyle=segmentEdgeStyle;endArrow=classic;html=1;strokeColor=#006658;fontColor=#5C5C5C;" parent="1" source="Lo34l0AC3N942EHVy-g1-59" edge="1">
          <mxGeometry width="50" height="50" relative="1" as="geometry">
            <mxPoint x="600" y="560" as="sourcePoint" />
            <mxPoint x="430" y="880" as="targetPoint" />
            <Array as="points">
              <mxPoint x="890" y="695" />
              <mxPoint x="890" y="910" />
              <mxPoint x="460" y="910" />
              <mxPoint x="460" y="880" />
            </Array>
          </mxGeometry>
        </mxCell>
        <mxCell id="Lo34l0AC3N942EHVy-g1-78" value="" style="edgeStyle=segmentEdgeStyle;endArrow=classic;html=1;entryX=1;entryY=0.5;entryDx=0;entryDy=0;strokeColor=#006658;fontColor=#5C5C5C;" parent="1" source="Lo34l0AC3N942EHVy-g1-60" target="Lo34l0AC3N942EHVy-g1-17" edge="1">
          <mxGeometry width="50" height="50" relative="1" as="geometry">
            <mxPoint x="640" y="680" as="sourcePoint" />
            <mxPoint x="690" y="630" as="targetPoint" />
            <Array as="points">
              <mxPoint x="870" y="725" />
              <mxPoint x="870" y="690" />
              <mxPoint x="590" y="690" />
              <mxPoint x="590" y="519" />
            </Array>
          </mxGeometry>
        </mxCell>
        <mxCell id="Lo34l0AC3N942EHVy-g1-79" value="" style="edgeStyle=segmentEdgeStyle;endArrow=classic;html=1;entryX=0.996;entryY=0.077;entryDx=0;entryDy=0;entryPerimeter=0;strokeColor=#006658;fontColor=#5C5C5C;" parent="1" source="Lo34l0AC3N942EHVy-g1-61" target="Lo34l0AC3N942EHVy-g1-37" edge="1">
          <mxGeometry width="50" height="50" relative="1" as="geometry">
            <mxPoint x="640" y="740" as="sourcePoint" />
            <mxPoint x="690" y="690" as="targetPoint" />
            <Array as="points">
              <mxPoint x="870" y="755" />
              <mxPoint x="870" y="228" />
            </Array>
          </mxGeometry>
        </mxCell>
        <mxCell id="Lo34l0AC3N942EHVy-g1-80" value="" style="edgeStyle=elbowEdgeStyle;elbow=horizontal;endArrow=classic;html=1;entryX=1;entryY=0.5;entryDx=0;entryDy=0;strokeColor=#006658;fontColor=#5C5C5C;" parent="1" source="Lo34l0AC3N942EHVy-g1-62" target="Lo34l0AC3N942EHVy-g1-82" edge="1">
          <mxGeometry width="50" height="50" relative="1" as="geometry">
            <mxPoint x="640" y="700" as="sourcePoint" />
            <mxPoint x="690" y="990" as="targetPoint" />
            <Array as="points">
              <mxPoint x="880" y="950" />
            </Array>
          </mxGeometry>
        </mxCell>
        <mxCell id="Lo34l0AC3N942EHVy-g1-81" value="codeinfo 码表" style="swimlane;html=1;fontStyle=1;align=center;verticalAlign=top;childLayout=stackLayout;horizontal=1;startSize=26;horizontalStack=0;resizeParent=1;resizeLast=0;collapsible=1;marginBottom=0;swimlaneFillColor=#ffffff;rounded=0;shadow=0;comic=0;labelBackgroundColor=none;strokeWidth=1;fillColor=none;fontFamily=Verdana;fontSize=12;strokeColor=#006658;fontColor=#5C5C5C;" parent="1" vertex="1">
          <mxGeometry x="460" y="990" width="230" height="180" as="geometry">
            <mxRectangle x="50" y="130" width="70" height="26" as="alternateBounds" />
          </mxGeometry>
        </mxCell>
        <mxCell id="Lo34l0AC3N942EHVy-g1-82" value="id&lt;br&gt;" style="text;html=1;strokeColor=none;fillColor=none;align=left;verticalAlign=top;spacingLeft=4;spacingRight=4;whiteSpace=wrap;overflow=hidden;rotatable=0;points=[[0,0.5],[1,0.5]];portConstraint=eastwest;fontColor=#5C5C5C;" parent="Lo34l0AC3N942EHVy-g1-81" vertex="1">
          <mxGeometry y="26" width="230" height="26" as="geometry" />
        </mxCell>
        <mxCell id="Lo34l0AC3N942EHVy-g1-83" value="type string 类型" style="text;html=1;strokeColor=none;fillColor=none;align=left;verticalAlign=top;spacingLeft=4;spacingRight=4;whiteSpace=wrap;overflow=hidden;rotatable=0;points=[[0,0.5],[1,0.5]];portConstraint=eastwest;fontColor=#5C5C5C;" parent="Lo34l0AC3N942EHVy-g1-81" vertex="1">
          <mxGeometry y="52" width="230" height="26" as="geometry" />
        </mxCell>
        <mxCell id="Lo34l0AC3N942EHVy-g1-84" value="Name string&amp;nbsp; 厂商名称" style="text;html=1;strokeColor=none;fillColor=none;align=left;verticalAlign=top;spacingLeft=4;spacingRight=4;whiteSpace=wrap;overflow=hidden;rotatable=0;points=[[0,0.5],[1,0.5]];portConstraint=eastwest;fontColor=#5C5C5C;" parent="Lo34l0AC3N942EHVy-g1-81" vertex="1">
          <mxGeometry y="78" width="230" height="26" as="geometry" />
        </mxCell>
        <mxCell id="Lo34l0AC3N942EHVy-g1-85" value="remark string&amp;nbsp; 备注" style="text;html=1;strokeColor=none;fillColor=none;align=left;verticalAlign=top;spacingLeft=4;spacingRight=4;whiteSpace=wrap;overflow=hidden;rotatable=0;points=[[0,0.5],[1,0.5]];portConstraint=eastwest;fontColor=#5C5C5C;" parent="Lo34l0AC3N942EHVy-g1-81" vertex="1">
          <mxGeometry y="104" width="230" height="26" as="geometry" />
        </mxCell>
        <mxCell id="Lo34l0AC3N942EHVy-g1-86" value="isDefault bool 是否默认" style="text;html=1;strokeColor=none;fillColor=none;align=left;verticalAlign=top;spacingLeft=4;spacingRight=4;whiteSpace=wrap;overflow=hidden;rotatable=0;points=[[0,0.5],[1,0.5]];portConstraint=eastwest;fontColor=#5C5C5C;" parent="Lo34l0AC3N942EHVy-g1-81" vertex="1">
          <mxGeometry y="130" width="230" height="20" as="geometry" />
        </mxCell>
        <mxCell id="Lo34l0AC3N942EHVy-g1-87" value="companyId int 公司id" style="text;html=1;strokeColor=none;fillColor=none;align=left;verticalAlign=top;spacingLeft=4;spacingRight=4;whiteSpace=wrap;overflow=hidden;rotatable=0;points=[[0,0.5],[1,0.5]];portConstraint=eastwest;fontColor=#5C5C5C;" parent="Lo34l0AC3N942EHVy-g1-81" vertex="1">
          <mxGeometry y="150" width="230" height="20" as="geometry" />
        </mxCell>
        <mxCell id="Lo34l0AC3N942EHVy-g1-88" value="" style="edgeStyle=orthogonalEdgeStyle;endArrow=classic;html=1;exitX=0;exitY=0.5;exitDx=0;exitDy=0;exitPerimeter=0;strokeColor=#006658;fontColor=#5C5C5C;" parent="1" source="Lo34l0AC3N942EHVy-g1-86" target="Lo34l0AC3N942EHVy-g1-17" edge="1">
          <mxGeometry width="50" height="50" relative="1" as="geometry">
            <mxPoint x="640" y="860" as="sourcePoint" />
            <mxPoint x="580" y="519" as="targetPoint" />
          </mxGeometry>
        </mxCell>
        <mxCell id="Lo34l0AC3N942EHVy-g1-89" value="" style="endArrow=classic;html=1;exitX=0;exitY=0.5;exitDx=0;exitDy=0;entryX=1;entryY=0.5;entryDx=0;entryDy=0;edgeStyle=elbowEdgeStyle;strokeColor=#006658;fontColor=#5C5C5C;" parent="1" source="Lo34l0AC3N942EHVy-g1-63" target="Lo34l0AC3N942EHVy-g1-82" edge="1">
          <mxGeometry width="50" height="50" relative="1" as="geometry">
            <mxPoint x="640" y="920" as="sourcePoint" />
            <mxPoint x="690" y="870" as="targetPoint" />
            <Array as="points">
              <mxPoint x="870" y="920" />
            </Array>
          </mxGeometry>
        </mxCell>
        <mxCell id="Lo34l0AC3N942EHVy-g1-90" value="&lt;br&gt;" style="edgeLabel;html=1;align=center;verticalAlign=middle;resizable=0;points=[];fontColor=#5C5C5C;" parent="Lo34l0AC3N942EHVy-g1-89" vertex="1" connectable="0">
          <mxGeometry x="-0.8491" y="-1" relative="1" as="geometry">
            <mxPoint as="offset" />
          </mxGeometry>
        </mxCell>
        <mxCell id="Lo34l0AC3N942EHVy-g1-91" value="&lt;br&gt;" style="edgeLabel;html=1;align=center;verticalAlign=middle;resizable=0;points=[];fontColor=#5C5C5C;" parent="Lo34l0AC3N942EHVy-g1-89" vertex="1" connectable="0">
          <mxGeometry x="-0.9057" y="-2" relative="1" as="geometry">
            <mxPoint as="offset" />
          </mxGeometry>
        </mxCell>
        <mxCell id="Lo34l0AC3N942EHVy-g1-92" value="projects 项目表" style="swimlane;html=1;fontStyle=1;align=center;verticalAlign=top;childLayout=stackLayout;horizontal=1;startSize=26;horizontalStack=0;resizeParent=1;resizeLast=0;collapsible=1;marginBottom=0;swimlaneFillColor=#ffffff;rounded=0;shadow=0;comic=0;labelBackgroundColor=none;strokeWidth=1;fillColor=none;fontFamily=Verdana;fontSize=12;strokeColor=#006658;fontColor=#5C5C5C;" parent="1" vertex="1">
          <mxGeometry x="40" y="1070" width="230" height="220" as="geometry">
            <mxRectangle x="50" y="130" width="70" height="26" as="alternateBounds" />
          </mxGeometry>
        </mxCell>
        <mxCell id="Lo34l0AC3N942EHVy-g1-93" value="id&lt;br&gt;" style="text;html=1;strokeColor=none;fillColor=none;align=left;verticalAlign=top;spacingLeft=4;spacingRight=4;whiteSpace=wrap;overflow=hidden;rotatable=0;points=[[0,0.5],[1,0.5]];portConstraint=eastwest;fontColor=#5C5C5C;" parent="Lo34l0AC3N942EHVy-g1-92" vertex="1">
          <mxGeometry y="26" width="230" height="26" as="geometry" />
        </mxCell>
        <mxCell id="Lo34l0AC3N942EHVy-g1-94" value="leaderUid int 负责人id" style="text;html=1;strokeColor=none;fillColor=none;align=left;verticalAlign=top;spacingLeft=4;spacingRight=4;whiteSpace=wrap;overflow=hidden;rotatable=0;points=[[0,0.5],[1,0.5]];portConstraint=eastwest;fontColor=#5C5C5C;" parent="Lo34l0AC3N942EHVy-g1-92" vertex="1">
          <mxGeometry y="52" width="230" height="26" as="geometry" />
        </mxCell>
        <mxCell id="Lo34l0AC3N942EHVy-g1-95" value="city string 城市" style="text;html=1;strokeColor=none;fillColor=none;align=left;verticalAlign=top;spacingLeft=4;spacingRight=4;whiteSpace=wrap;overflow=hidden;rotatable=0;points=[[0,0.5],[1,0.5]];portConstraint=eastwest;fontColor=#5C5C5C;" parent="Lo34l0AC3N942EHVy-g1-92" vertex="1">
          <mxGeometry y="78" width="230" height="26" as="geometry" />
        </mxCell>
        <mxCell id="Lo34l0AC3N942EHVy-g1-96" value="address string 地址" style="text;html=1;strokeColor=none;fillColor=none;align=left;verticalAlign=top;spacingLeft=4;spacingRight=4;whiteSpace=wrap;overflow=hidden;rotatable=0;points=[[0,0.5],[1,0.5]];portConstraint=eastwest;fontColor=#5C5C5C;" parent="Lo34l0AC3N942EHVy-g1-92" vertex="1">
          <mxGeometry y="104" width="230" height="26" as="geometry" />
        </mxCell>
        <mxCell id="Lo34l0AC3N942EHVy-g1-97" value="startedAt time 开始时间" style="text;html=1;strokeColor=none;fillColor=none;align=left;verticalAlign=top;spacingLeft=4;spacingRight=4;whiteSpace=wrap;overflow=hidden;rotatable=0;points=[[0,0.5],[1,0.5]];portConstraint=eastwest;fontColor=#5C5C5C;" parent="Lo34l0AC3N942EHVy-g1-92" vertex="1">
          <mxGeometry y="130" width="230" height="26" as="geometry" />
        </mxCell>
        <mxCell id="Lo34l0AC3N942EHVy-g1-98" value="endedAt time 结束时间" style="text;html=1;strokeColor=none;fillColor=none;align=left;verticalAlign=top;spacingLeft=4;spacingRight=4;whiteSpace=wrap;overflow=hidden;rotatable=0;points=[[0,0.5],[1,0.5]];portConstraint=eastwest;fontColor=#5C5C5C;" parent="Lo34l0AC3N942EHVy-g1-92" vertex="1">
          <mxGeometry y="156" width="230" height="26" as="geometry" />
        </mxCell>
        <mxCell id="Lo34l0AC3N942EHVy-g1-99" value="remark string 备注" style="text;html=1;strokeColor=none;fillColor=none;align=left;verticalAlign=top;spacingLeft=4;spacingRight=4;whiteSpace=wrap;overflow=hidden;rotatable=0;points=[[0,0.5],[1,0.5]];portConstraint=eastwest;fontColor=#5C5C5C;" parent="Lo34l0AC3N942EHVy-g1-92" vertex="1">
          <mxGeometry y="182" width="230" height="26" as="geometry" />
        </mxCell>
        <mxCell id="Lo34l0AC3N942EHVy-g1-100" value="" style="edgeStyle=orthogonalEdgeStyle;elbow=horizontal;endArrow=classic;html=1;exitX=0;exitY=0.5;exitDx=0;exitDy=0;entryX=1;entryY=0.5;entryDx=0;entryDy=0;strokeColor=#006658;fontColor=#5C5C5C;" parent="1" source="Lo34l0AC3N942EHVy-g1-94" target="Lo34l0AC3N942EHVy-g1-2" edge="1">
          <mxGeometry width="50" height="50" relative="1" as="geometry">
            <mxPoint x="640" y="1000" as="sourcePoint" />
            <mxPoint x="690" y="950" as="targetPoint" />
            <Array as="points">
              <mxPoint x="30" y="1135" />
              <mxPoint x="30" y="780" />
              <mxPoint x="230" y="780" />
              <mxPoint x="230" y="159" />
            </Array>
          </mxGeometry>
        </mxCell>
        <mxCell id="Lo34l0AC3N942EHVy-g1-101" value="project_records 项目详情表" style="swimlane;html=1;fontStyle=1;align=center;verticalAlign=top;childLayout=stackLayout;horizontal=1;startSize=26;horizontalStack=0;resizeParent=1;resizeLast=0;collapsible=1;marginBottom=0;swimlaneFillColor=#ffffff;rounded=0;shadow=0;comic=0;labelBackgroundColor=none;strokeWidth=1;fillColor=none;fontFamily=Verdana;fontSize=12;strokeColor=#006658;fontColor=#5C5C5C;" parent="1" vertex="1">
          <mxGeometry x="390" y="1220" width="230" height="300" as="geometry">
            <mxRectangle x="50" y="130" width="70" height="26" as="alternateBounds" />
          </mxGeometry>
        </mxCell>
        <mxCell id="Lo34l0AC3N942EHVy-g1-102" value="id&lt;br&gt;" style="text;html=1;strokeColor=none;fillColor=none;align=left;verticalAlign=top;spacingLeft=4;spacingRight=4;whiteSpace=wrap;overflow=hidden;rotatable=0;points=[[0,0.5],[1,0.5]];portConstraint=eastwest;fontColor=#5C5C5C;" parent="Lo34l0AC3N942EHVy-g1-101" vertex="1">
          <mxGeometry y="26" width="230" height="26" as="geometry" />
        </mxCell>
        <mxCell id="Lo34l0AC3N942EHVy-g1-103" value="project_id int 项目id" style="text;html=1;strokeColor=none;fillColor=none;align=left;verticalAlign=top;spacingLeft=4;spacingRight=4;whiteSpace=wrap;overflow=hidden;rotatable=0;points=[[0,0.5],[1,0.5]];portConstraint=eastwest;fontColor=#5C5C5C;" parent="Lo34l0AC3N942EHVy-g1-101" vertex="1">
          <mxGeometry y="52" width="230" height="26" as="geometry" />
        </mxCell>
        <mxCell id="Lo34l0AC3N942EHVy-g1-104" value="order_detail_id 订单详情id&lt;br&gt;" style="text;html=1;strokeColor=none;fillColor=none;align=left;verticalAlign=top;spacingLeft=4;spacingRight=4;whiteSpace=wrap;overflow=hidden;rotatable=0;points=[[0,0.5],[1,0.5]];portConstraint=eastwest;fontColor=#5C5C5C;" parent="Lo34l0AC3N942EHVy-g1-101" vertex="1">
          <mxGeometry y="78" width="230" height="26" as="geometry" />
        </mxCell>
        <mxCell id="Lo34l0AC3N942EHVy-g1-105" value="steel_id int 型钢id" style="text;html=1;strokeColor=none;fillColor=none;align=left;verticalAlign=top;spacingLeft=4;spacingRight=4;whiteSpace=wrap;overflow=hidden;rotatable=0;points=[[0,0.5],[1,0.5]];portConstraint=eastwest;fontColor=#5C5C5C;" parent="Lo34l0AC3N942EHVy-g1-101" vertex="1">
          <mxGeometry y="104" width="230" height="26" as="geometry" />
        </mxCell>
        <mxCell id="Lo34l0AC3N942EHVy-g1-106" value="out_repository_at time 出库时间" style="text;html=1;strokeColor=none;fillColor=none;align=left;verticalAlign=top;spacingLeft=4;spacingRight=4;whiteSpace=wrap;overflow=hidden;rotatable=0;points=[[0,0.5],[1,0.5]];portConstraint=eastwest;fontColor=#5C5C5C;" parent="Lo34l0AC3N942EHVy-g1-101" vertex="1">
          <mxGeometry y="130" width="230" height="26" as="geometry" />
        </mxCell>
        <mxCell id="Lo34l0AC3N942EHVy-g1-107" value="return_repository_at time 入库时间" style="text;html=1;strokeColor=none;fillColor=none;align=left;verticalAlign=top;spacingLeft=4;spacingRight=4;whiteSpace=wrap;overflow=hidden;rotatable=0;points=[[0,0.5],[1,0.5]];portConstraint=eastwest;fontColor=#5C5C5C;" parent="Lo34l0AC3N942EHVy-g1-101" vertex="1">
          <mxGeometry y="156" width="230" height="26" as="geometry" />
        </mxCell>
        <mxCell id="Lo34l0AC3N942EHVy-g1-108" value="return_site_at time 入场时间" style="text;html=1;strokeColor=none;fillColor=none;align=left;verticalAlign=top;spacingLeft=4;spacingRight=4;whiteSpace=wrap;overflow=hidden;rotatable=0;points=[[0,0.5],[1,0.5]];portConstraint=eastwest;fontColor=#5C5C5C;" parent="Lo34l0AC3N942EHVy-g1-101" vertex="1">
          <mxGeometry y="182" width="230" height="26" as="geometry" />
        </mxCell>
        <mxCell id="Lo34l0AC3N942EHVy-g1-109" value="out_site_at time 出场时间" style="text;html=1;strokeColor=none;fillColor=none;align=left;verticalAlign=top;spacingLeft=4;spacingRight=4;whiteSpace=wrap;overflow=hidden;rotatable=0;points=[[0,0.5],[1,0.5]];portConstraint=eastwest;fontColor=#5C5C5C;" parent="Lo34l0AC3N942EHVy-g1-101" vertex="1">
          <mxGeometry y="208" width="230" height="26" as="geometry" />
        </mxCell>
        <mxCell id="Lo34l0AC3N942EHVy-g1-110" value="install_no int 安装编码" style="text;html=1;strokeColor=none;fillColor=none;align=left;verticalAlign=top;spacingLeft=4;spacingRight=4;whiteSpace=wrap;overflow=hidden;rotatable=0;points=[[0,0.5],[1,0.5]];portConstraint=eastwest;fontColor=#5C5C5C;" parent="Lo34l0AC3N942EHVy-g1-101" vertex="1">
          <mxGeometry y="234" width="230" height="26" as="geometry" />
        </mxCell>
        <mxCell id="Lo34l0AC3N942EHVy-g1-111" value="installed_at time 安装时间" style="text;html=1;strokeColor=none;fillColor=none;align=left;verticalAlign=top;spacingLeft=4;spacingRight=4;whiteSpace=wrap;overflow=hidden;rotatable=0;points=[[0,0.5],[1,0.5]];portConstraint=eastwest;fontColor=#5C5C5C;" parent="Lo34l0AC3N942EHVy-g1-101" vertex="1">
          <mxGeometry y="260" width="230" height="26" as="geometry" />
        </mxCell>
        <mxCell id="Lo34l0AC3N942EHVy-g1-112" value="orders 订单表" style="swimlane;html=1;fontStyle=1;align=center;verticalAlign=top;childLayout=stackLayout;horizontal=1;startSize=26;horizontalStack=0;resizeParent=1;resizeLast=0;collapsible=1;marginBottom=0;swimlaneFillColor=#ffffff;rounded=0;shadow=0;comic=0;labelBackgroundColor=none;strokeWidth=1;fillColor=none;fontFamily=Verdana;fontSize=12;strokeColor=#006658;fontColor=#5C5C5C;" parent="1" vertex="1">
          <mxGeometry x="770" y="1155" width="240" height="470" as="geometry">
            <mxRectangle x="50" y="130" width="70" height="26" as="alternateBounds" />
          </mxGeometry>
        </mxCell>
        <mxCell id="Lo34l0AC3N942EHVy-g1-113" value="id&lt;br&gt;" style="text;html=1;strokeColor=none;fillColor=none;align=left;verticalAlign=top;spacingLeft=4;spacingRight=4;whiteSpace=wrap;overflow=hidden;rotatable=0;points=[[0,0.5],[1,0.5]];portConstraint=eastwest;fontColor=#5C5C5C;" parent="Lo34l0AC3N942EHVy-g1-112" vertex="1">
          <mxGeometry y="26" width="240" height="26" as="geometry" />
        </mxCell>
        <mxCell id="Lo34l0AC3N942EHVy-g1-114" value="project_id int 项目id" style="text;html=1;strokeColor=none;fillColor=none;align=left;verticalAlign=top;spacingLeft=4;spacingRight=4;whiteSpace=wrap;overflow=hidden;rotatable=0;points=[[0,0.5],[1,0.5]];portConstraint=eastwest;fontColor=#5C5C5C;" parent="Lo34l0AC3N942EHVy-g1-112" vertex="1">
          <mxGeometry y="52" width="240" height="26" as="geometry" />
        </mxCell>
        <mxCell id="Lo34l0AC3N942EHVy-g1-115" value="state int&amp;nbsp;&amp;nbsp;仓库状态100 待确认200 已确认300 已拒绝400 已发货500 待收货600 已收货(部分)700 已收货全部800 已归库" style="text;html=1;strokeColor=none;fillColor=none;align=left;verticalAlign=top;spacingLeft=4;spacingRight=4;whiteSpace=wrap;overflow=hidden;rotatable=0;points=[[0,0.5],[1,0.5]];portConstraint=eastwest;fontColor=#5C5C5C;" parent="Lo34l0AC3N942EHVy-g1-112" vertex="1">
          <mxGeometry y="78" width="240" height="42" as="geometry" />
        </mxCell>
        <mxCell id="Lo34l0AC3N942EHVy-g1-117" value="expected_return_at time 预计归还时间" style="text;html=1;strokeColor=none;fillColor=none;align=left;verticalAlign=top;spacingLeft=4;spacingRight=4;whiteSpace=wrap;overflow=hidden;rotatable=0;points=[[0,0.5],[1,0.5]];portConstraint=eastwest;fontColor=#5C5C5C;" parent="Lo34l0AC3N942EHVy-g1-112" vertex="1">
          <mxGeometry y="120" width="240" height="28" as="geometry" />
        </mxCell>
        <mxCell id="Lo34l0AC3N942EHVy-g1-118" value="part_list string 清单列表" style="text;html=1;strokeColor=none;fillColor=none;align=left;verticalAlign=top;spacingLeft=4;spacingRight=4;whiteSpace=wrap;overflow=hidden;rotatable=0;points=[[0,0.5],[1,0.5]];portConstraint=eastwest;fontColor=#5C5C5C;" parent="Lo34l0AC3N942EHVy-g1-112" vertex="1">
          <mxGeometry y="148" width="240" height="28" as="geometry" />
        </mxCell>
        <mxCell id="Lo34l0AC3N942EHVy-g1-119" value="create_uid int 创建人id" style="text;html=1;strokeColor=none;fillColor=none;align=left;verticalAlign=top;spacingLeft=4;spacingRight=4;whiteSpace=wrap;overflow=hidden;rotatable=0;points=[[0,0.5],[1,0.5]];portConstraint=eastwest;fontColor=#5C5C5C;" parent="Lo34l0AC3N942EHVy-g1-112" vertex="1">
          <mxGeometry y="176" width="240" height="28" as="geometry" />
        </mxCell>
        <mxCell id="Lo34l0AC3N942EHVy-g1-120" value="confirm_uid&amp;nbsp; int 确认人 id" style="text;html=1;strokeColor=none;fillColor=none;align=left;verticalAlign=top;spacingLeft=4;spacingRight=4;whiteSpace=wrap;overflow=hidden;rotatable=0;points=[[0,0.5],[1,0.5]];portConstraint=eastwest;fontColor=#5C5C5C;" parent="Lo34l0AC3N942EHVy-g1-112" vertex="1">
          <mxGeometry y="204" width="240" height="28" as="geometry" />
        </mxCell>
        <mxCell id="Lo34l0AC3N942EHVy-g1-121" value="sender_uid&amp;nbsp; int 发货人 id" style="text;html=1;strokeColor=none;fillColor=none;align=left;verticalAlign=top;spacingLeft=4;spacingRight=4;whiteSpace=wrap;overflow=hidden;rotatable=0;points=[[0,0.5],[1,0.5]];portConstraint=eastwest;fontColor=#5C5C5C;" parent="Lo34l0AC3N942EHVy-g1-112" vertex="1">
          <mxGeometry y="232" width="240" height="28" as="geometry" />
        </mxCell>
        <mxCell id="Lo34l0AC3N942EHVy-g1-122" value="confirmed_at&amp;nbsp; time 确认时间" style="text;html=1;strokeColor=none;fillColor=none;align=left;verticalAlign=top;spacingLeft=4;spacingRight=4;whiteSpace=wrap;overflow=hidden;rotatable=0;points=[[0,0.5],[1,0.5]];portConstraint=eastwest;fontColor=#5C5C5C;" parent="Lo34l0AC3N942EHVy-g1-112" vertex="1">
          <mxGeometry y="260" width="240" height="28" as="geometry" />
        </mxCell>
        <mxCell id="Lo34l0AC3N942EHVy-g1-123" value="reciver_uid int 收货人id" style="text;html=1;strokeColor=none;fillColor=none;align=left;verticalAlign=top;spacingLeft=4;spacingRight=4;whiteSpace=wrap;overflow=hidden;rotatable=0;points=[[0,0.5],[1,0.5]];portConstraint=eastwest;fontColor=#5C5C5C;" parent="Lo34l0AC3N942EHVy-g1-112" vertex="1">
          <mxGeometry y="288" width="240" height="28" as="geometry" />
        </mxCell>
        <mxCell id="Lo34l0AC3N942EHVy-g1-124" value="recive_at time 收货时间" style="text;html=1;strokeColor=none;fillColor=none;align=left;verticalAlign=top;spacingLeft=4;spacingRight=4;whiteSpace=wrap;overflow=hidden;rotatable=0;points=[[0,0.5],[1,0.5]];portConstraint=eastwest;fontColor=#5C5C5C;" parent="Lo34l0AC3N942EHVy-g1-112" vertex="1">
          <mxGeometry y="316" width="240" height="28" as="geometry" />
        </mxCell>
        <mxCell id="Lo34l0AC3N942EHVy-g1-125" value="express_company_id int 码表的运输公司id" style="text;html=1;strokeColor=none;fillColor=none;align=left;verticalAlign=top;spacingLeft=4;spacingRight=4;whiteSpace=wrap;overflow=hidden;rotatable=0;points=[[0,0.5],[1,0.5]];portConstraint=eastwest;fontColor=#5C5C5C;" parent="Lo34l0AC3N942EHVy-g1-112" vertex="1">
          <mxGeometry y="344" width="240" height="28" as="geometry" />
        </mxCell>
        <mxCell id="Lo34l0AC3N942EHVy-g1-126" value="express_no string&amp;nbsp; 物流号" style="text;html=1;strokeColor=none;fillColor=none;align=left;verticalAlign=top;spacingLeft=4;spacingRight=4;whiteSpace=wrap;overflow=hidden;rotatable=0;points=[[0,0.5],[1,0.5]];portConstraint=eastwest;fontColor=#5C5C5C;" parent="Lo34l0AC3N942EHVy-g1-112" vertex="1">
          <mxGeometry y="372" width="240" height="28" as="geometry" />
        </mxCell>
        <mxCell id="Lo34l0AC3N942EHVy-g1-127" value="remark string 备注" style="text;html=1;strokeColor=none;fillColor=none;align=left;verticalAlign=top;spacingLeft=4;spacingRight=4;whiteSpace=wrap;overflow=hidden;rotatable=0;points=[[0,0.5],[1,0.5]];portConstraint=eastwest;fontColor=#5C5C5C;" parent="Lo34l0AC3N942EHVy-g1-112" vertex="1">
          <mxGeometry y="400" width="240" height="28" as="geometry" />
        </mxCell>
        <mxCell id="Lo34l0AC3N942EHVy-g1-128" value="" style="edgeStyle=elbowEdgeStyle;elbow=horizontal;endArrow=classic;html=1;entryX=1;entryY=0.5;entryDx=0;entryDy=0;strokeColor=#006658;fontColor=#5C5C5C;" parent="1" target="Lo34l0AC3N942EHVy-g1-93" edge="1">
          <mxGeometry width="50" height="50" relative="1" as="geometry">
            <mxPoint x="390" y="1260" as="sourcePoint" />
            <mxPoint x="690" y="1260" as="targetPoint" />
          </mxGeometry>
        </mxCell>
        <mxCell id="Lo34l0AC3N942EHVy-g1-129" value="" style="edgeStyle=orthogonalEdgeStyle;elbow=horizontal;endArrow=classic;html=1;exitX=0;exitY=0.5;exitDx=0;exitDy=0;entryX=1;entryY=0.5;entryDx=0;entryDy=0;strokeColor=#006658;fontColor=#5C5C5C;" parent="1" source="Lo34l0AC3N942EHVy-g1-114" target="Lo34l0AC3N942EHVy-g1-93" edge="1">
          <mxGeometry width="50" height="50" relative="1" as="geometry">
            <mxPoint x="640" y="1310" as="sourcePoint" />
            <mxPoint x="690" y="1260" as="targetPoint" />
          </mxGeometry>
        </mxCell>
        <mxCell id="Lo34l0AC3N942EHVy-g1-130" value="" style="edgeStyle=orthogonalEdgeStyle;elbow=horizontal;endArrow=classic;html=1;exitX=1;exitY=0.5;exitDx=0;exitDy=0;entryX=0.996;entryY=0.154;entryDx=0;entryDy=0;entryPerimeter=0;strokeColor=#006658;fontColor=#5C5C5C;" parent="1" source="Lo34l0AC3N942EHVy-g1-115" target="Lo34l0AC3N942EHVy-g1-37" edge="1">
          <mxGeometry width="50" height="50" relative="1" as="geometry">
            <mxPoint x="640" y="1290" as="sourcePoint" />
            <mxPoint x="690" y="1240" as="targetPoint" />
          </mxGeometry>
        </mxCell>
        <mxCell id="Lo34l0AC3N942EHVy-g1-131" value="" style="edgeStyle=orthogonalEdgeStyle;elbow=horizontal;endArrow=classic;html=1;exitX=0;exitY=0.5;exitDx=0;exitDy=0;entryX=1;entryY=0.5;entryDx=0;entryDy=0;strokeColor=#006658;fontColor=#5C5C5C;" parent="1" source="Lo34l0AC3N942EHVy-g1-119" target="Lo34l0AC3N942EHVy-g1-2" edge="1">
          <mxGeometry width="50" height="50" relative="1" as="geometry">
            <mxPoint x="1000" y="1290" as="sourcePoint" />
            <mxPoint x="1050" y="1240" as="targetPoint" />
            <Array as="points">
              <mxPoint x="370" y="1387" />
              <mxPoint x="370" y="159" />
            </Array>
          </mxGeometry>
        </mxCell>
        <mxCell id="Lo34l0AC3N942EHVy-g1-132" value="" style="edgeStyle=elbowEdgeStyle;elbow=horizontal;endArrow=classic;html=1;exitX=0;exitY=0.5;exitDx=0;exitDy=0;entryX=1;entryY=0.5;entryDx=0;entryDy=0;strokeColor=#006658;fontColor=#5C5C5C;" parent="1" source="Lo34l0AC3N942EHVy-g1-120" target="Lo34l0AC3N942EHVy-g1-2" edge="1">
          <mxGeometry width="50" height="50" relative="1" as="geometry">
            <mxPoint x="880" y="1410" as="sourcePoint" />
            <mxPoint x="930" y="1360" as="targetPoint" />
            <Array as="points">
              <mxPoint x="520" y="1480" />
              <mxPoint x="330" y="1330" />
              <mxPoint x="360" y="1550" />
              <mxPoint x="350" y="1210" />
            </Array>
          </mxGeometry>
        </mxCell>
        <mxCell id="Lo34l0AC3N942EHVy-g1-133" value="Text" style="edgeLabel;html=1;align=center;verticalAlign=middle;resizable=0;points=[];fontColor=#5C5C5C;" parent="Lo34l0AC3N942EHVy-g1-132" vertex="1" connectable="0">
          <mxGeometry x="-0.5831" y="-5" relative="1" as="geometry">
            <mxPoint as="offset" />
          </mxGeometry>
        </mxCell>
        <mxCell id="Lo34l0AC3N942EHVy-g1-134" value="Text" style="edgeLabel;html=1;align=center;verticalAlign=middle;resizable=0;points=[];fontColor=#5C5C5C;" parent="Lo34l0AC3N942EHVy-g1-132" vertex="1" connectable="0">
          <mxGeometry x="-0.611" y="4" relative="1" as="geometry">
            <mxPoint as="offset" />
          </mxGeometry>
        </mxCell>
        <mxCell id="Lo34l0AC3N942EHVy-g1-135" value="" style="edgeStyle=elbowEdgeStyle;elbow=horizontal;endArrow=classic;html=1;exitX=0;exitY=0.5;exitDx=0;exitDy=0;strokeColor=#006658;fontColor=#5C5C5C;startArrow=none;" parent="1" source="Lo34l0AC3N942EHVy-g1-110" edge="1">
          <mxGeometry width="50" height="50" relative="1" as="geometry">
            <mxPoint x="470" y="1290" as="sourcePoint" />
            <mxPoint x="220" y="157.24137931034483" as="targetPoint" />
            <Array as="points" />
          </mxGeometry>
        </mxCell>
        <mxCell id="Lo34l0AC3N942EHVy-g1-136" value="" style="edgeStyle=elbowEdgeStyle;elbow=horizontal;endArrow=classic;html=1;entryX=1;entryY=0.5;entryDx=0;entryDy=0;strokeColor=#006658;fontColor=#5C5C5C;" parent="1" source="Lo34l0AC3N942EHVy-g1-123" target="Lo34l0AC3N942EHVy-g1-2" edge="1">
          <mxGeometry width="50" height="50" relative="1" as="geometry">
            <mxPoint x="470" y="1540" as="sourcePoint" />
            <mxPoint x="520" y="1490" as="targetPoint" />
            <Array as="points">
              <mxPoint x="380" y="1210" />
            </Array>
          </mxGeometry>
        </mxCell>
        <mxCell id="Lo34l0AC3N942EHVy-g1-137" value="" style="edgeStyle=elbowEdgeStyle;elbow=vertical;endArrow=classic;html=1;exitX=0;exitY=0.5;exitDx=0;exitDy=0;entryX=1.006;entryY=0.351;entryDx=0;entryDy=0;entryPerimeter=0;strokeColor=#006658;fontColor=#5C5C5C;" parent="1" source="Lo34l0AC3N942EHVy-g1-125" target="Lo34l0AC3N942EHVy-g1-82" edge="1">
          <mxGeometry width="50" height="50" relative="1" as="geometry">
            <mxPoint x="470" y="1480" as="sourcePoint" />
            <mxPoint x="700" y="1013.1034482758621" as="targetPoint" />
            <Array as="points">
              <mxPoint x="650" y="1550" />
            </Array>
          </mxGeometry>
        </mxCell>
        <mxCell id="Lo34l0AC3N942EHVy-g1-143" value="specification 冗余记录规格&lt;br&gt;" style="text;html=1;strokeColor=none;fillColor=none;align=left;verticalAlign=top;spacingLeft=4;spacingRight=4;whiteSpace=wrap;overflow=hidden;rotatable=0;points=[[0,0.5],[1,0.5]];portConstraint=eastwest;fontColor=#5C5C5C;" parent="1" vertex="1">
          <mxGeometry x="1310" y="1275" width="240" height="26" as="geometry" />
        </mxCell>
        <mxCell id="Lo34l0AC3N942EHVy-g1-144" value="" style="edgeStyle=elbowEdgeStyle;elbow=vertical;endArrow=classic;html=1;exitX=0;exitY=0.5;exitDx=0;exitDy=0;entryX=1;entryY=0.5;entryDx=0;entryDy=0;strokeColor=#006658;fontColor=#5C5C5C;" parent="1" source="Lo34l0AC3N942EHVy-g1-143" target="Lo34l0AC3N942EHVy-g1-113" edge="1">
          <mxGeometry width="50" height="50" relative="1" as="geometry">
            <mxPoint x="770" y="1230" as="sourcePoint" />
            <mxPoint x="820" y="1180" as="targetPoint" />
          </mxGeometry>
        </mxCell>
        <mxCell id="Lo34l0AC3N942EHVy-g1-145" value="" style="edgeStyle=orthogonalEdgeStyle;elbow=vertical;endArrow=classic;html=1;fontColor=#5C5C5C;strokeColor=#006658;fillColor=#21C0A5;exitX=1;exitY=0.5;exitDx=0;exitDy=0;" parent="1" source="Lo34l0AC3N942EHVy-g1-104" edge="1">
          <mxGeometry width="50" height="50" relative="1" as="geometry">
            <mxPoint x="570" y="1270" as="sourcePoint" />
            <mxPoint x="1050" y="1200" as="targetPoint" />
          </mxGeometry>
        </mxCell>
        <mxCell id="Lo34l0AC3N942EHVy-g1-146" value="" style="edgeStyle=elbowEdgeStyle;elbow=horizontal;endArrow=none;html=1;exitX=0;exitY=0.5;exitDx=0;exitDy=0;strokeColor=#006658;fontColor=#5C5C5C;" parent="1" source="Lo34l0AC3N942EHVy-g1-121" target="Lo34l0AC3N942EHVy-g1-110" edge="1">
          <mxGeometry width="50" height="50" relative="1" as="geometry">
            <mxPoint x="770" y="1443.0000000000002" as="sourcePoint" />
            <mxPoint x="220" y="157.24137931034488" as="targetPoint" />
            <Array as="points">
              <mxPoint x="380" y="1540" />
              <mxPoint x="340" y="1240" />
            </Array>
          </mxGeometry>
        </mxCell>
        <mxCell id="Lo34l0AC3N942EHVy-g1-147" value="fix 维修厂" style="swimlane;html=1;fontStyle=1;align=center;verticalAlign=top;childLayout=stackLayout;horizontal=1;startSize=26;horizontalStack=0;resizeParent=1;resizeLast=0;collapsible=1;marginBottom=0;swimlaneFillColor=#ffffff;rounded=0;shadow=0;comic=0;labelBackgroundColor=none;strokeWidth=1;fillColor=none;fontFamily=Verdana;fontSize=12;strokeColor=#006658;fontColor=#5C5C5C;" parent="1" vertex="1">
          <mxGeometry x="1050" y="1355" width="240" height="215" as="geometry">
            <mxRectangle x="50" y="130" width="70" height="26" as="alternateBounds" />
          </mxGeometry>
        </mxCell>
        <mxCell id="Lo34l0AC3N942EHVy-g1-148" value="id&lt;br&gt;" style="text;html=1;strokeColor=none;fillColor=none;align=left;verticalAlign=top;spacingLeft=4;spacingRight=4;whiteSpace=wrap;overflow=hidden;rotatable=0;points=[[0,0.5],[1,0.5]];portConstraint=eastwest;fontColor=#5C5C5C;" parent="Lo34l0AC3N942EHVy-g1-147" vertex="1">
          <mxGeometry y="26" width="240" height="26" as="geometry" />
        </mxCell>
        <mxCell id="Lo34l0AC3N942EHVy-g1-149" value="name&amp;nbsp; string 维修地点名" style="text;html=1;strokeColor=none;fillColor=none;align=left;verticalAlign=top;spacingLeft=4;spacingRight=4;whiteSpace=wrap;overflow=hidden;rotatable=0;points=[[0,0.5],[1,0.5]];portConstraint=eastwest;fontColor=#5C5C5C;" parent="Lo34l0AC3N942EHVy-g1-147" vertex="1">
          <mxGeometry y="52" width="240" height="26" as="geometry" />
        </mxCell>
        <mxCell id="Lo34l0AC3N942EHVy-g1-150" value="address string 地址" style="text;html=1;strokeColor=none;fillColor=none;align=left;verticalAlign=top;spacingLeft=4;spacingRight=4;whiteSpace=wrap;overflow=hidden;rotatable=0;points=[[0,0.5],[1,0.5]];portConstraint=eastwest;fontColor=#5C5C5C;" parent="Lo34l0AC3N942EHVy-g1-147" vertex="1">
          <mxGeometry y="78" width="240" height="26" as="geometry" />
        </mxCell>
        <mxCell id="Lo34l0AC3N942EHVy-g1-151" value="leader_id int&amp;nbsp; 管理员id&amp;nbsp;" style="text;html=1;strokeColor=none;fillColor=none;align=left;verticalAlign=top;spacingLeft=4;spacingRight=4;whiteSpace=wrap;overflow=hidden;rotatable=0;points=[[0,0.5],[1,0.5]];portConstraint=eastwest;fontColor=#5C5C5C;" parent="Lo34l0AC3N942EHVy-g1-147" vertex="1">
          <mxGeometry y="104" width="240" height="26" as="geometry" />
        </mxCell>
        <mxCell id="Lo34l0AC3N942EHVy-g1-152" value="remark string 备注" style="text;html=1;strokeColor=none;fillColor=none;align=left;verticalAlign=top;spacingLeft=4;spacingRight=4;whiteSpace=wrap;overflow=hidden;rotatable=0;points=[[0,0.5],[1,0.5]];portConstraint=eastwest;fontColor=#5C5C5C;" parent="Lo34l0AC3N942EHVy-g1-147" vertex="1">
          <mxGeometry y="130" width="240" height="26" as="geometry" />
        </mxCell>
        <mxCell id="Lo34l0AC3N942EHVy-g1-153" value="is_able bool 是否启用" style="text;html=1;strokeColor=none;fillColor=none;align=left;verticalAlign=top;spacingLeft=4;spacingRight=4;whiteSpace=wrap;overflow=hidden;rotatable=0;points=[[0,0.5],[1,0.5]];portConstraint=eastwest;fontColor=#5C5C5C;" parent="Lo34l0AC3N942EHVy-g1-147" vertex="1">
          <mxGeometry y="156" width="240" height="26" as="geometry" />
        </mxCell>
        <mxCell id="Lo34l0AC3N942EHVy-g1-154" value="company_id int 公司id" style="text;html=1;strokeColor=none;fillColor=none;align=left;verticalAlign=top;spacingLeft=4;spacingRight=4;whiteSpace=wrap;overflow=hidden;rotatable=0;points=[[0,0.5],[1,0.5]];portConstraint=eastwest;fontColor=#5C5C5C;" parent="1" vertex="1">
          <mxGeometry x="1050" y="1540" width="240" height="26" as="geometry" />
        </mxCell>
        <mxCell id="Lo34l0AC3N942EHVy-g1-155" value="" style="edgeStyle=orthogonalEdgeStyle;elbow=vertical;endArrow=classic;html=1;fontColor=#5C5C5C;strokeColor=#006658;fillColor=#21C0A5;exitX=0;exitY=0.5;exitDx=0;exitDy=0;" parent="1" source="Lo34l0AC3N942EHVy-g1-150" edge="1">
          <mxGeometry width="50" height="50" relative="1" as="geometry">
            <mxPoint x="540" y="1410" as="sourcePoint" />
            <mxPoint x="220" y="155.2941176470588" as="targetPoint" />
          </mxGeometry>
        </mxCell>
        <mxCell id="Lo34l0AC3N942EHVy-g1-156" value="" style="edgeStyle=elbowEdgeStyle;elbow=vertical;endArrow=classic;html=1;fontColor=#5C5C5C;strokeColor=#006658;fillColor=#21C0A5;exitX=0;exitY=0.5;exitDx=0;exitDy=0;entryX=1;entryY=0.5;entryDx=0;entryDy=0;" parent="1" source="Lo34l0AC3N942EHVy-g1-154" target="Lo34l0AC3N942EHVy-g1-17" edge="1">
          <mxGeometry width="50" height="50" relative="1" as="geometry">
            <mxPoint x="540" y="1320" as="sourcePoint" />
            <mxPoint x="590" y="1270" as="targetPoint" />
          </mxGeometry>
        </mxCell>
        <mxCell id="Lo34l0AC3N942EHVy-g1-157" value="fix_records 订单表" style="swimlane;html=1;fontStyle=1;align=center;verticalAlign=top;childLayout=stackLayout;horizontal=1;startSize=26;horizontalStack=0;resizeParent=1;resizeLast=0;collapsible=1;marginBottom=0;swimlaneFillColor=#ffffff;rounded=0;shadow=0;comic=0;labelBackgroundColor=none;strokeWidth=1;fillColor=none;fontFamily=Verdana;fontSize=12;strokeColor=#006658;fontColor=#5C5C5C;" parent="1" vertex="1">
          <mxGeometry x="1050" y="1580" width="240" height="180" as="geometry">
            <mxRectangle x="50" y="130" width="70" height="26" as="alternateBounds" />
          </mxGeometry>
        </mxCell>
        <mxCell id="Lo34l0AC3N942EHVy-g1-158" value="id&lt;br&gt;" style="text;html=1;strokeColor=none;fillColor=none;align=left;verticalAlign=top;spacingLeft=4;spacingRight=4;whiteSpace=wrap;overflow=hidden;rotatable=0;points=[[0,0.5],[1,0.5]];portConstraint=eastwest;fontColor=#5C5C5C;" parent="Lo34l0AC3N942EHVy-g1-157" vertex="1">
          <mxGeometry y="26" width="240" height="26" as="geometry" />
        </mxCell>
        <mxCell id="Lo34l0AC3N942EHVy-g1-159" value="fix_id int 维修厂id" style="text;html=1;strokeColor=none;fillColor=none;align=left;verticalAlign=top;spacingLeft=4;spacingRight=4;whiteSpace=wrap;overflow=hidden;rotatable=0;points=[[0,0.5],[1,0.5]];portConstraint=eastwest;fontColor=#5C5C5C;" parent="Lo34l0AC3N942EHVy-g1-157" vertex="1">
          <mxGeometry y="52" width="240" height="26" as="geometry" />
        </mxCell>
        <mxCell id="Lo34l0AC3N942EHVy-g1-160" value="steel_id int 型钢id" style="text;html=1;strokeColor=none;fillColor=none;align=left;verticalAlign=top;spacingLeft=4;spacingRight=4;whiteSpace=wrap;overflow=hidden;rotatable=0;points=[[0,0.5],[1,0.5]];portConstraint=eastwest;fontColor=#5C5C5C;" parent="Lo34l0AC3N942EHVy-g1-157" vertex="1">
          <mxGeometry y="78" width="240" height="26" as="geometry" />
        </mxCell>
        <mxCell id="Lo34l0AC3N942EHVy-g1-161" value="out_at time 出厂时间" style="text;html=1;strokeColor=none;fillColor=none;align=left;verticalAlign=top;spacingLeft=4;spacingRight=4;whiteSpace=wrap;overflow=hidden;rotatable=0;points=[[0,0.5],[1,0.5]];portConstraint=eastwest;fontColor=#5C5C5C;" parent="Lo34l0AC3N942EHVy-g1-157" vertex="1">
          <mxGeometry y="104" width="240" height="26" as="geometry" />
        </mxCell>
        <mxCell id="Lo34l0AC3N942EHVy-g1-162" value="entered_at time 入厂时间" style="text;html=1;strokeColor=none;fillColor=none;align=left;verticalAlign=top;spacingLeft=4;spacingRight=4;whiteSpace=wrap;overflow=hidden;rotatable=0;points=[[0,0.5],[1,0.5]];portConstraint=eastwest;fontColor=#5C5C5C;" parent="Lo34l0AC3N942EHVy-g1-157" vertex="1">
          <mxGeometry y="130" width="240" height="26" as="geometry" />
        </mxCell>
        <mxCell id="Lo34l0AC3N942EHVy-g1-163" value="" style="edgeStyle=orthogonalEdgeStyle;elbow=vertical;endArrow=classic;html=1;fontColor=#5C5C5C;strokeColor=#006658;fillColor=#21C0A5;exitX=0;exitY=0.5;exitDx=0;exitDy=0;entryX=1;entryY=0.5;entryDx=0;entryDy=0;" parent="1" source="Lo34l0AC3N942EHVy-g1-160" target="Lo34l0AC3N942EHVy-g1-55" edge="1">
          <mxGeometry width="50" height="50" relative="1" as="geometry">
            <mxPoint x="540" y="1610" as="sourcePoint" />
            <mxPoint x="590" y="1560" as="targetPoint" />
          </mxGeometry>
        </mxCell>
        <mxCell id="Lo34l0AC3N942EHVy-g1-164" value="" style="edgeStyle=orthogonalEdgeStyle;elbow=vertical;endArrow=classic;html=1;fontColor=#5C5C5C;strokeColor=#006658;fillColor=#21C0A5;exitX=0;exitY=0.5;exitDx=0;exitDy=0;" parent="1" source="Lo34l0AC3N942EHVy-g1-159" edge="1">
          <mxGeometry width="50" height="50" relative="1" as="geometry">
            <mxPoint x="540" y="1720" as="sourcePoint" />
            <mxPoint x="1060" y="1400" as="targetPoint" />
          </mxGeometry>
        </mxCell>
        <mxCell id="Lo34l0AC3N942EHVy-g1-165" value="config 配置表" style="swimlane;html=1;fontStyle=1;align=center;verticalAlign=top;childLayout=stackLayout;horizontal=1;startSize=26;horizontalStack=0;resizeParent=1;resizeLast=0;collapsible=1;marginBottom=0;swimlaneFillColor=#ffffff;rounded=0;shadow=0;comic=0;labelBackgroundColor=none;strokeWidth=1;fillColor=none;fontFamily=Verdana;fontSize=12;strokeColor=#006658;fontColor=#5C5C5C;" parent="1" vertex="1">
          <mxGeometry x="1080" y="290" width="240" height="150" as="geometry">
            <mxRectangle x="50" y="130" width="70" height="26" as="alternateBounds" />
          </mxGeometry>
        </mxCell>
        <mxCell id="Lo34l0AC3N942EHVy-g1-166" value="id&lt;br&gt;" style="text;html=1;strokeColor=none;fillColor=none;align=left;verticalAlign=top;spacingLeft=4;spacingRight=4;whiteSpace=wrap;overflow=hidden;rotatable=0;points=[[0,0.5],[1,0.5]];portConstraint=eastwest;fontColor=#5C5C5C;" parent="Lo34l0AC3N942EHVy-g1-165" vertex="1">
          <mxGeometry y="26" width="240" height="26" as="geometry" />
        </mxCell>
        <mxCell id="Lo34l0AC3N942EHVy-g1-167" value="name string 配置名" style="text;html=1;strokeColor=none;fillColor=none;align=left;verticalAlign=top;spacingLeft=4;spacingRight=4;whiteSpace=wrap;overflow=hidden;rotatable=0;points=[[0,0.5],[1,0.5]];portConstraint=eastwest;fontColor=#5C5C5C;" parent="Lo34l0AC3N942EHVy-g1-165" vertex="1">
          <mxGeometry y="52" width="240" height="26" as="geometry" />
        </mxCell>
        <mxCell id="Lo34l0AC3N942EHVy-g1-168" value="value string 配置值" style="text;html=1;strokeColor=none;fillColor=none;align=left;verticalAlign=top;spacingLeft=4;spacingRight=4;whiteSpace=wrap;overflow=hidden;rotatable=0;points=[[0,0.5],[1,0.5]];portConstraint=eastwest;fontColor=#5C5C5C;" parent="Lo34l0AC3N942EHVy-g1-165" vertex="1">
          <mxGeometry y="78" width="240" height="28" as="geometry" />
        </mxCell>
        <mxCell id="Lo34l0AC3N942EHVy-g1-169" value="remark string 备注" style="text;html=1;strokeColor=none;fillColor=none;align=left;verticalAlign=top;spacingLeft=4;spacingRight=4;whiteSpace=wrap;overflow=hidden;rotatable=0;points=[[0,0.5],[1,0.5]];portConstraint=eastwest;fontColor=#5C5C5C;" parent="Lo34l0AC3N942EHVy-g1-165" vertex="1">
          <mxGeometry y="106" width="240" height="28" as="geometry" />
        </mxCell>
        <mxCell id="Lo34l0AC3N942EHVy-g1-170" value="logs 操作日志表" style="swimlane;html=1;fontStyle=1;align=center;verticalAlign=top;childLayout=stackLayout;horizontal=1;startSize=26;horizontalStack=0;resizeParent=1;resizeLast=0;collapsible=1;marginBottom=0;swimlaneFillColor=#ffffff;rounded=0;shadow=0;comic=0;labelBackgroundColor=none;strokeWidth=1;fillColor=none;fontFamily=Verdana;fontSize=12;strokeColor=#006658;fontColor=#5C5C5C;" parent="1" vertex="1">
          <mxGeometry x="1350" y="290" width="240" height="150" as="geometry">
            <mxRectangle x="50" y="130" width="70" height="26" as="alternateBounds" />
          </mxGeometry>
        </mxCell>
        <mxCell id="Lo34l0AC3N942EHVy-g1-171" value="id&lt;br&gt;" style="text;html=1;strokeColor=none;fillColor=none;align=left;verticalAlign=top;spacingLeft=4;spacingRight=4;whiteSpace=wrap;overflow=hidden;rotatable=0;points=[[0,0.5],[1,0.5]];portConstraint=eastwest;fontColor=#5C5C5C;" parent="Lo34l0AC3N942EHVy-g1-170" vertex="1">
          <mxGeometry y="26" width="240" height="26" as="geometry" />
        </mxCell>
        <mxCell id="Lo34l0AC3N942EHVy-g1-172" value="type string&amp;nbsp; 操作类型 curd&amp;nbsp;&lt;br&gt;" style="text;html=1;strokeColor=none;fillColor=none;align=left;verticalAlign=top;spacingLeft=4;spacingRight=4;whiteSpace=wrap;overflow=hidden;rotatable=0;points=[[0,0.5],[1,0.5]];portConstraint=eastwest;fontColor=#5C5C5C;" parent="Lo34l0AC3N942EHVy-g1-170" vertex="1">
          <mxGeometry y="52" width="240" height="26" as="geometry" />
        </mxCell>
        <mxCell id="Lo34l0AC3N942EHVy-g1-173" value="content string 操作内容说明&amp;nbsp;" style="text;html=1;strokeColor=none;fillColor=none;align=left;verticalAlign=top;spacingLeft=4;spacingRight=4;whiteSpace=wrap;overflow=hidden;rotatable=0;points=[[0,0.5],[1,0.5]];portConstraint=eastwest;fontColor=#5C5C5C;" parent="Lo34l0AC3N942EHVy-g1-170" vertex="1">
          <mxGeometry y="78" width="240" height="26" as="geometry" />
        </mxCell>
        <mxCell id="Lo34l0AC3N942EHVy-g1-174" value="udi int 用户id" style="text;html=1;strokeColor=none;fillColor=none;align=left;verticalAlign=top;spacingLeft=4;spacingRight=4;whiteSpace=wrap;overflow=hidden;rotatable=0;points=[[0,0.5],[1,0.5]];portConstraint=eastwest;fontColor=#5C5C5C;" parent="Lo34l0AC3N942EHVy-g1-170" vertex="1">
          <mxGeometry y="104" width="240" height="26" as="geometry" />
        </mxCell>
        <mxCell id="Lo34l0AC3N942EHVy-g1-175" value="" style="edgeStyle=orthogonalEdgeStyle;elbow=vertical;endArrow=classic;html=1;fontColor=#5C5C5C;strokeColor=#006658;fillColor=#21C0A5;entryX=1;entryY=0.5;entryDx=0;entryDy=0;" parent="1" source="Lo34l0AC3N942EHVy-g1-174" target="Lo34l0AC3N942EHVy-g1-2" edge="1">
          <mxGeometry width="50" height="50" relative="1" as="geometry">
            <mxPoint x="940" y="450" as="sourcePoint" />
            <mxPoint x="990" y="400" as="targetPoint" />
          </mxGeometry>
        </mxCell>
        <mxCell id="Lo34l0AC3N942EHVy-g1-176" value="msg 消息表" style="swimlane;html=1;fontStyle=1;align=center;verticalAlign=top;childLayout=stackLayout;horizontal=1;startSize=26;horizontalStack=0;resizeParent=1;resizeLast=0;collapsible=1;marginBottom=0;swimlaneFillColor=#ffffff;rounded=0;shadow=0;comic=0;labelBackgroundColor=none;strokeWidth=1;fillColor=none;fontFamily=Verdana;fontSize=12;strokeColor=#006658;fontColor=#5C5C5C;" parent="1" vertex="1">
          <mxGeometry x="1270" y="490" width="240" height="150" as="geometry">
            <mxRectangle x="50" y="130" width="70" height="26" as="alternateBounds" />
          </mxGeometry>
        </mxCell>
        <mxCell id="Lo34l0AC3N942EHVy-g1-177" value="id&lt;br&gt;" style="text;html=1;strokeColor=none;fillColor=none;align=left;verticalAlign=top;spacingLeft=4;spacingRight=4;whiteSpace=wrap;overflow=hidden;rotatable=0;points=[[0,0.5],[1,0.5]];portConstraint=eastwest;fontColor=#5C5C5C;" parent="Lo34l0AC3N942EHVy-g1-176" vertex="1">
          <mxGeometry y="26" width="240" height="26" as="geometry" />
        </mxCell>
        <mxCell id="Lo34l0AC3N942EHVy-g1-178" value="is_read boo 是否已读" style="text;html=1;strokeColor=none;fillColor=none;align=left;verticalAlign=top;spacingLeft=4;spacingRight=4;whiteSpace=wrap;overflow=hidden;rotatable=0;points=[[0,0.5],[1,0.5]];portConstraint=eastwest;fontColor=#5C5C5C;" parent="Lo34l0AC3N942EHVy-g1-176" vertex="1">
          <mxGeometry y="52" width="240" height="26" as="geometry" />
        </mxCell>
        <mxCell id="Lo34l0AC3N942EHVy-g1-179" value="content string 操作内容说明&amp;nbsp;" style="text;html=1;strokeColor=none;fillColor=none;align=left;verticalAlign=top;spacingLeft=4;spacingRight=4;whiteSpace=wrap;overflow=hidden;rotatable=0;points=[[0,0.5],[1,0.5]];portConstraint=eastwest;fontColor=#5C5C5C;" parent="Lo34l0AC3N942EHVy-g1-176" vertex="1">
          <mxGeometry y="78" width="240" height="26" as="geometry" />
        </mxCell>
        <mxCell id="Lo34l0AC3N942EHVy-g1-180" value="udi int 用户id" style="text;html=1;strokeColor=none;fillColor=none;align=left;verticalAlign=top;spacingLeft=4;spacingRight=4;whiteSpace=wrap;overflow=hidden;rotatable=0;points=[[0,0.5],[1,0.5]];portConstraint=eastwest;fontColor=#5C5C5C;" parent="Lo34l0AC3N942EHVy-g1-176" vertex="1">
          <mxGeometry y="104" width="240" height="26" as="geometry" />
        </mxCell>
        <mxCell id="Lo34l0AC3N942EHVy-g1-181" value="" style="edgeStyle=orthogonalEdgeStyle;elbow=vertical;endArrow=classic;html=1;fontColor=#5C5C5C;strokeColor=#006658;fillColor=#21C0A5;exitX=0;exitY=0.5;exitDx=0;exitDy=0;" parent="1" source="Lo34l0AC3N942EHVy-g1-180" edge="1">
          <mxGeometry width="50" height="50" relative="1" as="geometry">
            <mxPoint x="1170" y="660" as="sourcePoint" />
            <mxPoint x="220" y="173.33333333333334" as="targetPoint" />
          </mxGeometry>
        </mxCell>
        <mxCell id="mu4SmGHbdRoFc3koYthl-5" style="edgeStyle=orthogonalEdgeStyle;rounded=0;orthogonalLoop=1;jettySize=auto;html=1;" parent="1" edge="1">
          <mxGeometry relative="1" as="geometry">
            <mxPoint x="1050" y="1200" as="targetPoint" />
            <mxPoint x="1050" y="1190" as="sourcePoint" />
          </mxGeometry>
        </mxCell>
        <mxCell id="mu4SmGHbdRoFc3koYthl-7" value="order_specification_steel 订单规格型钢表" style="swimlane;html=1;fontStyle=1;align=center;verticalAlign=top;childLayout=stackLayout;horizontal=1;startSize=26;horizontalStack=0;resizeParent=1;resizeLast=0;collapsible=1;marginBottom=0;swimlaneFillColor=#ffffff;rounded=0;shadow=0;comic=0;labelBackgroundColor=none;strokeWidth=1;fillColor=none;fontFamily=Verdana;fontSize=12;strokeColor=#006658;fontColor=#5C5C5C;" parent="1" vertex="1">
          <mxGeometry x="1430" y="800" width="370" height="360" as="geometry">
            <mxRectangle x="50" y="130" width="70" height="26" as="alternateBounds" />
          </mxGeometry>
        </mxCell>
        <mxCell id="mu4SmGHbdRoFc3koYthl-8" value="id&lt;br&gt;" style="text;html=1;strokeColor=none;fillColor=none;align=left;verticalAlign=top;spacingLeft=4;spacingRight=4;whiteSpace=wrap;overflow=hidden;rotatable=0;points=[[0,0.5],[1,0.5]];portConstraint=eastwest;fontColor=#5C5C5C;" parent="mu4SmGHbdRoFc3koYthl-7" vertex="1">
          <mxGeometry y="26" width="370" height="26" as="geometry" />
        </mxCell>
        <mxCell id="mu4SmGHbdRoFc3koYthl-9" value="stee_id 型钢id" style="text;html=1;strokeColor=none;fillColor=none;align=left;verticalAlign=top;spacingLeft=4;spacingRight=4;whiteSpace=wrap;overflow=hidden;rotatable=0;points=[[0,0.5],[1,0.5]];portConstraint=eastwest;fontColor=#5C5C5C;" parent="mu4SmGHbdRoFc3koYthl-7" vertex="1">
          <mxGeometry y="52" width="370" height="26" as="geometry" />
        </mxCell>
        <mxCell id="mu4SmGHbdRoFc3koYthl-15" value="order_specification_id 订单规格" style="text;html=1;strokeColor=none;fillColor=none;align=left;verticalAlign=top;spacingLeft=4;spacingRight=4;whiteSpace=wrap;overflow=hidden;rotatable=0;points=[[0,0.5],[1,0.5]];portConstraint=eastwest;fontColor=#5C5C5C;" parent="mu4SmGHbdRoFc3koYthl-7" vertex="1">
          <mxGeometry y="78" width="370" height="26" as="geometry" />
        </mxCell>
        <mxCell id="EYPpDBVKtfGNzoRL958s-1" style="edgeStyle=orthogonalEdgeStyle;rounded=0;orthogonalLoop=1;jettySize=auto;html=1;exitX=1;exitY=0.5;exitDx=0;exitDy=0;" parent="mu4SmGHbdRoFc3koYthl-7" source="mu4SmGHbdRoFc3koYthl-9" target="mu4SmGHbdRoFc3koYthl-9" edge="1">
          <mxGeometry relative="1" as="geometry" />
        </mxCell>
        <mxCell id="EYPpDBVKtfGNzoRL958s-2" value="to_workshop_express_id 物流订单id" style="text;html=1;strokeColor=none;fillColor=none;align=left;verticalAlign=top;spacingLeft=4;spacingRight=4;whiteSpace=wrap;overflow=hidden;rotatable=0;points=[[0,0.5],[1,0.5]];portConstraint=eastwest;fontColor=#5C5C5C;" parent="mu4SmGHbdRoFc3koYthl-7" vertex="1">
          <mxGeometry y="104" width="370" height="26" as="geometry" />
        </mxCell>
        <mxCell id="EYPpDBVKtfGNzoRL958s-3" value="to_repository_express_id 归库物流单id" style="text;html=1;strokeColor=none;fillColor=none;align=left;verticalAlign=top;spacingLeft=4;spacingRight=4;whiteSpace=wrap;overflow=hidden;rotatable=0;points=[[0,0.5],[1,0.5]];portConstraint=eastwest;fontColor=#5C5C5C;" parent="mu4SmGHbdRoFc3koYthl-7" vertex="1">
          <mxGeometry y="130" width="370" height="26" as="geometry" />
        </mxCell>
        <mxCell id="EYPpDBVKtfGNzoRL958s-4" value="to_workshjop_express_id 出库物流单id" style="text;html=1;strokeColor=none;fillColor=none;align=left;verticalAlign=top;spacingLeft=4;spacingRight=4;whiteSpace=wrap;overflow=hidden;rotatable=0;points=[[0,0.5],[1,0.5]];portConstraint=eastwest;fontColor=#5C5C5C;" parent="mu4SmGHbdRoFc3koYthl-7" vertex="1">
          <mxGeometry y="156" width="370" height="26" as="geometry" />
        </mxCell>
        <mxCell id="EYPpDBVKtfGNzoRL958s-5" value="location_code 安装位置" style="text;html=1;strokeColor=none;fillColor=none;align=left;verticalAlign=top;spacingLeft=4;spacingRight=4;whiteSpace=wrap;overflow=hidden;rotatable=0;points=[[0,0.5],[1,0.5]];portConstraint=eastwest;fontColor=#5C5C5C;" parent="mu4SmGHbdRoFc3koYthl-7" vertex="1">
          <mxGeometry y="182" width="370" height="26" as="geometry" />
        </mxCell>
        <mxCell id="EYPpDBVKtfGNzoRL958s-7" value="installactionAt 安装时间&lt;br&gt;" style="text;html=1;strokeColor=none;fillColor=none;align=left;verticalAlign=top;spacingLeft=4;spacingRight=4;whiteSpace=wrap;overflow=hidden;rotatable=0;points=[[0,0.5],[1,0.5]];portConstraint=eastwest;fontColor=#5C5C5C;" parent="mu4SmGHbdRoFc3koYthl-7" vertex="1">
          <mxGeometry y="208" width="370" height="26" as="geometry" />
        </mxCell>
        <mxCell id="EYPpDBVKtfGNzoRL958s-6" value="into_workshop_at 入场时间&amp;nbsp;" style="text;html=1;strokeColor=none;fillColor=none;align=left;verticalAlign=top;spacingLeft=4;spacingRight=4;whiteSpace=wrap;overflow=hidden;rotatable=0;points=[[0,0.5],[1,0.5]];portConstraint=eastwest;fontColor=#5C5C5C;" parent="mu4SmGHbdRoFc3koYthl-7" vertex="1">
          <mxGeometry y="234" width="370" height="26" as="geometry" />
        </mxCell>
        <mxCell id="EYPpDBVKtfGNzoRL958s-8" value="out_workshop_at 出场时间" style="text;html=1;strokeColor=none;fillColor=none;align=left;verticalAlign=top;spacingLeft=4;spacingRight=4;whiteSpace=wrap;overflow=hidden;rotatable=0;points=[[0,0.5],[1,0.5]];portConstraint=eastwest;fontColor=#5C5C5C;" parent="mu4SmGHbdRoFc3koYthl-7" vertex="1">
          <mxGeometry y="260" width="370" height="26" as="geometry" />
        </mxCell>
        <mxCell id="EYPpDBVKtfGNzoRL958s-9" value="intoRepositoryAt&amp;nbsp; 归库时间&amp;nbsp;" style="text;html=1;strokeColor=none;fillColor=none;align=left;verticalAlign=top;spacingLeft=4;spacingRight=4;whiteSpace=wrap;overflow=hidden;rotatable=0;points=[[0,0.5],[1,0.5]];portConstraint=eastwest;fontColor=#5C5C5C;" parent="mu4SmGHbdRoFc3koYthl-7" vertex="1">
          <mxGeometry y="286" width="370" height="26" as="geometry" />
        </mxCell>
        <mxCell id="EYPpDBVKtfGNzoRL958s-10" value="out_repostiry_at 出库时间" style="text;html=1;strokeColor=none;fillColor=none;align=left;verticalAlign=top;spacingLeft=4;spacingRight=4;whiteSpace=wrap;overflow=hidden;rotatable=0;points=[[0,0.5],[1,0.5]];portConstraint=eastwest;fontColor=#5C5C5C;" parent="mu4SmGHbdRoFc3koYthl-7" vertex="1">
          <mxGeometry y="312" width="370" height="26" as="geometry" />
        </mxCell>
        <mxCell id="mu4SmGHbdRoFc3koYthl-16" value="" style="edgeStyle=elbowEdgeStyle;elbow=vertical;endArrow=classic;html=1;entryX=0;entryY=0.5;entryDx=0;entryDy=0;exitX=0;exitY=0.5;exitDx=0;exitDy=0;" parent="1" source="mu4SmGHbdRoFc3koYthl-15" target="KPvRqQYWDeznnrHQe_zY-137" edge="1">
          <mxGeometry width="50" height="50" relative="1" as="geometry">
            <mxPoint x="1210" y="1020" as="sourcePoint" />
            <mxPoint x="1260" y="970" as="targetPoint" />
            <Array as="points">
              <mxPoint x="1370" y="891" />
            </Array>
          </mxGeometry>
        </mxCell>
        <mxCell id="mu4SmGHbdRoFc3koYthl-17" value="" style="edgeStyle=elbowEdgeStyle;elbow=vertical;endArrow=classic;html=1;exitX=0;exitY=0.5;exitDx=0;exitDy=0;entryX=1;entryY=0.5;entryDx=0;entryDy=0;" parent="1" source="mu4SmGHbdRoFc3koYthl-9" target="Lo34l0AC3N942EHVy-g1-55" edge="1">
          <mxGeometry width="50" height="50" relative="1" as="geometry">
            <mxPoint x="1290" y="680" as="sourcePoint" />
            <mxPoint x="1200" y="810" as="targetPoint" />
          </mxGeometry>
        </mxCell>
      </root>
    </mxGraphModel>
  </diagram>
</mxfile>
